<svg width="10" height="11" viewBox="0 0 10 11" fill="none" xmlns="http://www.w3.org/2000/svg">
<path d="M9.68618 1.41695L8.5281 0.302293C8.32717 0.108896 8.05465 0.000245571 7.77049 0.000244141L3.92857 0.000244141C3.33683 0.000244141 2.85714 0.461943 2.85714 1.03149V2.06274H1.07143C0.479688 2.06274 0 2.52444 0 3.09399V9.96899C0 10.5385 0.479688 11.0002 1.07143 11.0002H6.07143C6.66317 11.0002 7.14286 10.5385 7.14286 9.96899V8.93774H8.92857C9.52031 8.93774 10 8.47604 10 7.90649V2.14615C10 1.87264 9.88712 1.61034 9.68618 1.41695ZM5.9375 9.96899H1.20536C1.16984 9.96899 1.13577 9.95541 1.11066 9.93124C1.08554 9.90706 1.07143 9.87428 1.07143 9.84009V3.2229C1.07143 3.18871 1.08554 3.15592 1.11066 3.13175C1.13577 3.10758 1.16984 3.09399 1.20536 3.09399H2.85714V7.90649C2.85714 8.47604 3.33683 8.93774 3.92857 8.93774H6.07143V9.84009C6.07143 9.87428 6.05732 9.90706 6.0322 9.93124C6.00709 9.95541 5.97302 9.96899 5.9375 9.96899ZM8.79464 7.90649H4.0625C4.02698 7.90649 3.99291 7.89291 3.9678 7.86874C3.94268 7.84456 3.92857 7.81178 3.92857 7.77759V1.1604C3.92857 1.12621 3.94268 1.09342 3.9678 1.06925C3.99291 1.04508 4.02698 1.03149 4.0625 1.03149H6.42857V2.92212C6.42857 3.20689 6.66842 3.43774 6.96429 3.43774H8.92857V7.77759C8.92857 7.81178 8.91446 7.84456 8.88934 7.86874C8.86423 7.89291 8.83016 7.90649 8.79464 7.90649V7.90649ZM8.92857 2.40649H7.5V1.03149H7.715C7.75051 1.03149 7.78458 1.04507 7.80971 1.06924L8.88935 2.1084C8.90179 2.12037 8.91165 2.13458 8.91838 2.15022C8.92511 2.16586 8.92857 2.18263 8.92857 2.19956V2.40649Z" fill="#F3DEB7"/>
</svg>
