<svg width="33" height="32" viewBox="0 0 33 32" fill="none" xmlns="http://www.w3.org/2000/svg">
<circle cx="16" cy="16" r="16" fill="white"/>
<path d="M26.1229 6.71581L25.2443 7.59445C27.3408 9.8872 28.5035 12.8816 28.5035 15.9884C28.5035 19.0952 27.3408 22.0895 25.2443 24.3823L26.1229 25.2609C28.4545 22.7319 29.749 19.418 29.749 15.9781C29.749 12.5383 28.4545 9.22438 26.1229 6.69531V6.71581Z" fill="#5A5564"/>
<path d="M7.64523 6.79197C9.93799 4.6954 12.9323 3.53274 16.0392 3.53274C19.146 3.53274 22.1403 4.6954 24.4331 6.79197L25.3117 5.91333C22.7826 3.58172 19.4688 2.28723 16.0289 2.28723C12.589 2.28723 9.27516 3.58172 6.74609 5.91333L7.64523 6.79197Z" fill="#5A5564"/>
<path d="M6.82237 24.3911C4.72828 22.0989 3.56715 19.1063 3.56715 16.0016C3.56715 12.8968 4.72828 9.90428 6.82237 7.61204L5.94373 6.7334C3.61212 9.26247 2.31763 12.5764 2.31763 16.0162C2.31763 19.4561 3.61212 22.7699 5.94373 25.299L6.82237 24.3911Z" fill="#5A5564"/>
<path d="M24.4212 25.2024C22.1285 27.299 19.1341 28.4616 16.0273 28.4616C12.9205 28.4616 9.92615 27.299 7.6334 25.2024L6.75476 26.081C9.28383 28.4126 12.5977 29.7071 16.0376 29.7071C19.4774 29.7071 22.7913 28.4126 25.3204 26.081L24.4212 25.2024Z" fill="#5A5564"/>
<path d="M21.5775 13.0684C21.4018 11.2349 19.8202 10.6199 17.8199 10.4325V7.90784H16.2735V10.3856C15.8664 10.3856 15.4505 10.3856 15.0375 10.3856V7.90784H13.5028V10.45H10.3661V12.1048C10.3661 12.1048 11.5083 12.0843 11.4907 12.1048C11.6967 12.0821 11.9034 12.1403 12.0673 12.2671C12.2312 12.3938 12.3395 12.5792 12.3694 12.7843V19.7431C12.365 19.8154 12.3461 19.8861 12.3139 19.951C12.2817 20.0159 12.2369 20.0737 12.1819 20.1209C12.1281 20.1691 12.065 20.2058 11.9965 20.229C11.9281 20.2521 11.8557 20.2612 11.7836 20.2556C11.8041 20.2732 10.659 20.2556 10.659 20.2556L10.3661 22.1037H13.4735V24.6869H15.0199V22.1418H16.2559V24.6752H17.8052V22.1213C20.4177 21.9631 22.2394 21.3188 22.4679 18.8732C22.6524 16.9051 21.7269 16.0265 20.2478 15.6721C21.147 15.2298 21.7034 14.4098 21.5775 13.0684ZM19.4102 18.5686C19.4102 20.4899 16.1182 20.2703 15.0697 20.2703V16.8612C16.1182 16.8641 19.4102 16.5624 19.4102 18.5686ZM18.6926 13.7654C18.6926 15.5227 15.9454 15.3089 15.0727 15.3089V12.2102C15.9454 12.2102 18.6926 11.9349 18.6926 13.7654Z" fill="#F09242"/>
<path d="M16.0273 32C12.8631 31.9994 9.77007 31.0606 7.13933 29.3023C4.50859 27.544 2.45829 25.0451 1.24765 22.1216C0.0370086 19.1981 -0.279598 15.9813 0.337859 12.8778C0.955316 9.77442 2.47911 6.92376 4.71657 4.6863C6.95403 2.44883 9.80469 0.925042 12.9081 0.307586C16.0115 -0.309871 19.2284 0.00673518 22.1519 1.21737C25.0754 2.42801 27.5742 4.47832 29.3326 7.10906C31.0909 9.73979 32.0297 12.8328 32.0303 15.9971C32.0307 18.0987 31.617 20.1798 30.8129 22.1216C30.0088 24.0633 28.8301 25.8276 27.344 27.3137C25.8579 28.7998 24.0936 29.9785 22.1519 30.7826C20.2101 31.5867 18.129 32.0004 16.0273 32V32ZM16.0273 1.24767C13.1121 1.24999 10.263 2.1165 7.84008 3.73769C5.41718 5.35888 3.52929 7.66197 2.41501 10.3559C1.30073 13.0498 1.01008 16.0135 1.57981 18.8726C2.14954 21.7316 3.55407 24.3576 5.61587 26.4185C7.67768 28.4795 10.3042 29.883 13.1635 30.4516C16.0227 31.0202 18.9864 30.7284 21.6798 29.613C24.3733 28.4977 26.6756 26.6089 28.2958 24.1853C29.9161 21.7618 30.7814 18.9123 30.7826 15.9971C30.7834 14.0594 30.4022 12.1407 29.6609 10.3505C28.9196 8.56025 27.8326 6.93372 26.4623 5.56388C25.0919 4.19404 23.4649 3.10776 21.6744 2.36715C19.8839 1.62654 17.965 1.24613 16.0273 1.24767V1.24767Z" fill="#282138"/>
</svg>
