<svg width="30" height="30" viewBox="0 0 30 30" fill="none" xmlns="http://www.w3.org/2000/svg">
<path d="M8.44673 21.497C8.35405 21.4043 8.22166 21.3513 8.08927 21.3513C8.00984 21.3513 7.94364 21.3646 7.87744 21.4043C7.82449 21.4308 7.78477 21.4573 7.74505 21.497C7.70533 21.5367 7.67886 21.5765 7.65238 21.6162C7.61266 21.6824 7.58618 21.7752 7.58618 21.8546C7.58618 21.9871 7.63914 22.1195 7.73181 22.2122C7.82449 22.305 7.95688 22.3579 8.08927 22.3579C8.22166 22.3579 8.35405 22.305 8.44673 22.2122C8.5394 22.1195 8.59236 21.9871 8.59236 21.8546C8.59236 21.7222 8.5394 21.5897 8.44673 21.497ZM8.22166 21.9871C8.18195 22.0268 8.14223 22.0401 8.08927 22.0401C8.03631 22.0401 7.98336 22.0268 7.95688 21.9871C7.91716 21.9473 7.90392 21.9076 7.90392 21.8546C7.90392 21.8016 7.91716 21.7487 7.95688 21.7222C7.9966 21.6824 8.03631 21.6692 8.08927 21.6692C8.14223 21.6692 8.19518 21.6824 8.22166 21.7222C8.26138 21.7619 8.27462 21.8016 8.27462 21.8546C8.28786 21.9076 8.26138 21.9606 8.22166 21.9871Z" fill="url(#paint0_linear_1072_4574)"/>
<path d="M8.44673 21.497C8.35405 21.4043 8.22166 21.3513 8.08927 21.3513C8.00984 21.3513 7.94364 21.3646 7.87744 21.4043C7.82449 21.4308 7.78477 21.4573 7.74505 21.497C7.70533 21.5367 7.67886 21.5765 7.65238 21.6162C7.61266 21.6824 7.58618 21.7752 7.58618 21.8546C7.58618 21.9871 7.63914 22.1195 7.73181 22.2122C7.82449 22.305 7.95688 22.3579 8.08927 22.3579C8.22166 22.3579 8.35405 22.305 8.44673 22.2122C8.5394 22.1195 8.59236 21.9871 8.59236 21.8546C8.59236 21.7222 8.5394 21.5897 8.44673 21.497ZM8.22166 21.9871C8.18195 22.0268 8.14223 22.0401 8.08927 22.0401C8.03631 22.0401 7.98336 22.0268 7.95688 21.9871C7.91716 21.9473 7.90392 21.9076 7.90392 21.8546C7.90392 21.8016 7.91716 21.7487 7.95688 21.7222C7.9966 21.6824 8.03631 21.6692 8.08927 21.6692C8.14223 21.6692 8.19518 21.6824 8.22166 21.7222C8.26138 21.7619 8.27462 21.8016 8.27462 21.8546C8.28786 21.9076 8.26138 21.9606 8.22166 21.9871Z" fill="url(#paint1_radial_1072_4574)" style="mix-blend-mode:overlay"/>
<path d="M8.44673 21.497C8.35405 21.4043 8.22166 21.3513 8.08927 21.3513C8.00984 21.3513 7.94364 21.3646 7.87744 21.4043C7.82449 21.4308 7.78477 21.4573 7.74505 21.497C7.70533 21.5367 7.67886 21.5765 7.65238 21.6162C7.61266 21.6824 7.58618 21.7752 7.58618 21.8546C7.58618 21.9871 7.63914 22.1195 7.73181 22.2122C7.82449 22.305 7.95688 22.3579 8.08927 22.3579C8.22166 22.3579 8.35405 22.305 8.44673 22.2122C8.5394 22.1195 8.59236 21.9871 8.59236 21.8546C8.59236 21.7222 8.5394 21.5897 8.44673 21.497ZM8.22166 21.9871C8.18195 22.0268 8.14223 22.0401 8.08927 22.0401C8.03631 22.0401 7.98336 22.0268 7.95688 21.9871C7.91716 21.9473 7.90392 21.9076 7.90392 21.8546C7.90392 21.8016 7.91716 21.7487 7.95688 21.7222C7.9966 21.6824 8.03631 21.6692 8.08927 21.6692C8.14223 21.6692 8.19518 21.6824 8.22166 21.7222C8.26138 21.7619 8.27462 21.8016 8.27462 21.8546C8.28786 21.9076 8.26138 21.9606 8.22166 21.9871Z" fill="#F0D7AB" style="mix-blend-mode:color"/>
<path d="M4.0647 17.8806C4.02498 17.7482 3.94554 17.6422 3.82639 17.576C3.76019 17.5363 3.68076 17.5098 3.61456 17.5098C3.56161 17.5098 3.50865 17.5098 3.45569 17.523C3.40274 17.5363 3.36302 17.5495 3.3233 17.576C3.25711 17.6157 3.19091 17.682 3.15119 17.7482C3.085 17.8674 3.07176 17.9998 3.09823 18.1323C3.15119 18.3574 3.36302 18.5031 3.58808 18.5031C3.6278 18.5031 3.68076 18.5031 3.72048 18.4899C3.97202 18.4237 4.13089 18.1588 4.0647 17.8806ZM3.6278 18.1985C3.57485 18.2118 3.52189 18.1985 3.48217 18.172C3.44245 18.1455 3.40274 18.1058 3.3895 18.0528C3.37626 17.9998 3.3895 17.9469 3.40274 17.9071C3.42921 17.8674 3.46893 17.8276 3.52189 17.8144C3.53513 17.8144 3.54837 17.8012 3.57485 17.8012C3.66752 17.8012 3.73372 17.8541 3.76019 17.9469C3.78667 18.0661 3.73372 18.172 3.6278 18.1985Z" fill="url(#paint2_linear_1072_4574)"/>
<path d="M4.0647 17.8806C4.02498 17.7482 3.94554 17.6422 3.82639 17.576C3.76019 17.5363 3.68076 17.5098 3.61456 17.5098C3.56161 17.5098 3.50865 17.5098 3.45569 17.523C3.40274 17.5363 3.36302 17.5495 3.3233 17.576C3.25711 17.6157 3.19091 17.682 3.15119 17.7482C3.085 17.8674 3.07176 17.9998 3.09823 18.1323C3.15119 18.3574 3.36302 18.5031 3.58808 18.5031C3.6278 18.5031 3.68076 18.5031 3.72048 18.4899C3.97202 18.4237 4.13089 18.1588 4.0647 17.8806ZM3.6278 18.1985C3.57485 18.2118 3.52189 18.1985 3.48217 18.172C3.44245 18.1455 3.40274 18.1058 3.3895 18.0528C3.37626 17.9998 3.3895 17.9469 3.40274 17.9071C3.42921 17.8674 3.46893 17.8276 3.52189 17.8144C3.53513 17.8144 3.54837 17.8012 3.57485 17.8012C3.66752 17.8012 3.73372 17.8541 3.76019 17.9469C3.78667 18.0661 3.73372 18.172 3.6278 18.1985Z" fill="url(#paint3_radial_1072_4574)" style="mix-blend-mode:overlay"/>
<path d="M4.0647 17.8806C4.02498 17.7482 3.94554 17.6422 3.82639 17.576C3.76019 17.5363 3.68076 17.5098 3.61456 17.5098C3.56161 17.5098 3.50865 17.5098 3.45569 17.523C3.40274 17.5363 3.36302 17.5495 3.3233 17.576C3.25711 17.6157 3.19091 17.682 3.15119 17.7482C3.085 17.8674 3.07176 17.9998 3.09823 18.1323C3.15119 18.3574 3.36302 18.5031 3.58808 18.5031C3.6278 18.5031 3.68076 18.5031 3.72048 18.4899C3.97202 18.4237 4.13089 18.1588 4.0647 17.8806ZM3.6278 18.1985C3.57485 18.2118 3.52189 18.1985 3.48217 18.172C3.44245 18.1455 3.40274 18.1058 3.3895 18.0528C3.37626 17.9998 3.3895 17.9469 3.40274 17.9071C3.42921 17.8674 3.46893 17.8276 3.52189 17.8144C3.53513 17.8144 3.54837 17.8012 3.57485 17.8012C3.66752 17.8012 3.73372 17.8541 3.76019 17.9469C3.78667 18.0661 3.73372 18.172 3.6278 18.1985Z" fill="#F0D7AB" style="mix-blend-mode:color"/>
<path d="M2.85946 15.6555C2.79326 15.6025 2.72707 15.576 2.66087 15.5495C2.60792 15.5362 2.55496 15.523 2.48876 15.5362C2.43581 15.5362 2.39609 15.5495 2.34313 15.5627C2.15778 15.6422 2.02539 15.8276 2.02539 16.0263C2.02539 16.0396 2.02539 16.0528 2.02539 16.066C2.03863 16.1985 2.10483 16.3177 2.1975 16.4104C2.29017 16.4899 2.39609 16.5296 2.51524 16.5296C2.52848 16.5296 2.54172 16.5296 2.55496 16.5296C2.68735 16.5164 2.8065 16.4502 2.89918 16.3574C2.99185 16.2515 3.03157 16.119 3.01833 15.9866C3.01833 15.8674 2.95213 15.7482 2.85946 15.6555ZM2.67411 16.172C2.64763 16.2117 2.59468 16.2382 2.54172 16.2382C2.48876 16.2382 2.43581 16.225 2.39609 16.1985C2.35637 16.172 2.32989 16.119 2.32989 16.066C2.31665 15.9601 2.39609 15.8674 2.502 15.8541C2.55496 15.8541 2.60792 15.8674 2.64763 15.8939C2.68735 15.9204 2.71383 15.9733 2.71383 16.0263C2.72707 16.0793 2.71383 16.1323 2.67411 16.172Z" fill="url(#paint4_linear_1072_4574)"/>
<path d="M2.85946 15.6555C2.79326 15.6025 2.72707 15.576 2.66087 15.5495C2.60792 15.5362 2.55496 15.523 2.48876 15.5362C2.43581 15.5362 2.39609 15.5495 2.34313 15.5627C2.15778 15.6422 2.02539 15.8276 2.02539 16.0263C2.02539 16.0396 2.02539 16.0528 2.02539 16.066C2.03863 16.1985 2.10483 16.3177 2.1975 16.4104C2.29017 16.4899 2.39609 16.5296 2.51524 16.5296C2.52848 16.5296 2.54172 16.5296 2.55496 16.5296C2.68735 16.5164 2.8065 16.4502 2.89918 16.3574C2.99185 16.2515 3.03157 16.119 3.01833 15.9866C3.01833 15.8674 2.95213 15.7482 2.85946 15.6555ZM2.67411 16.172C2.64763 16.2117 2.59468 16.2382 2.54172 16.2382C2.48876 16.2382 2.43581 16.225 2.39609 16.1985C2.35637 16.172 2.32989 16.119 2.32989 16.066C2.31665 15.9601 2.39609 15.8674 2.502 15.8541C2.55496 15.8541 2.60792 15.8674 2.64763 15.8939C2.68735 15.9204 2.71383 15.9733 2.71383 16.0263C2.72707 16.0793 2.71383 16.1323 2.67411 16.172Z" fill="url(#paint5_radial_1072_4574)" style="mix-blend-mode:overlay"/>
<path d="M2.85946 15.6555C2.79326 15.6025 2.72707 15.576 2.66087 15.5495C2.60792 15.5362 2.55496 15.523 2.48876 15.5362C2.43581 15.5362 2.39609 15.5495 2.34313 15.5627C2.15778 15.6422 2.02539 15.8276 2.02539 16.0263C2.02539 16.0396 2.02539 16.0528 2.02539 16.066C2.03863 16.1985 2.10483 16.3177 2.1975 16.4104C2.29017 16.4899 2.39609 16.5296 2.51524 16.5296C2.52848 16.5296 2.54172 16.5296 2.55496 16.5296C2.68735 16.5164 2.8065 16.4502 2.89918 16.3574C2.99185 16.2515 3.03157 16.119 3.01833 15.9866C3.01833 15.8674 2.95213 15.7482 2.85946 15.6555ZM2.67411 16.172C2.64763 16.2117 2.59468 16.2382 2.54172 16.2382C2.48876 16.2382 2.43581 16.225 2.39609 16.1985C2.35637 16.172 2.32989 16.119 2.32989 16.066C2.31665 15.9601 2.39609 15.8674 2.502 15.8541C2.55496 15.8541 2.60792 15.8674 2.64763 15.8939C2.68735 15.9204 2.71383 15.9733 2.71383 16.0263C2.72707 16.0793 2.71383 16.1323 2.67411 16.172Z" fill="#F0D7AB" style="mix-blend-mode:color"/>
<path d="M2.05206 13.3376C1.9991 13.3111 1.94615 13.2979 1.89319 13.2979C1.84023 13.2979 1.78728 13.2979 1.74756 13.3111C1.53573 13.3508 1.37686 13.5363 1.35038 13.7614C1.33714 13.8939 1.37686 14.0263 1.46954 14.1323C1.56221 14.2382 1.68136 14.3045 1.81375 14.3177C1.82699 14.3177 1.84023 14.3177 1.86671 14.3177C1.98586 14.3177 2.09178 14.278 2.18445 14.1985C2.29036 14.1058 2.34332 13.9866 2.35656 13.8541C2.3698 13.629 2.25065 13.4303 2.05206 13.3376ZM1.97262 13.9469C1.93291 13.9733 1.87995 13.9998 1.82699 13.9866C1.77404 13.9866 1.73432 13.9601 1.6946 13.9204C1.65488 13.8806 1.64164 13.8277 1.65488 13.7747C1.66812 13.6687 1.74756 13.6025 1.85347 13.6025H1.86671C1.97262 13.6157 2.05206 13.7084 2.03882 13.8144C2.03882 13.8674 2.01234 13.9204 1.97262 13.9469Z" fill="url(#paint6_linear_1072_4574)"/>
<path d="M2.05206 13.3376C1.9991 13.3111 1.94615 13.2979 1.89319 13.2979C1.84023 13.2979 1.78728 13.2979 1.74756 13.3111C1.53573 13.3508 1.37686 13.5363 1.35038 13.7614C1.33714 13.8939 1.37686 14.0263 1.46954 14.1323C1.56221 14.2382 1.68136 14.3045 1.81375 14.3177C1.82699 14.3177 1.84023 14.3177 1.86671 14.3177C1.98586 14.3177 2.09178 14.278 2.18445 14.1985C2.29036 14.1058 2.34332 13.9866 2.35656 13.8541C2.3698 13.629 2.25065 13.4303 2.05206 13.3376ZM1.97262 13.9469C1.93291 13.9733 1.87995 13.9998 1.82699 13.9866C1.77404 13.9866 1.73432 13.9601 1.6946 13.9204C1.65488 13.8806 1.64164 13.8277 1.65488 13.7747C1.66812 13.6687 1.74756 13.6025 1.85347 13.6025H1.86671C1.97262 13.6157 2.05206 13.7084 2.03882 13.8144C2.03882 13.8674 2.01234 13.9204 1.97262 13.9469Z" fill="url(#paint7_radial_1072_4574)" style="mix-blend-mode:overlay"/>
<path d="M2.05206 13.3376C1.9991 13.3111 1.94615 13.2979 1.89319 13.2979C1.84023 13.2979 1.78728 13.2979 1.74756 13.3111C1.53573 13.3508 1.37686 13.5363 1.35038 13.7614C1.33714 13.8939 1.37686 14.0263 1.46954 14.1323C1.56221 14.2382 1.68136 14.3045 1.81375 14.3177C1.82699 14.3177 1.84023 14.3177 1.86671 14.3177C1.98586 14.3177 2.09178 14.278 2.18445 14.1985C2.29036 14.1058 2.34332 13.9866 2.35656 13.8541C2.3698 13.629 2.25065 13.4303 2.05206 13.3376ZM1.97262 13.9469C1.93291 13.9733 1.87995 13.9998 1.82699 13.9866C1.77404 13.9866 1.73432 13.9601 1.6946 13.9204C1.65488 13.8806 1.64164 13.8277 1.65488 13.7747C1.66812 13.6687 1.74756 13.6025 1.85347 13.6025H1.86671C1.97262 13.6157 2.05206 13.7084 2.03882 13.8144C2.03882 13.8674 2.01234 13.9204 1.97262 13.9469Z" fill="#F0D7AB" style="mix-blend-mode:color"/>
<path d="M14.1923 15.5106C14.1791 15.5636 14.1658 15.6033 14.1526 15.6563L16.3106 16.2258L16.2973 18.0404L16.6813 18.504L17.277 19.2325L18.3891 20.5834L20.6795 23.3649L20.706 16.4113C20.706 16.4113 20.2161 16.3583 19.5012 15.9477C19.5012 15.9477 19.488 15.9477 19.488 15.9344C19.3423 15.8417 19.1835 15.749 19.0114 15.6166C18.5877 15.2987 18.1111 14.8616 17.6345 14.2391L18.3229 14.1993L19.5277 14.1199L19.713 14.1066L19.9381 13.2589L20.9046 15.3649L21.593 17.802C21.593 17.802 22.2417 12.9411 19.6601 10.0669L14.1923 15.5106Z" fill="url(#paint8_linear_1072_4574)"/>
<path d="M14.1923 15.5106C14.1791 15.5636 14.1658 15.6033 14.1526 15.6563L16.3106 16.2258L16.2973 18.0404L16.6813 18.504L17.277 19.2325L18.3891 20.5834L20.6795 23.3649L20.706 16.4113C20.706 16.4113 20.2161 16.3583 19.5012 15.9477C19.5012 15.9477 19.488 15.9477 19.488 15.9344C19.3423 15.8417 19.1835 15.749 19.0114 15.6166C18.5877 15.2987 18.1111 14.8616 17.6345 14.2391L18.3229 14.1993L19.5277 14.1199L19.713 14.1066L19.9381 13.2589L20.9046 15.3649L21.593 17.802C21.593 17.802 22.2417 12.9411 19.6601 10.0669L14.1923 15.5106Z" fill="url(#paint9_radial_1072_4574)" style="mix-blend-mode:overlay"/>
<path d="M14.1923 15.5106C14.1791 15.5636 14.1658 15.6033 14.1526 15.6563L16.3106 16.2258L16.2973 18.0404L16.6813 18.504L17.277 19.2325L18.3891 20.5834L20.6795 23.3649L20.706 16.4113C20.706 16.4113 20.2161 16.3583 19.5012 15.9477C19.5012 15.9477 19.488 15.9477 19.488 15.9344C19.3423 15.8417 19.1835 15.749 19.0114 15.6166C18.5877 15.2987 18.1111 14.8616 17.6345 14.2391L18.3229 14.1993L19.5277 14.1199L19.713 14.1066L19.9381 13.2589L20.9046 15.3649L21.593 17.802C21.593 17.802 22.2417 12.9411 19.6601 10.0669L14.1923 15.5106Z" fill="#F0D7AB" style="mix-blend-mode:color"/>
<path d="M9.1748 9.86709C8.59227 10.4764 8.14214 11.1916 7.85088 11.973C7.49342 12.9134 7.37427 13.9466 7.49342 14.9664C7.59933 15.7744 7.86412 16.5691 8.30101 17.324C8.81734 18.2115 9.51902 18.9134 10.3266 19.43L10.9753 18.3439L12.1139 16.4234C12.0477 16.3836 11.9815 16.3439 11.9285 16.2909C11.8094 16.185 11.7035 16.0658 11.624 15.9333C11.2401 15.2711 11.4519 14.4101 12.1271 14.026C12.6832 13.6949 13.3849 13.8009 13.8218 14.2379C13.9012 14.3174 13.9806 14.4101 14.0468 14.5161C14.0998 14.5956 14.1263 14.675 14.166 14.7677L18.5746 10.3572C18.0451 9.66841 17.3831 9.12536 16.6549 8.72801C16.6417 8.72801 16.6285 8.71477 16.6152 8.71477C16.6285 8.71477 16.6417 8.72801 16.6549 8.72801L17.0786 7.08563C16.9197 7.0194 16.7609 6.95318 16.5887 6.9002V6.87371L16.6417 6.59556L17.4361 2.05252C17.4493 1.97305 17.3963 1.89358 17.3037 1.88033C14.1924 1.32404 10.9753 1.90682 8.23482 3.50947C6.39457 4.58232 4.8853 6.02603 3.74673 7.81411C2.6876 9.46974 1.98592 11.3903 1.73438 13.3505C1.78733 13.3373 1.82705 13.3373 1.88001 13.3373C1.93296 13.3373 1.98592 13.3505 2.03888 13.377C2.5552 9.33728 4.85882 5.8406 8.38045 3.77437C11.0018 2.23795 14.0865 1.66841 17.0918 2.15848L16.2842 6.76775C15.9135 6.66179 15.5296 6.58232 15.1457 6.55583V2.4896C15.1457 2.41013 15.0795 2.33066 14.9868 2.33066C11.6108 2.33066 8.4334 3.64192 6.03711 6.03927C3.65406 8.42338 2.33014 11.6154 2.33014 14.9929C2.33014 15.1783 2.33014 15.377 2.34338 15.5757C2.3831 15.5624 2.43605 15.5492 2.48901 15.5492C2.54197 15.5492 2.60816 15.5492 2.66112 15.5624C2.64788 15.377 2.64788 15.1916 2.64788 15.0062C2.64788 8.25119 8.10242 2.74126 14.8412 2.64854V6.54258C14.4572 6.52934 14.0601 6.54258 13.6761 6.60881L13.6629 6.50285L13.6364 6.31742L13.1068 3.35053C13.0936 3.27106 13.0142 3.20484 12.9215 3.23133C11.5181 3.48298 10.1942 3.97305 8.94973 4.68828C6.69907 6.01278 4.97798 7.97305 3.9718 10.3572C3.48195 11.5095 3.19069 12.728 3.07153 13.973C2.96562 15.1916 3.04505 16.4101 3.30984 17.6022C3.34956 17.5757 3.40251 17.5624 3.44223 17.5492C3.49519 17.536 3.54814 17.5227 3.6011 17.536C2.50225 12.5823 4.69995 7.53596 9.09536 4.95318C10.2472 4.27768 11.5049 3.80086 12.8023 3.56245L13.3054 6.38364L13.3584 6.67503C12.9877 6.7545 12.6037 6.87371 12.2463 7.0194L11.3328 4.51609C11.3195 4.47636 11.2931 4.44987 11.2534 4.42338C11.2136 4.41013 11.1739 4.39689 11.1342 4.42338C10.4987 4.66179 9.87647 4.95318 9.29395 5.28431C6.9109 6.67503 5.13685 8.88695 4.2763 11.5095C3.44223 14.0658 3.54814 16.834 4.56756 19.2975C4.46165 19.3903 4.39545 19.536 4.39545 19.6684C4.39545 19.7346 4.40869 19.8141 4.44841 19.8803C4.50136 19.9995 4.60728 20.0923 4.72643 20.1452C4.77939 20.1717 4.84558 20.1717 4.89854 20.1717C4.96474 20.1717 5.04417 20.1585 5.11037 20.1187C5.22952 20.0658 5.32219 19.9598 5.37515 19.8406C5.41487 19.7081 5.41487 19.5757 5.36191 19.4565C5.30896 19.3373 5.20304 19.2446 5.08389 19.1916C5.00445 19.1651 4.93826 19.1519 4.85882 19.1651C2.79351 14.132 4.75291 8.30417 9.46606 5.53596C9.99563 5.23133 10.5384 4.96642 11.1077 4.74126L11.8226 6.70152L11.9683 7.11212V7.12536C11.8226 7.19159 11.677 7.27106 11.5314 7.36378C11.3328 7.46974 11.1607 7.60219 10.9753 7.73464L9.91619 5.89358C9.87648 5.82735 9.7838 5.80086 9.70437 5.8406C9.69113 5.85384 9.67789 5.85384 9.66465 5.86709L9.63817 5.88033C7.2154 7.29755 5.48106 9.58894 4.76615 12.3174C4.05123 15.0459 4.44841 17.8936 5.865 20.3439C5.9312 20.4499 5.98415 20.5426 6.03711 20.6353C5.98415 20.7015 5.94444 20.781 5.9312 20.8605C5.90472 20.9929 5.9312 21.1254 6.01063 21.2313C6.09007 21.3373 6.19598 21.4168 6.32837 21.4432C6.35485 21.4432 6.39457 21.4565 6.42105 21.4565C6.52696 21.4565 6.61963 21.43 6.71231 21.3638C6.81822 21.2843 6.89766 21.1651 6.92414 21.0459C6.95061 20.9134 6.92414 20.781 6.8447 20.675C6.76527 20.5691 6.65935 20.4896 6.52696 20.4631C6.44753 20.4499 6.36809 20.4499 6.30189 20.4764C6.24894 20.3836 6.19598 20.3042 6.12978 20.1982C3.28336 15.3373 4.89854 9.07238 9.71761 6.19821L10.4987 7.56245L10.7105 7.92007L10.7238 7.94656C10.4325 8.18497 10.1545 8.46311 9.92943 8.74126L8.85706 7.46974C8.8041 7.40351 8.69819 7.40351 8.64523 7.45649C6.87118 8.93993 5.67965 11.0062 5.26924 13.2975C4.85882 15.6022 5.28248 17.9995 6.474 20.026C6.81822 20.6088 7.2154 21.1519 7.65229 21.6419C7.67877 21.6022 7.70525 21.5624 7.74497 21.5227C7.78468 21.483 7.83764 21.4565 7.87736 21.43C7.4537 20.9532 7.06977 20.4234 6.73879 19.8671C4.39545 15.8671 5.22952 10.8075 8.72467 7.78762L9.49254 8.70152L9.71761 8.96642L9.74408 8.99291C9.51902 9.24457 9.33367 9.54921 9.1748 9.86709ZM4.96474 19.483C5.01769 19.4962 5.05741 19.536 5.07065 19.5889C5.09713 19.6287 5.09713 19.6949 5.08389 19.7346C5.07065 19.7876 5.03093 19.8273 4.97798 19.8406C4.8853 19.8803 4.76615 19.8406 4.72643 19.7479C4.68671 19.6552 4.72643 19.536 4.81911 19.4962C4.87206 19.4697 4.92502 19.4565 4.96474 19.483ZM6.32837 20.781C6.35485 20.7545 6.39457 20.7413 6.43429 20.7413C6.44753 20.7413 6.46077 20.7413 6.474 20.7413C6.52696 20.7545 6.56668 20.781 6.59316 20.8207C6.61963 20.8605 6.63287 20.9134 6.61964 20.9664C6.6064 21.0194 6.57992 21.0591 6.5402 21.0856C6.50048 21.1121 6.44753 21.1254 6.39457 21.1121C6.34161 21.0989 6.30189 21.0724 6.27542 21.0326C6.24894 20.9929 6.2357 20.9399 6.24894 20.887C6.24894 20.8605 6.28865 20.8207 6.32837 20.781Z" fill="url(#paint10_linear_1072_4574)"/>
<path d="M9.1748 9.86709C8.59227 10.4764 8.14214 11.1916 7.85088 11.973C7.49342 12.9134 7.37427 13.9466 7.49342 14.9664C7.59933 15.7744 7.86412 16.5691 8.30101 17.324C8.81734 18.2115 9.51902 18.9134 10.3266 19.43L10.9753 18.3439L12.1139 16.4234C12.0477 16.3836 11.9815 16.3439 11.9285 16.2909C11.8094 16.185 11.7035 16.0658 11.624 15.9333C11.2401 15.2711 11.4519 14.4101 12.1271 14.026C12.6832 13.6949 13.3849 13.8009 13.8218 14.2379C13.9012 14.3174 13.9806 14.4101 14.0468 14.5161C14.0998 14.5956 14.1263 14.675 14.166 14.7677L18.5746 10.3572C18.0451 9.66841 17.3831 9.12536 16.6549 8.72801C16.6417 8.72801 16.6285 8.71477 16.6152 8.71477C16.6285 8.71477 16.6417 8.72801 16.6549 8.72801L17.0786 7.08563C16.9197 7.0194 16.7609 6.95318 16.5887 6.9002V6.87371L16.6417 6.59556L17.4361 2.05252C17.4493 1.97305 17.3963 1.89358 17.3037 1.88033C14.1924 1.32404 10.9753 1.90682 8.23482 3.50947C6.39457 4.58232 4.8853 6.02603 3.74673 7.81411C2.6876 9.46974 1.98592 11.3903 1.73438 13.3505C1.78733 13.3373 1.82705 13.3373 1.88001 13.3373C1.93296 13.3373 1.98592 13.3505 2.03888 13.377C2.5552 9.33728 4.85882 5.8406 8.38045 3.77437C11.0018 2.23795 14.0865 1.66841 17.0918 2.15848L16.2842 6.76775C15.9135 6.66179 15.5296 6.58232 15.1457 6.55583V2.4896C15.1457 2.41013 15.0795 2.33066 14.9868 2.33066C11.6108 2.33066 8.4334 3.64192 6.03711 6.03927C3.65406 8.42338 2.33014 11.6154 2.33014 14.9929C2.33014 15.1783 2.33014 15.377 2.34338 15.5757C2.3831 15.5624 2.43605 15.5492 2.48901 15.5492C2.54197 15.5492 2.60816 15.5492 2.66112 15.5624C2.64788 15.377 2.64788 15.1916 2.64788 15.0062C2.64788 8.25119 8.10242 2.74126 14.8412 2.64854V6.54258C14.4572 6.52934 14.0601 6.54258 13.6761 6.60881L13.6629 6.50285L13.6364 6.31742L13.1068 3.35053C13.0936 3.27106 13.0142 3.20484 12.9215 3.23133C11.5181 3.48298 10.1942 3.97305 8.94973 4.68828C6.69907 6.01278 4.97798 7.97305 3.9718 10.3572C3.48195 11.5095 3.19069 12.728 3.07153 13.973C2.96562 15.1916 3.04505 16.4101 3.30984 17.6022C3.34956 17.5757 3.40251 17.5624 3.44223 17.5492C3.49519 17.536 3.54814 17.5227 3.6011 17.536C2.50225 12.5823 4.69995 7.53596 9.09536 4.95318C10.2472 4.27768 11.5049 3.80086 12.8023 3.56245L13.3054 6.38364L13.3584 6.67503C12.9877 6.7545 12.6037 6.87371 12.2463 7.0194L11.3328 4.51609C11.3195 4.47636 11.2931 4.44987 11.2534 4.42338C11.2136 4.41013 11.1739 4.39689 11.1342 4.42338C10.4987 4.66179 9.87647 4.95318 9.29395 5.28431C6.9109 6.67503 5.13685 8.88695 4.2763 11.5095C3.44223 14.0658 3.54814 16.834 4.56756 19.2975C4.46165 19.3903 4.39545 19.536 4.39545 19.6684C4.39545 19.7346 4.40869 19.8141 4.44841 19.8803C4.50136 19.9995 4.60728 20.0923 4.72643 20.1452C4.77939 20.1717 4.84558 20.1717 4.89854 20.1717C4.96474 20.1717 5.04417 20.1585 5.11037 20.1187C5.22952 20.0658 5.32219 19.9598 5.37515 19.8406C5.41487 19.7081 5.41487 19.5757 5.36191 19.4565C5.30896 19.3373 5.20304 19.2446 5.08389 19.1916C5.00445 19.1651 4.93826 19.1519 4.85882 19.1651C2.79351 14.132 4.75291 8.30417 9.46606 5.53596C9.99563 5.23133 10.5384 4.96642 11.1077 4.74126L11.8226 6.70152L11.9683 7.11212V7.12536C11.8226 7.19159 11.677 7.27106 11.5314 7.36378C11.3328 7.46974 11.1607 7.60219 10.9753 7.73464L9.91619 5.89358C9.87648 5.82735 9.7838 5.80086 9.70437 5.8406C9.69113 5.85384 9.67789 5.85384 9.66465 5.86709L9.63817 5.88033C7.2154 7.29755 5.48106 9.58894 4.76615 12.3174C4.05123 15.0459 4.44841 17.8936 5.865 20.3439C5.9312 20.4499 5.98415 20.5426 6.03711 20.6353C5.98415 20.7015 5.94444 20.781 5.9312 20.8605C5.90472 20.9929 5.9312 21.1254 6.01063 21.2313C6.09007 21.3373 6.19598 21.4168 6.32837 21.4432C6.35485 21.4432 6.39457 21.4565 6.42105 21.4565C6.52696 21.4565 6.61963 21.43 6.71231 21.3638C6.81822 21.2843 6.89766 21.1651 6.92414 21.0459C6.95061 20.9134 6.92414 20.781 6.8447 20.675C6.76527 20.5691 6.65935 20.4896 6.52696 20.4631C6.44753 20.4499 6.36809 20.4499 6.30189 20.4764C6.24894 20.3836 6.19598 20.3042 6.12978 20.1982C3.28336 15.3373 4.89854 9.07238 9.71761 6.19821L10.4987 7.56245L10.7105 7.92007L10.7238 7.94656C10.4325 8.18497 10.1545 8.46311 9.92943 8.74126L8.85706 7.46974C8.8041 7.40351 8.69819 7.40351 8.64523 7.45649C6.87118 8.93993 5.67965 11.0062 5.26924 13.2975C4.85882 15.6022 5.28248 17.9995 6.474 20.026C6.81822 20.6088 7.2154 21.1519 7.65229 21.6419C7.67877 21.6022 7.70525 21.5624 7.74497 21.5227C7.78468 21.483 7.83764 21.4565 7.87736 21.43C7.4537 20.9532 7.06977 20.4234 6.73879 19.8671C4.39545 15.8671 5.22952 10.8075 8.72467 7.78762L9.49254 8.70152L9.71761 8.96642L9.74408 8.99291C9.51902 9.24457 9.33367 9.54921 9.1748 9.86709ZM4.96474 19.483C5.01769 19.4962 5.05741 19.536 5.07065 19.5889C5.09713 19.6287 5.09713 19.6949 5.08389 19.7346C5.07065 19.7876 5.03093 19.8273 4.97798 19.8406C4.8853 19.8803 4.76615 19.8406 4.72643 19.7479C4.68671 19.6552 4.72643 19.536 4.81911 19.4962C4.87206 19.4697 4.92502 19.4565 4.96474 19.483ZM6.32837 20.781C6.35485 20.7545 6.39457 20.7413 6.43429 20.7413C6.44753 20.7413 6.46077 20.7413 6.474 20.7413C6.52696 20.7545 6.56668 20.781 6.59316 20.8207C6.61963 20.8605 6.63287 20.9134 6.61964 20.9664C6.6064 21.0194 6.57992 21.0591 6.5402 21.0856C6.50048 21.1121 6.44753 21.1254 6.39457 21.1121C6.34161 21.0989 6.30189 21.0724 6.27542 21.0326C6.24894 20.9929 6.2357 20.9399 6.24894 20.887C6.24894 20.8605 6.28865 20.8207 6.32837 20.781Z" fill="url(#paint11_radial_1072_4574)" style="mix-blend-mode:overlay"/>
<path d="M9.1748 9.86709C8.59227 10.4764 8.14214 11.1916 7.85088 11.973C7.49342 12.9134 7.37427 13.9466 7.49342 14.9664C7.59933 15.7744 7.86412 16.5691 8.30101 17.324C8.81734 18.2115 9.51902 18.9134 10.3266 19.43L10.9753 18.3439L12.1139 16.4234C12.0477 16.3836 11.9815 16.3439 11.9285 16.2909C11.8094 16.185 11.7035 16.0658 11.624 15.9333C11.2401 15.2711 11.4519 14.4101 12.1271 14.026C12.6832 13.6949 13.3849 13.8009 13.8218 14.2379C13.9012 14.3174 13.9806 14.4101 14.0468 14.5161C14.0998 14.5956 14.1263 14.675 14.166 14.7677L18.5746 10.3572C18.0451 9.66841 17.3831 9.12536 16.6549 8.72801C16.6417 8.72801 16.6285 8.71477 16.6152 8.71477C16.6285 8.71477 16.6417 8.72801 16.6549 8.72801L17.0786 7.08563C16.9197 7.0194 16.7609 6.95318 16.5887 6.9002V6.87371L16.6417 6.59556L17.4361 2.05252C17.4493 1.97305 17.3963 1.89358 17.3037 1.88033C14.1924 1.32404 10.9753 1.90682 8.23482 3.50947C6.39457 4.58232 4.8853 6.02603 3.74673 7.81411C2.6876 9.46974 1.98592 11.3903 1.73438 13.3505C1.78733 13.3373 1.82705 13.3373 1.88001 13.3373C1.93296 13.3373 1.98592 13.3505 2.03888 13.377C2.5552 9.33728 4.85882 5.8406 8.38045 3.77437C11.0018 2.23795 14.0865 1.66841 17.0918 2.15848L16.2842 6.76775C15.9135 6.66179 15.5296 6.58232 15.1457 6.55583V2.4896C15.1457 2.41013 15.0795 2.33066 14.9868 2.33066C11.6108 2.33066 8.4334 3.64192 6.03711 6.03927C3.65406 8.42338 2.33014 11.6154 2.33014 14.9929C2.33014 15.1783 2.33014 15.377 2.34338 15.5757C2.3831 15.5624 2.43605 15.5492 2.48901 15.5492C2.54197 15.5492 2.60816 15.5492 2.66112 15.5624C2.64788 15.377 2.64788 15.1916 2.64788 15.0062C2.64788 8.25119 8.10242 2.74126 14.8412 2.64854V6.54258C14.4572 6.52934 14.0601 6.54258 13.6761 6.60881L13.6629 6.50285L13.6364 6.31742L13.1068 3.35053C13.0936 3.27106 13.0142 3.20484 12.9215 3.23133C11.5181 3.48298 10.1942 3.97305 8.94973 4.68828C6.69907 6.01278 4.97798 7.97305 3.9718 10.3572C3.48195 11.5095 3.19069 12.728 3.07153 13.973C2.96562 15.1916 3.04505 16.4101 3.30984 17.6022C3.34956 17.5757 3.40251 17.5624 3.44223 17.5492C3.49519 17.536 3.54814 17.5227 3.6011 17.536C2.50225 12.5823 4.69995 7.53596 9.09536 4.95318C10.2472 4.27768 11.5049 3.80086 12.8023 3.56245L13.3054 6.38364L13.3584 6.67503C12.9877 6.7545 12.6037 6.87371 12.2463 7.0194L11.3328 4.51609C11.3195 4.47636 11.2931 4.44987 11.2534 4.42338C11.2136 4.41013 11.1739 4.39689 11.1342 4.42338C10.4987 4.66179 9.87647 4.95318 9.29395 5.28431C6.9109 6.67503 5.13685 8.88695 4.2763 11.5095C3.44223 14.0658 3.54814 16.834 4.56756 19.2975C4.46165 19.3903 4.39545 19.536 4.39545 19.6684C4.39545 19.7346 4.40869 19.8141 4.44841 19.8803C4.50136 19.9995 4.60728 20.0923 4.72643 20.1452C4.77939 20.1717 4.84558 20.1717 4.89854 20.1717C4.96474 20.1717 5.04417 20.1585 5.11037 20.1187C5.22952 20.0658 5.32219 19.9598 5.37515 19.8406C5.41487 19.7081 5.41487 19.5757 5.36191 19.4565C5.30896 19.3373 5.20304 19.2446 5.08389 19.1916C5.00445 19.1651 4.93826 19.1519 4.85882 19.1651C2.79351 14.132 4.75291 8.30417 9.46606 5.53596C9.99563 5.23133 10.5384 4.96642 11.1077 4.74126L11.8226 6.70152L11.9683 7.11212V7.12536C11.8226 7.19159 11.677 7.27106 11.5314 7.36378C11.3328 7.46974 11.1607 7.60219 10.9753 7.73464L9.91619 5.89358C9.87648 5.82735 9.7838 5.80086 9.70437 5.8406C9.69113 5.85384 9.67789 5.85384 9.66465 5.86709L9.63817 5.88033C7.2154 7.29755 5.48106 9.58894 4.76615 12.3174C4.05123 15.0459 4.44841 17.8936 5.865 20.3439C5.9312 20.4499 5.98415 20.5426 6.03711 20.6353C5.98415 20.7015 5.94444 20.781 5.9312 20.8605C5.90472 20.9929 5.9312 21.1254 6.01063 21.2313C6.09007 21.3373 6.19598 21.4168 6.32837 21.4432C6.35485 21.4432 6.39457 21.4565 6.42105 21.4565C6.52696 21.4565 6.61963 21.43 6.71231 21.3638C6.81822 21.2843 6.89766 21.1651 6.92414 21.0459C6.95061 20.9134 6.92414 20.781 6.8447 20.675C6.76527 20.5691 6.65935 20.4896 6.52696 20.4631C6.44753 20.4499 6.36809 20.4499 6.30189 20.4764C6.24894 20.3836 6.19598 20.3042 6.12978 20.1982C3.28336 15.3373 4.89854 9.07238 9.71761 6.19821L10.4987 7.56245L10.7105 7.92007L10.7238 7.94656C10.4325 8.18497 10.1545 8.46311 9.92943 8.74126L8.85706 7.46974C8.8041 7.40351 8.69819 7.40351 8.64523 7.45649C6.87118 8.93993 5.67965 11.0062 5.26924 13.2975C4.85882 15.6022 5.28248 17.9995 6.474 20.026C6.81822 20.6088 7.2154 21.1519 7.65229 21.6419C7.67877 21.6022 7.70525 21.5624 7.74497 21.5227C7.78468 21.483 7.83764 21.4565 7.87736 21.43C7.4537 20.9532 7.06977 20.4234 6.73879 19.8671C4.39545 15.8671 5.22952 10.8075 8.72467 7.78762L9.49254 8.70152L9.71761 8.96642L9.74408 8.99291C9.51902 9.24457 9.33367 9.54921 9.1748 9.86709ZM4.96474 19.483C5.01769 19.4962 5.05741 19.536 5.07065 19.5889C5.09713 19.6287 5.09713 19.6949 5.08389 19.7346C5.07065 19.7876 5.03093 19.8273 4.97798 19.8406C4.8853 19.8803 4.76615 19.8406 4.72643 19.7479C4.68671 19.6552 4.72643 19.536 4.81911 19.4962C4.87206 19.4697 4.92502 19.4565 4.96474 19.483ZM6.32837 20.781C6.35485 20.7545 6.39457 20.7413 6.43429 20.7413C6.44753 20.7413 6.46077 20.7413 6.474 20.7413C6.52696 20.7545 6.56668 20.781 6.59316 20.8207C6.61963 20.8605 6.63287 20.9134 6.61964 20.9664C6.6064 21.0194 6.57992 21.0591 6.5402 21.0856C6.50048 21.1121 6.44753 21.1254 6.39457 21.1121C6.34161 21.0989 6.30189 21.0724 6.27542 21.0326C6.24894 20.9929 6.2357 20.9399 6.24894 20.887C6.24894 20.8605 6.28865 20.8207 6.32837 20.781Z" fill="#F0D7AB" style="mix-blend-mode:color"/>
<path d="M28.8085 9.16581C28.0538 7.37773 26.9682 5.77508 25.5913 4.3976C24.2145 3.02011 22.6125 1.93402 20.8252 1.17905C18.9718 0.397595 17.0124 0.000244141 14.9868 0.000244141C12.9744 0.000244141 11.0018 0.397595 9.16152 1.17905C7.37423 1.93402 5.77229 3.02011 4.39541 4.3976C3.01853 5.77508 1.93292 7.37773 1.17829 9.16581C0.397176 11.0069 0 12.9671 0 14.9936C0 17.0201 0.397176 18.9804 1.17829 20.8347C1.93292 22.6228 3.01853 24.2254 4.39541 25.6029C5.77229 26.9804 7.37423 28.0665 9.16152 28.8214C11.015 29.6029 12.9744 30.0002 15 30.0002C17.0256 30.0002 18.985 29.6029 20.8385 28.8214C22.6258 28.0665 24.2277 26.9804 25.6046 25.6029C26.9815 24.2254 28.0671 22.6228 28.8217 20.8347C29.6028 18.9804 30 17.0201 30 14.9936C29.9868 12.9671 29.5896 11.0069 28.8085 9.16581ZM28.2657 10.0135L25.3266 7.07309C25.3398 7.03336 25.353 6.99362 25.353 6.95389C25.353 6.79495 25.2207 6.6625 25.0618 6.6625C24.9029 6.6625 24.7705 6.79495 24.7705 6.95389C24.7705 7.11283 24.9029 7.24528 25.0618 7.24528C25.1015 7.24528 25.1545 7.23203 25.1809 7.21879L28.4113 10.4506C28.7555 11.4704 28.9938 12.5433 29.0997 13.6426L23.7379 8.27839L21.8447 6.3711C21.8579 6.33137 21.8711 6.29163 21.8711 6.2519C21.8711 6.11945 21.7917 6.01349 21.6725 5.987V3.47044C21.6725 3.4572 21.6725 3.44395 21.6593 3.43071C21.6593 3.41746 21.6461 3.40422 21.6461 3.40422L19.9779 1.7221C23.7908 3.15256 26.8226 6.19892 28.2657 10.0135ZM1.64166 19.7751L10.2207 28.3579C6.23566 26.9274 3.07149 23.7618 1.64166 19.7751ZM10.6311 28.5036L6.22242 24.093H8.49956C8.53928 24.1989 8.64519 24.2916 8.76434 24.2916C8.80406 24.2916 8.85702 24.2784 8.88349 24.2651L13.7555 29.1393C12.6831 29.0334 11.624 28.8214 10.6311 28.5036ZM16.7608 29.0731L12.4713 24.7817C12.4846 24.742 12.4978 24.7022 12.4978 24.6625C12.4978 24.5433 12.4184 24.4241 12.2992 24.3976V22.1194L16.1518 25.9738C16.1386 26.0135 16.1253 26.0532 16.1253 26.093C16.1253 26.2519 16.2577 26.3843 16.4166 26.3843C16.4563 26.3843 16.5093 26.3711 16.5357 26.3579L18.8261 28.6493C18.1642 28.8479 17.4757 28.9804 16.7608 29.0731ZM19.0512 28.5963L16.6814 26.2254C16.6814 26.2122 16.6946 26.2122 16.6946 26.1989H18.932C18.9718 26.3181 19.0777 26.3976 19.1968 26.3976C19.2365 26.3976 19.2895 26.3844 19.316 26.3711L20.865 27.9208C20.2824 28.1724 19.6867 28.3976 19.0512 28.5963ZM21.0635 27.8148L19.4616 26.2254C19.4616 26.2122 19.4748 26.2122 19.4748 26.1989H21.9373L22.6655 26.9274C22.1492 27.2585 21.6196 27.5499 21.0635 27.8148ZM26.955 22.5963L25.0088 20.6492H27.511L27.842 20.9804C27.5905 21.5367 27.286 22.0797 26.955 22.5963ZM27.9347 20.7949L27.6302 20.4903C27.6169 20.4771 27.6169 20.4771 27.6037 20.4638C27.5905 20.4638 27.5772 20.4638 27.564 20.4638H24.8235L22.9567 18.5963C22.97 18.5565 22.9832 18.5168 22.9832 18.4771C22.9832 18.3181 22.8508 18.1857 22.692 18.1857C22.5331 18.1857 22.4007 18.3181 22.4007 18.4771C22.4007 18.636 22.5331 18.7685 22.692 18.7685C22.7317 18.7685 22.7846 18.7552 22.8111 18.742L24.7043 20.636L26.8491 22.7817C26.5181 23.285 26.1606 23.7618 25.7767 24.2122L22.8906 21.3247C22.9038 21.285 22.917 21.2453 22.917 21.2055C22.917 21.0466 22.7846 20.9142 22.6258 20.9142C22.4669 20.9142 22.3345 21.0466 22.3345 21.2055C22.3345 21.3645 22.4669 21.4969 22.6258 21.4969C22.6655 21.4969 22.7184 21.4837 22.7449 21.4704L25.6443 24.3711C25.2471 24.8214 24.8367 25.232 24.3998 25.6294L22.8906 24.1194C22.9038 24.0797 22.917 24.04 22.917 24.0002C22.917 23.8413 22.7846 23.7089 22.6258 23.7089C22.4669 23.7089 22.3345 23.8413 22.3345 24.0002C22.3345 24.1592 22.4669 24.2916 22.6258 24.2916C22.6655 24.2916 22.7184 24.2784 22.7449 24.2651L24.241 25.7618C23.7908 26.1459 23.3142 26.5168 22.8111 26.8479L22.03 26.0665C22.0168 26.0532 22.0168 26.0532 22.0035 26.04C21.9903 26.04 21.977 26.0267 21.9638 26.0267H19.4616C19.4219 25.9208 19.316 25.8281 19.1968 25.8281C19.1571 25.8281 19.1174 25.8413 19.0777 25.8545L16.4695 23.2453V20.5036C16.4695 20.4903 16.4695 20.4771 16.4695 20.4638C16.4695 20.4506 16.4563 20.4373 16.4431 20.4373L13.5172 17.4837C13.5304 17.444 13.5437 17.4042 13.5437 17.3645C13.5437 17.2055 13.4113 17.0731 13.2524 17.0731C13.0936 17.0731 12.9612 17.2055 12.9612 17.3645C12.9612 17.5234 13.0936 17.6559 13.2524 17.6559C13.2921 17.6559 13.3451 17.6426 13.3716 17.6294L16.2842 20.53V23.0334L13.5172 20.2651C13.5304 20.2254 13.5437 20.1857 13.5437 20.1459C13.5437 19.987 13.4113 19.8545 13.2524 19.8545C13.0936 19.8545 12.9612 19.987 12.9612 20.1459C12.9612 20.3049 13.0936 20.4373 13.2524 20.4373C13.2921 20.4373 13.3451 20.4241 13.3716 20.4108L16.3107 23.3512L18.9453 25.987C18.9453 26.0002 18.932 26.0002 18.932 26.0135H16.6946C16.6549 25.9075 16.549 25.8148 16.4298 25.8148C16.3901 25.8148 16.3372 25.8281 16.3107 25.8413L11.5049 21.0334C11.5181 20.9936 11.5313 20.9539 11.5313 20.9142C11.5313 20.7552 11.3989 20.6228 11.2401 20.6228C11.0812 20.6228 10.9488 20.7552 10.9488 20.9142C10.9488 21.0731 11.0812 21.2055 11.2401 21.2055C11.2798 21.2055 11.3327 21.1923 11.3592 21.1791L12.1139 21.934V24.3976C12.1006 24.3976 12.1006 24.4108 12.0874 24.4108L10.459 22.7685C10.4722 22.7287 10.4854 22.689 10.4854 22.6493C10.4854 22.4903 10.353 22.3579 10.1942 22.3579C10.0353 22.3579 9.90291 22.4903 9.90291 22.6493C9.90291 22.8082 10.0353 22.9406 10.1942 22.9406C10.2339 22.9406 10.2868 22.9274 10.3133 22.9142L11.9417 24.5433C11.9285 24.583 11.9153 24.6228 11.9153 24.6625C11.9153 24.8214 12.0477 24.9539 12.2065 24.9539C12.2462 24.9539 12.2992 24.9406 12.3257 24.9274L16.5093 29.1128C16.0062 29.1658 15.5031 29.1923 14.9868 29.1923C14.669 29.1923 14.3645 29.1791 14.06 29.1658L9.02913 24.1327C9.04236 24.093 9.0556 24.0532 9.0556 24.0135C9.0556 23.8545 8.92321 23.7221 8.76434 23.7221C8.63195 23.7221 8.52604 23.8016 8.49956 23.9208H6.03707L1.49603 19.3777C1.0459 18.0002 0.80759 16.53 0.80759 15.0069C0.80759 7.17905 7.1624 0.821436 14.9868 0.821436C16.5755 0.821436 18.1112 1.08634 19.541 1.5764L21.4872 3.52342V5.987C21.3813 6.02673 21.2886 6.13269 21.2886 6.2519C21.2886 6.41084 21.421 6.54329 21.5799 6.54329C21.6196 6.54329 21.6725 6.53005 21.699 6.5168L23.5658 8.38435V11.1261C23.5658 11.1393 23.5658 11.1526 23.579 11.1658C23.579 11.1791 23.5922 11.1923 23.6055 11.1923L26.1871 13.7751C26.1739 13.8148 26.1606 13.8545 26.1606 13.8943C26.1606 14.0267 26.2401 14.1327 26.3592 14.1724V16.6757C26.3592 16.689 26.3592 16.7022 26.3592 16.7155C26.3592 16.7287 26.3725 16.742 26.3857 16.742L28.6099 18.9671C28.4245 19.5896 28.1995 20.1989 27.9347 20.7949ZM28.6628 18.7552L26.5446 16.636V14.1724C26.5578 14.1724 26.5578 14.1592 26.571 14.1592L29.0733 16.6625C28.9938 17.3645 28.8482 18.0665 28.6628 18.7552ZM26.7167 14.0135C26.7299 13.9738 26.7432 13.934 26.7432 13.8943C26.7432 13.7353 26.6108 13.6029 26.4519 13.6029C26.4122 13.6029 26.3592 13.6161 26.3327 13.6294L23.7776 11.0731V8.56978L29.1395 13.934C29.1659 14.2916 29.1792 14.6493 29.1792 15.0069C29.1792 15.4837 29.1527 15.9473 29.113 16.4108L26.7167 14.0135Z" fill="url(#paint12_linear_1072_4574)"/>
<path d="M28.8085 9.16581C28.0538 7.37773 26.9682 5.77508 25.5913 4.3976C24.2145 3.02011 22.6125 1.93402 20.8252 1.17905C18.9718 0.397595 17.0124 0.000244141 14.9868 0.000244141C12.9744 0.000244141 11.0018 0.397595 9.16152 1.17905C7.37423 1.93402 5.77229 3.02011 4.39541 4.3976C3.01853 5.77508 1.93292 7.37773 1.17829 9.16581C0.397176 11.0069 0 12.9671 0 14.9936C0 17.0201 0.397176 18.9804 1.17829 20.8347C1.93292 22.6228 3.01853 24.2254 4.39541 25.6029C5.77229 26.9804 7.37423 28.0665 9.16152 28.8214C11.015 29.6029 12.9744 30.0002 15 30.0002C17.0256 30.0002 18.985 29.6029 20.8385 28.8214C22.6258 28.0665 24.2277 26.9804 25.6046 25.6029C26.9815 24.2254 28.0671 22.6228 28.8217 20.8347C29.6028 18.9804 30 17.0201 30 14.9936C29.9868 12.9671 29.5896 11.0069 28.8085 9.16581ZM28.2657 10.0135L25.3266 7.07309C25.3398 7.03336 25.353 6.99362 25.353 6.95389C25.353 6.79495 25.2207 6.6625 25.0618 6.6625C24.9029 6.6625 24.7705 6.79495 24.7705 6.95389C24.7705 7.11283 24.9029 7.24528 25.0618 7.24528C25.1015 7.24528 25.1545 7.23203 25.1809 7.21879L28.4113 10.4506C28.7555 11.4704 28.9938 12.5433 29.0997 13.6426L23.7379 8.27839L21.8447 6.3711C21.8579 6.33137 21.8711 6.29163 21.8711 6.2519C21.8711 6.11945 21.7917 6.01349 21.6725 5.987V3.47044C21.6725 3.4572 21.6725 3.44395 21.6593 3.43071C21.6593 3.41746 21.6461 3.40422 21.6461 3.40422L19.9779 1.7221C23.7908 3.15256 26.8226 6.19892 28.2657 10.0135ZM1.64166 19.7751L10.2207 28.3579C6.23566 26.9274 3.07149 23.7618 1.64166 19.7751ZM10.6311 28.5036L6.22242 24.093H8.49956C8.53928 24.1989 8.64519 24.2916 8.76434 24.2916C8.80406 24.2916 8.85702 24.2784 8.88349 24.2651L13.7555 29.1393C12.6831 29.0334 11.624 28.8214 10.6311 28.5036ZM16.7608 29.0731L12.4713 24.7817C12.4846 24.742 12.4978 24.7022 12.4978 24.6625C12.4978 24.5433 12.4184 24.4241 12.2992 24.3976V22.1194L16.1518 25.9738C16.1386 26.0135 16.1253 26.0532 16.1253 26.093C16.1253 26.2519 16.2577 26.3843 16.4166 26.3843C16.4563 26.3843 16.5093 26.3711 16.5357 26.3579L18.8261 28.6493C18.1642 28.8479 17.4757 28.9804 16.7608 29.0731ZM19.0512 28.5963L16.6814 26.2254C16.6814 26.2122 16.6946 26.2122 16.6946 26.1989H18.932C18.9718 26.3181 19.0777 26.3976 19.1968 26.3976C19.2365 26.3976 19.2895 26.3844 19.316 26.3711L20.865 27.9208C20.2824 28.1724 19.6867 28.3976 19.0512 28.5963ZM21.0635 27.8148L19.4616 26.2254C19.4616 26.2122 19.4748 26.2122 19.4748 26.1989H21.9373L22.6655 26.9274C22.1492 27.2585 21.6196 27.5499 21.0635 27.8148ZM26.955 22.5963L25.0088 20.6492H27.511L27.842 20.9804C27.5905 21.5367 27.286 22.0797 26.955 22.5963ZM27.9347 20.7949L27.6302 20.4903C27.6169 20.4771 27.6169 20.4771 27.6037 20.4638C27.5905 20.4638 27.5772 20.4638 27.564 20.4638H24.8235L22.9567 18.5963C22.97 18.5565 22.9832 18.5168 22.9832 18.4771C22.9832 18.3181 22.8508 18.1857 22.692 18.1857C22.5331 18.1857 22.4007 18.3181 22.4007 18.4771C22.4007 18.636 22.5331 18.7685 22.692 18.7685C22.7317 18.7685 22.7846 18.7552 22.8111 18.742L24.7043 20.636L26.8491 22.7817C26.5181 23.285 26.1606 23.7618 25.7767 24.2122L22.8906 21.3247C22.9038 21.285 22.917 21.2453 22.917 21.2055C22.917 21.0466 22.7846 20.9142 22.6258 20.9142C22.4669 20.9142 22.3345 21.0466 22.3345 21.2055C22.3345 21.3645 22.4669 21.4969 22.6258 21.4969C22.6655 21.4969 22.7184 21.4837 22.7449 21.4704L25.6443 24.3711C25.2471 24.8214 24.8367 25.232 24.3998 25.6294L22.8906 24.1194C22.9038 24.0797 22.917 24.04 22.917 24.0002C22.917 23.8413 22.7846 23.7089 22.6258 23.7089C22.4669 23.7089 22.3345 23.8413 22.3345 24.0002C22.3345 24.1592 22.4669 24.2916 22.6258 24.2916C22.6655 24.2916 22.7184 24.2784 22.7449 24.2651L24.241 25.7618C23.7908 26.1459 23.3142 26.5168 22.8111 26.8479L22.03 26.0665C22.0168 26.0532 22.0168 26.0532 22.0035 26.04C21.9903 26.04 21.977 26.0267 21.9638 26.0267H19.4616C19.4219 25.9208 19.316 25.8281 19.1968 25.8281C19.1571 25.8281 19.1174 25.8413 19.0777 25.8545L16.4695 23.2453V20.5036C16.4695 20.4903 16.4695 20.4771 16.4695 20.4638C16.4695 20.4506 16.4563 20.4373 16.4431 20.4373L13.5172 17.4837C13.5304 17.444 13.5437 17.4042 13.5437 17.3645C13.5437 17.2055 13.4113 17.0731 13.2524 17.0731C13.0936 17.0731 12.9612 17.2055 12.9612 17.3645C12.9612 17.5234 13.0936 17.6559 13.2524 17.6559C13.2921 17.6559 13.3451 17.6426 13.3716 17.6294L16.2842 20.53V23.0334L13.5172 20.2651C13.5304 20.2254 13.5437 20.1857 13.5437 20.1459C13.5437 19.987 13.4113 19.8545 13.2524 19.8545C13.0936 19.8545 12.9612 19.987 12.9612 20.1459C12.9612 20.3049 13.0936 20.4373 13.2524 20.4373C13.2921 20.4373 13.3451 20.4241 13.3716 20.4108L16.3107 23.3512L18.9453 25.987C18.9453 26.0002 18.932 26.0002 18.932 26.0135H16.6946C16.6549 25.9075 16.549 25.8148 16.4298 25.8148C16.3901 25.8148 16.3372 25.8281 16.3107 25.8413L11.5049 21.0334C11.5181 20.9936 11.5313 20.9539 11.5313 20.9142C11.5313 20.7552 11.3989 20.6228 11.2401 20.6228C11.0812 20.6228 10.9488 20.7552 10.9488 20.9142C10.9488 21.0731 11.0812 21.2055 11.2401 21.2055C11.2798 21.2055 11.3327 21.1923 11.3592 21.1791L12.1139 21.934V24.3976C12.1006 24.3976 12.1006 24.4108 12.0874 24.4108L10.459 22.7685C10.4722 22.7287 10.4854 22.689 10.4854 22.6493C10.4854 22.4903 10.353 22.3579 10.1942 22.3579C10.0353 22.3579 9.90291 22.4903 9.90291 22.6493C9.90291 22.8082 10.0353 22.9406 10.1942 22.9406C10.2339 22.9406 10.2868 22.9274 10.3133 22.9142L11.9417 24.5433C11.9285 24.583 11.9153 24.6228 11.9153 24.6625C11.9153 24.8214 12.0477 24.9539 12.2065 24.9539C12.2462 24.9539 12.2992 24.9406 12.3257 24.9274L16.5093 29.1128C16.0062 29.1658 15.5031 29.1923 14.9868 29.1923C14.669 29.1923 14.3645 29.1791 14.06 29.1658L9.02913 24.1327C9.04236 24.093 9.0556 24.0532 9.0556 24.0135C9.0556 23.8545 8.92321 23.7221 8.76434 23.7221C8.63195 23.7221 8.52604 23.8016 8.49956 23.9208H6.03707L1.49603 19.3777C1.0459 18.0002 0.80759 16.53 0.80759 15.0069C0.80759 7.17905 7.1624 0.821436 14.9868 0.821436C16.5755 0.821436 18.1112 1.08634 19.541 1.5764L21.4872 3.52342V5.987C21.3813 6.02673 21.2886 6.13269 21.2886 6.2519C21.2886 6.41084 21.421 6.54329 21.5799 6.54329C21.6196 6.54329 21.6725 6.53005 21.699 6.5168L23.5658 8.38435V11.1261C23.5658 11.1393 23.5658 11.1526 23.579 11.1658C23.579 11.1791 23.5922 11.1923 23.6055 11.1923L26.1871 13.7751C26.1739 13.8148 26.1606 13.8545 26.1606 13.8943C26.1606 14.0267 26.2401 14.1327 26.3592 14.1724V16.6757C26.3592 16.689 26.3592 16.7022 26.3592 16.7155C26.3592 16.7287 26.3725 16.742 26.3857 16.742L28.6099 18.9671C28.4245 19.5896 28.1995 20.1989 27.9347 20.7949ZM28.6628 18.7552L26.5446 16.636V14.1724C26.5578 14.1724 26.5578 14.1592 26.571 14.1592L29.0733 16.6625C28.9938 17.3645 28.8482 18.0665 28.6628 18.7552ZM26.7167 14.0135C26.7299 13.9738 26.7432 13.934 26.7432 13.8943C26.7432 13.7353 26.6108 13.6029 26.4519 13.6029C26.4122 13.6029 26.3592 13.6161 26.3327 13.6294L23.7776 11.0731V8.56978L29.1395 13.934C29.1659 14.2916 29.1792 14.6493 29.1792 15.0069C29.1792 15.4837 29.1527 15.9473 29.113 16.4108L26.7167 14.0135Z" fill="url(#paint13_radial_1072_4574)" style="mix-blend-mode:overlay"/>
<path d="M28.8085 9.16581C28.0538 7.37773 26.9682 5.77508 25.5913 4.3976C24.2145 3.02011 22.6125 1.93402 20.8252 1.17905C18.9718 0.397595 17.0124 0.000244141 14.9868 0.000244141C12.9744 0.000244141 11.0018 0.397595 9.16152 1.17905C7.37423 1.93402 5.77229 3.02011 4.39541 4.3976C3.01853 5.77508 1.93292 7.37773 1.17829 9.16581C0.397176 11.0069 0 12.9671 0 14.9936C0 17.0201 0.397176 18.9804 1.17829 20.8347C1.93292 22.6228 3.01853 24.2254 4.39541 25.6029C5.77229 26.9804 7.37423 28.0665 9.16152 28.8214C11.015 29.6029 12.9744 30.0002 15 30.0002C17.0256 30.0002 18.985 29.6029 20.8385 28.8214C22.6258 28.0665 24.2277 26.9804 25.6046 25.6029C26.9815 24.2254 28.0671 22.6228 28.8217 20.8347C29.6028 18.9804 30 17.0201 30 14.9936C29.9868 12.9671 29.5896 11.0069 28.8085 9.16581ZM28.2657 10.0135L25.3266 7.07309C25.3398 7.03336 25.353 6.99362 25.353 6.95389C25.353 6.79495 25.2207 6.6625 25.0618 6.6625C24.9029 6.6625 24.7705 6.79495 24.7705 6.95389C24.7705 7.11283 24.9029 7.24528 25.0618 7.24528C25.1015 7.24528 25.1545 7.23203 25.1809 7.21879L28.4113 10.4506C28.7555 11.4704 28.9938 12.5433 29.0997 13.6426L23.7379 8.27839L21.8447 6.3711C21.8579 6.33137 21.8711 6.29163 21.8711 6.2519C21.8711 6.11945 21.7917 6.01349 21.6725 5.987V3.47044C21.6725 3.4572 21.6725 3.44395 21.6593 3.43071C21.6593 3.41746 21.6461 3.40422 21.6461 3.40422L19.9779 1.7221C23.7908 3.15256 26.8226 6.19892 28.2657 10.0135ZM1.64166 19.7751L10.2207 28.3579C6.23566 26.9274 3.07149 23.7618 1.64166 19.7751ZM10.6311 28.5036L6.22242 24.093H8.49956C8.53928 24.1989 8.64519 24.2916 8.76434 24.2916C8.80406 24.2916 8.85702 24.2784 8.88349 24.2651L13.7555 29.1393C12.6831 29.0334 11.624 28.8214 10.6311 28.5036ZM16.7608 29.0731L12.4713 24.7817C12.4846 24.742 12.4978 24.7022 12.4978 24.6625C12.4978 24.5433 12.4184 24.4241 12.2992 24.3976V22.1194L16.1518 25.9738C16.1386 26.0135 16.1253 26.0532 16.1253 26.093C16.1253 26.2519 16.2577 26.3843 16.4166 26.3843C16.4563 26.3843 16.5093 26.3711 16.5357 26.3579L18.8261 28.6493C18.1642 28.8479 17.4757 28.9804 16.7608 29.0731ZM19.0512 28.5963L16.6814 26.2254C16.6814 26.2122 16.6946 26.2122 16.6946 26.1989H18.932C18.9718 26.3181 19.0777 26.3976 19.1968 26.3976C19.2365 26.3976 19.2895 26.3844 19.316 26.3711L20.865 27.9208C20.2824 28.1724 19.6867 28.3976 19.0512 28.5963ZM21.0635 27.8148L19.4616 26.2254C19.4616 26.2122 19.4748 26.2122 19.4748 26.1989H21.9373L22.6655 26.9274C22.1492 27.2585 21.6196 27.5499 21.0635 27.8148ZM26.955 22.5963L25.0088 20.6492H27.511L27.842 20.9804C27.5905 21.5367 27.286 22.0797 26.955 22.5963ZM27.9347 20.7949L27.6302 20.4903C27.6169 20.4771 27.6169 20.4771 27.6037 20.4638C27.5905 20.4638 27.5772 20.4638 27.564 20.4638H24.8235L22.9567 18.5963C22.97 18.5565 22.9832 18.5168 22.9832 18.4771C22.9832 18.3181 22.8508 18.1857 22.692 18.1857C22.5331 18.1857 22.4007 18.3181 22.4007 18.4771C22.4007 18.636 22.5331 18.7685 22.692 18.7685C22.7317 18.7685 22.7846 18.7552 22.8111 18.742L24.7043 20.636L26.8491 22.7817C26.5181 23.285 26.1606 23.7618 25.7767 24.2122L22.8906 21.3247C22.9038 21.285 22.917 21.2453 22.917 21.2055C22.917 21.0466 22.7846 20.9142 22.6258 20.9142C22.4669 20.9142 22.3345 21.0466 22.3345 21.2055C22.3345 21.3645 22.4669 21.4969 22.6258 21.4969C22.6655 21.4969 22.7184 21.4837 22.7449 21.4704L25.6443 24.3711C25.2471 24.8214 24.8367 25.232 24.3998 25.6294L22.8906 24.1194C22.9038 24.0797 22.917 24.04 22.917 24.0002C22.917 23.8413 22.7846 23.7089 22.6258 23.7089C22.4669 23.7089 22.3345 23.8413 22.3345 24.0002C22.3345 24.1592 22.4669 24.2916 22.6258 24.2916C22.6655 24.2916 22.7184 24.2784 22.7449 24.2651L24.241 25.7618C23.7908 26.1459 23.3142 26.5168 22.8111 26.8479L22.03 26.0665C22.0168 26.0532 22.0168 26.0532 22.0035 26.04C21.9903 26.04 21.977 26.0267 21.9638 26.0267H19.4616C19.4219 25.9208 19.316 25.8281 19.1968 25.8281C19.1571 25.8281 19.1174 25.8413 19.0777 25.8545L16.4695 23.2453V20.5036C16.4695 20.4903 16.4695 20.4771 16.4695 20.4638C16.4695 20.4506 16.4563 20.4373 16.4431 20.4373L13.5172 17.4837C13.5304 17.444 13.5437 17.4042 13.5437 17.3645C13.5437 17.2055 13.4113 17.0731 13.2524 17.0731C13.0936 17.0731 12.9612 17.2055 12.9612 17.3645C12.9612 17.5234 13.0936 17.6559 13.2524 17.6559C13.2921 17.6559 13.3451 17.6426 13.3716 17.6294L16.2842 20.53V23.0334L13.5172 20.2651C13.5304 20.2254 13.5437 20.1857 13.5437 20.1459C13.5437 19.987 13.4113 19.8545 13.2524 19.8545C13.0936 19.8545 12.9612 19.987 12.9612 20.1459C12.9612 20.3049 13.0936 20.4373 13.2524 20.4373C13.2921 20.4373 13.3451 20.4241 13.3716 20.4108L16.3107 23.3512L18.9453 25.987C18.9453 26.0002 18.932 26.0002 18.932 26.0135H16.6946C16.6549 25.9075 16.549 25.8148 16.4298 25.8148C16.3901 25.8148 16.3372 25.8281 16.3107 25.8413L11.5049 21.0334C11.5181 20.9936 11.5313 20.9539 11.5313 20.9142C11.5313 20.7552 11.3989 20.6228 11.2401 20.6228C11.0812 20.6228 10.9488 20.7552 10.9488 20.9142C10.9488 21.0731 11.0812 21.2055 11.2401 21.2055C11.2798 21.2055 11.3327 21.1923 11.3592 21.1791L12.1139 21.934V24.3976C12.1006 24.3976 12.1006 24.4108 12.0874 24.4108L10.459 22.7685C10.4722 22.7287 10.4854 22.689 10.4854 22.6493C10.4854 22.4903 10.353 22.3579 10.1942 22.3579C10.0353 22.3579 9.90291 22.4903 9.90291 22.6493C9.90291 22.8082 10.0353 22.9406 10.1942 22.9406C10.2339 22.9406 10.2868 22.9274 10.3133 22.9142L11.9417 24.5433C11.9285 24.583 11.9153 24.6228 11.9153 24.6625C11.9153 24.8214 12.0477 24.9539 12.2065 24.9539C12.2462 24.9539 12.2992 24.9406 12.3257 24.9274L16.5093 29.1128C16.0062 29.1658 15.5031 29.1923 14.9868 29.1923C14.669 29.1923 14.3645 29.1791 14.06 29.1658L9.02913 24.1327C9.04236 24.093 9.0556 24.0532 9.0556 24.0135C9.0556 23.8545 8.92321 23.7221 8.76434 23.7221C8.63195 23.7221 8.52604 23.8016 8.49956 23.9208H6.03707L1.49603 19.3777C1.0459 18.0002 0.80759 16.53 0.80759 15.0069C0.80759 7.17905 7.1624 0.821436 14.9868 0.821436C16.5755 0.821436 18.1112 1.08634 19.541 1.5764L21.4872 3.52342V5.987C21.3813 6.02673 21.2886 6.13269 21.2886 6.2519C21.2886 6.41084 21.421 6.54329 21.5799 6.54329C21.6196 6.54329 21.6725 6.53005 21.699 6.5168L23.5658 8.38435V11.1261C23.5658 11.1393 23.5658 11.1526 23.579 11.1658C23.579 11.1791 23.5922 11.1923 23.6055 11.1923L26.1871 13.7751C26.1739 13.8148 26.1606 13.8545 26.1606 13.8943C26.1606 14.0267 26.2401 14.1327 26.3592 14.1724V16.6757C26.3592 16.689 26.3592 16.7022 26.3592 16.7155C26.3592 16.7287 26.3725 16.742 26.3857 16.742L28.6099 18.9671C28.4245 19.5896 28.1995 20.1989 27.9347 20.7949ZM28.6628 18.7552L26.5446 16.636V14.1724C26.5578 14.1724 26.5578 14.1592 26.571 14.1592L29.0733 16.6625C28.9938 17.3645 28.8482 18.0665 28.6628 18.7552ZM26.7167 14.0135C26.7299 13.9738 26.7432 13.934 26.7432 13.8943C26.7432 13.7353 26.6108 13.6029 26.4519 13.6029C26.4122 13.6029 26.3592 13.6161 26.3327 13.6294L23.7776 11.0731V8.56978L29.1395 13.934C29.1659 14.2916 29.1792 14.6493 29.1792 15.0069C29.1792 15.4837 29.1527 15.9473 29.113 16.4108L26.7167 14.0135Z" fill="#F0D7AB" style="mix-blend-mode:color"/>
<defs>
<linearGradient id="paint0_linear_1072_4574" x1="7.58618" y1="22.0182" x2="8.64114" y2="21.7193" gradientUnits="userSpaceOnUse">
<stop offset="0.0677083" stop-color="#7F8A8C"/>
<stop offset="0.21875" stop-color="#D5D5D5"/>
<stop offset="0.374419" stop-color="#848B8A"/>
<stop offset="0.555213" stop-color="#626F73"/>
<stop offset="0.796875" stop-color="#C4CDCF"/>
<stop offset="0.895833" stop-color="#8A9092"/>
<stop offset="1" stop-color="#758184"/>
</linearGradient>
<radialGradient id="paint1_radial_1072_4574" cx="0" cy="0" r="1" gradientUnits="userSpaceOnUse" gradientTransform="translate(7.58618 21.2642) rotate(60.2019) scale(0.928403 0.980303)">
<stop stop-color="white"/>
<stop offset="1" stop-color="white" stop-opacity="0"/>
</radialGradient>
<linearGradient id="paint2_linear_1072_4574" x1="3.08545" y1="18.1679" x2="4.12774" y2="17.8721" gradientUnits="userSpaceOnUse">
<stop offset="0.0677083" stop-color="#7F8A8C"/>
<stop offset="0.21875" stop-color="#D5D5D5"/>
<stop offset="0.374419" stop-color="#848B8A"/>
<stop offset="0.555213" stop-color="#626F73"/>
<stop offset="0.796875" stop-color="#C4CDCF"/>
<stop offset="0.895833" stop-color="#8A9092"/>
<stop offset="1" stop-color="#758184"/>
</linearGradient>
<radialGradient id="paint3_radial_1072_4574" cx="0" cy="0" r="1" gradientUnits="userSpaceOnUse" gradientTransform="translate(3.08545 17.4238) rotate(60.1681) scale(0.916499 0.968401)">
<stop stop-color="white"/>
<stop offset="1" stop-color="white" stop-opacity="0"/>
</radialGradient>
<linearGradient id="paint4_linear_1072_4574" x1="2.02539" y1="16.1926" x2="3.06954" y2="15.8975" gradientUnits="userSpaceOnUse">
<stop offset="0.0677083" stop-color="#7F8A8C"/>
<stop offset="0.21875" stop-color="#D5D5D5"/>
<stop offset="0.374419" stop-color="#848B8A"/>
<stop offset="0.555213" stop-color="#626F73"/>
<stop offset="0.796875" stop-color="#C4CDCF"/>
<stop offset="0.895833" stop-color="#8A9092"/>
<stop offset="1" stop-color="#758184"/>
</linearGradient>
<radialGradient id="paint5_radial_1072_4574" cx="0" cy="0" r="1" gradientUnits="userSpaceOnUse" gradientTransform="translate(2.02539 15.4443) rotate(60.2763) scale(0.920565 0.970542)">
<stop stop-color="white"/>
<stop offset="1" stop-color="white" stop-opacity="0"/>
</radialGradient>
<linearGradient id="paint6_linear_1072_4574" x1="1.3479" y1="13.9736" x2="2.40801" y2="13.676" gradientUnits="userSpaceOnUse">
<stop offset="0.0677083" stop-color="#7F8A8C"/>
<stop offset="0.21875" stop-color="#D5D5D5"/>
<stop offset="0.374419" stop-color="#848B8A"/>
<stop offset="0.555213" stop-color="#626F73"/>
<stop offset="0.796875" stop-color="#C4CDCF"/>
<stop offset="0.895833" stop-color="#8A9092"/>
<stop offset="1" stop-color="#758184"/>
</linearGradient>
<radialGradient id="paint7_radial_1072_4574" cx="0" cy="0" r="1" gradientUnits="userSpaceOnUse" gradientTransform="translate(1.3479 13.2096) rotate(60.4389) scale(0.938402 0.986016)">
<stop stop-color="white"/>
<stop offset="1" stop-color="white" stop-opacity="0"/>
</radialGradient>
<linearGradient id="paint8_linear_1072_4574" x1="14.1526" y1="18.8774" x2="22.4497" y2="17.5483" gradientUnits="userSpaceOnUse">
<stop offset="0.0677083" stop-color="#7F8A8C"/>
<stop offset="0.21875" stop-color="#D5D5D5"/>
<stop offset="0.374419" stop-color="#848B8A"/>
<stop offset="0.555213" stop-color="#626F73"/>
<stop offset="0.796875" stop-color="#C4CDCF"/>
<stop offset="0.895833" stop-color="#8A9092"/>
<stop offset="1" stop-color="#758184"/>
</linearGradient>
<radialGradient id="paint9_radial_1072_4574" cx="0" cy="0" r="1" gradientUnits="userSpaceOnUse" gradientTransform="translate(14.1526 8.91565) rotate(72.0643) scale(11.1868 8.02513)">
<stop stop-color="white"/>
<stop offset="1" stop-color="white" stop-opacity="0"/>
</radialGradient>
<linearGradient id="paint10_linear_1072_4574" x1="1.73437" y1="14.9039" x2="19.7775" y2="10.589" gradientUnits="userSpaceOnUse">
<stop offset="0.0677083" stop-color="#7F8A8C"/>
<stop offset="0.21875" stop-color="#D5D5D5"/>
<stop offset="0.374419" stop-color="#848B8A"/>
<stop offset="0.555213" stop-color="#626F73"/>
<stop offset="0.796875" stop-color="#C4CDCF"/>
<stop offset="0.895833" stop-color="#8A9092"/>
<stop offset="1" stop-color="#758184"/>
</linearGradient>
<radialGradient id="paint11_radial_1072_4574" cx="0" cy="0" r="1" gradientUnits="userSpaceOnUse" gradientTransform="translate(1.73437 -0.0537964) rotate(64.2104) scale(17.7485 17.0238)">
<stop stop-color="white"/>
<stop offset="1" stop-color="white" stop-opacity="0"/>
</radialGradient>
<linearGradient id="paint12_linear_1072_4574" x1="-8.26966e-08" y1="19.8766" x2="31.4524" y2="10.9584" gradientUnits="userSpaceOnUse">
<stop offset="0.0677083" stop-color="#7F8A8C"/>
<stop offset="0.21875" stop-color="#D5D5D5"/>
<stop offset="0.374419" stop-color="#848B8A"/>
<stop offset="0.555213" stop-color="#626F73"/>
<stop offset="0.796875" stop-color="#C4CDCF"/>
<stop offset="0.895833" stop-color="#8A9092"/>
<stop offset="1" stop-color="#758184"/>
</linearGradient>
<radialGradient id="paint13_radial_1072_4574" cx="0" cy="0" r="1" gradientUnits="userSpaceOnUse" gradientTransform="translate(-6.61341e-07 -2.59693) rotate(60.1911) scale(27.6719 29.2253)">
<stop stop-color="white"/>
<stop offset="1" stop-color="white" stop-opacity="0"/>
</radialGradient>
</defs>
</svg>
