<svg width="24" height="24" viewBox="0 0 24 24" fill="none" xmlns="http://www.w3.org/2000/svg">
<path d="M11.999 24C18.6259 24 23.998 18.6274 23.998 12C23.998 5.37258 18.6259 0 11.999 0C5.37214 0 0 5.37258 0 12C0 18.6274 5.37214 24 11.999 24Z" fill="#B6872D"/>
<path d="M11.999 24C18.6259 24 23.998 18.6274 23.998 12C23.998 5.37258 18.6259 0 11.999 0C5.37214 0 0 5.37258 0 12C0 18.6274 5.37214 24 11.999 24Z" fill="url(#paint0_linear_629_3551)"/>
<path d="M11.999 24C18.6259 24 23.998 18.6274 23.998 12C23.998 5.37258 18.6259 0 11.999 0C5.37214 0 0 5.37258 0 12C0 18.6274 5.37214 24 11.999 24Z" fill="url(#paint1_linear_629_3551)"/>
<path d="M13.6604 5.64191L13.3153 6.9605C12.6849 6.61938 11.9867 6.41591 11.2745 6.36803C10.313 6.3022 9.31958 6.51366 8.42589 7.0383C8.01894 7.27768 7.65788 7.56294 7.34668 7.8881C7.47236 7.63875 7.62197 7.39937 7.78954 7.17395C7.81547 7.14004 7.8414 7.10612 7.86733 7.07221C7.89327 7.04029 7.9192 7.00838 7.94713 6.97646C8.13664 6.74705 8.35009 6.53161 8.58747 6.33811C8.61939 6.31218 8.65131 6.28425 8.68323 6.26031L8.68522 6.25832C8.71714 6.23238 8.74906 6.20844 8.78297 6.18451C8.9246 6.08077 9.07023 5.98303 9.22583 5.89126C9.34153 5.82344 9.45723 5.7616 9.57692 5.70574C9.61682 5.68579 9.65472 5.66784 9.69461 5.64989L9.7006 5.64789C9.73252 5.63393 9.76842 5.61797 9.80234 5.60401C10.0936 5.48032 10.3928 5.38856 10.696 5.32672H10.698C10.7279 5.32074 10.7559 5.31475 10.7858 5.30677L10.8975 5.28682C10.9115 5.28483 10.9254 5.28284 10.9394 5.28084H10.9414C11.2546 5.23296 11.5658 5.21501 11.877 5.22698C11.9189 5.22897 11.9588 5.23097 12.0007 5.23296C12.0425 5.23496 12.0824 5.23895 12.1243 5.24294C12.4335 5.27087 12.7388 5.32872 13.036 5.41449H13.038C13.0779 5.42447 13.1178 5.43843 13.1577 5.4504L13.1597 5.4524C13.1976 5.46237 13.2375 5.47634 13.2734 5.4903C13.403 5.53618 13.5327 5.58605 13.6604 5.64191Z" fill="url(#paint2_linear_629_3551)"/>
<path d="M12.1227 1.99109V5.24296C12.0828 5.23897 12.0409 5.23498 11.999 5.23299C11.9571 5.229 11.9172 5.227 11.8753 5.227V2.11478C6.48322 2.18261 2.1165 6.59159 2.1165 12.0001C2.1165 12.1477 2.12049 12.2993 2.12847 12.449C2.08458 12.437 2.0407 12.433 1.99482 12.437C1.95492 12.441 1.91702 12.4489 1.88111 12.4629C1.87313 12.3073 1.86914 12.1537 1.86914 12.0001C1.86914 9.29483 2.92441 6.7492 4.83548 4.83797C6.74853 2.92476 9.29396 1.87139 11.999 1.87139C12.0688 1.86939 12.1227 1.92526 12.1227 1.99109Z" fill="url(#paint3_linear_629_3551)"/>
<path d="M13.9565 1.6182L13.3161 5.25112L13.2762 5.47456L13.2723 5.49252C13.2344 5.47855 13.1965 5.46459 13.1585 5.45461L13.1566 5.45262C13.1167 5.44065 13.0768 5.42668 13.0369 5.41671L13.6912 1.698C11.2934 1.30299 8.82574 1.76184 6.72317 2.99077C3.90645 4.64264 2.05922 7.43765 1.64429 10.6756C1.6044 10.6576 1.5625 10.6456 1.51662 10.6416C1.47672 10.6377 1.43683 10.6397 1.39893 10.6496C1.60041 9.07756 2.15497 7.54937 3.00877 6.2207C3.92241 4.79825 5.12929 3.63915 6.59949 2.7793C8.78584 1.4985 11.3632 1.03566 13.8548 1.47655C13.9226 1.48653 13.9685 1.55037 13.9565 1.6182Z" fill="url(#paint4_linear_629_3551)"/>
<path d="M7.94813 6.97675C7.9202 7.00867 7.89427 7.04059 7.86834 7.07251C7.8424 7.10643 7.81447 7.14035 7.79054 7.17426L7.77458 7.15232L7.59704 6.94084L6.98262 6.21067C4.18784 8.62663 3.51359 12.6685 5.39074 15.8725C5.65406 16.3194 5.95927 16.7403 6.30438 17.1234C6.26448 17.1433 6.22658 17.1693 6.19466 17.2012C6.16673 17.2291 6.14479 17.261 6.12484 17.295C5.76776 16.898 5.45058 16.463 5.17729 15.9982C4.22774 14.3763 3.88463 12.465 4.21577 10.6177C4.54293 8.79022 5.50245 7.13037 6.91879 5.94533C6.97065 5.90144 7.04845 5.90743 7.09234 5.9593L7.94813 6.97675Z" fill="url(#paint5_linear_629_3551)"/>
<path d="M8.78644 6.1845C8.75452 6.20844 8.72061 6.23238 8.68869 6.25831L8.68669 6.26031C8.65478 6.28624 8.62286 6.31218 8.59094 6.33811L8.58097 6.32215L8.41539 6.03487L7.78901 4.94759C3.925 7.25183 2.63433 12.2633 4.91045 16.1516C4.95633 16.2294 5.00022 16.3012 5.0441 16.371C5.00221 16.383 4.96032 16.401 4.92242 16.4269C4.8905 16.4488 4.86058 16.4768 4.83864 16.5067C4.79275 16.4329 4.74488 16.3571 4.697 16.2753C3.55395 14.3242 3.24076 12.0458 3.81129 9.85931C4.38182 7.67278 5.77023 5.83936 7.72119 4.69422L7.73914 4.68424C7.74912 4.67826 7.75909 4.67227 7.76906 4.66629C7.82891 4.63437 7.90272 4.65432 7.93464 4.71218L8.78644 6.1845Z" fill="url(#paint6_linear_629_3551)"/>
<path d="M9.80481 5.60424C9.7709 5.61821 9.73499 5.63417 9.70307 5.64813L9.69709 5.65013C9.65719 5.66808 9.6173 5.68604 9.57939 5.70599L9.5754 5.69601L9.45771 5.36883L8.88718 3.79875C8.43435 3.97232 7.9915 4.18379 7.57058 4.43117C3.79833 6.63766 2.22639 11.308 3.88411 15.3319C3.84022 15.3359 3.79633 15.3479 3.75644 15.3678C3.72053 15.3858 3.68662 15.4057 3.65869 15.4317C2.8408 13.4546 2.75901 11.2461 3.42729 9.20125C4.11152 7.10449 5.53783 5.33691 7.44291 4.2197C7.9137 3.94439 8.40842 3.71097 8.91511 3.52544C8.94503 3.51347 8.97895 3.51546 9.00887 3.52943C9.03879 3.54339 9.06273 3.56933 9.0727 3.59925L9.80481 5.60424Z" fill="url(#paint7_linear_629_3551)"/>
<path d="M10.9408 5.28086C10.9268 5.28485 10.9129 5.28684 10.8989 5.28884L10.7872 5.30879C10.7573 5.31477 10.7294 5.32076 10.6994 5.32874H10.6974L10.6575 5.09731L10.2586 2.83697C9.21327 3.03447 8.21186 3.41153 7.28625 3.95417C3.76934 6.01103 2.01188 10.0449 2.8916 14.013C2.84772 14.009 2.80383 14.013 2.76194 14.025C2.72204 14.035 2.68614 14.0509 2.65222 14.0709C2.44077 13.1193 2.37693 12.1437 2.46271 11.1681C2.55049 10.1726 2.79186 9.19906 3.18086 8.27736C3.98678 6.36016 5.36521 4.79008 7.16457 3.73672C8.15202 3.15816 9.22125 2.76315 10.3404 2.56764C10.4062 2.55567 10.472 2.59956 10.484 2.66739L10.9029 5.04345L10.9288 5.19108L10.9408 5.28086Z" fill="url(#paint8_linear_629_3551)"/>
<path d="M11.3581 12.409C11.3482 12.4469 11.3382 12.4868 11.3242 12.5228L13.0518 12.9736L13.0358 14.424L13.345 14.7991L13.8238 15.3796L14.7135 16.4589L16.5427 18.6794L16.5587 13.1113C16.5587 13.1113 16.1617 13.0654 15.5952 12.7362C15.5912 12.7342 15.5892 12.7322 15.5852 12.7302C15.4655 12.6604 15.3378 12.5786 15.2062 12.4809C14.8611 12.2275 14.4821 11.8724 14.105 11.3796L14.6536 11.3437L15.6171 11.2799L15.7687 11.2699L15.9463 10.5896L16.7223 12.2794L17.2788 14.2245C17.2788 14.2245 17.7975 10.3382 15.7268 8.03796L11.3581 12.409Z" fill="url(#paint9_linear_629_3551)"/>
<path d="M11.2344 11.5891C11.2723 11.6529 11.3023 11.7188 11.3262 11.7866L14.8531 8.25943C14.4262 7.7128 13.8996 7.27788 13.3171 6.96068C12.6867 6.61953 11.9885 6.41604 11.2763 6.36816C10.3148 6.30232 9.32338 6.51579 8.42769 7.03848C8.02074 7.27788 7.65967 7.56517 7.34848 7.88836C6.87969 8.37714 6.52261 8.9517 6.28921 9.57015C6.00395 10.3263 5.90221 11.1482 6.00595 11.9602C6.08773 12.6066 6.29919 13.247 6.64829 13.8455C7.06321 14.5537 7.62576 15.1223 8.27409 15.5313L8.79075 14.6574L9.7004 13.1173C9.64654 13.0854 9.59667 13.0495 9.54879 13.0096C9.45504 12.9298 9.37125 12.834 9.30542 12.7203C8.99223 12.1876 9.17177 11.5013 9.70439 11.1901C10.1532 10.9268 10.7078 11.0125 11.0589 11.3637C11.1247 11.4295 11.1846 11.5053 11.2344 11.5891Z" fill="url(#paint10_linear_629_3551)"/>
<path d="M23.0544 7.32968C22.45 5.89925 21.5862 4.61845 20.4831 3.51521C19.3819 2.41197 18.0992 1.54813 16.6709 0.943641C15.1908 0.317207 13.6188 0 11.999 0C10.3792 0 8.80924 0.317207 7.32907 0.943641C5.89876 1.54813 4.61608 2.41397 3.51492 3.51521C2.41376 4.61646 1.548 5.89925 0.943563 7.32968C0.317181 8.80798 0 10.3801 0 12C0 13.62 0.317181 15.192 0.943563 16.6723C1.548 18.0988 2.41376 19.3835 3.51492 20.4848C4.61608 21.586 5.90076 22.4519 7.32907 23.0564C8.80924 23.6808 10.3792 24 11.999 24C13.6188 24 15.1908 23.6828 16.6709 23.0564C18.0992 22.4519 19.3819 21.586 20.4851 20.4848C21.5862 19.3835 22.452 18.0988 23.0564 16.6703C23.6828 15.19 24 13.62 24 11.998C23.998 10.38 23.6808 8.80798 23.0544 7.32968ZM22.6256 8.00798L20.2696 5.65187C20.2836 5.62195 20.2936 5.58803 20.2936 5.55212C20.2936 5.42444 20.1898 5.3207 20.0622 5.3207C19.9345 5.3207 19.8308 5.42444 19.8308 5.55212C19.8308 5.6798 19.9345 5.78354 20.0622 5.78354C20.0981 5.78354 20.132 5.77556 20.1619 5.7596L22.7492 8.34713C23.0265 9.1611 23.214 10.017 23.2978 10.9027L19.0029 6.60948H19.0009L17.4868 5.09526C17.5008 5.06534 17.5108 5.03142 17.5108 4.99751C17.5108 4.89776 17.4469 4.81197 17.3552 4.78005V2.77307C17.3552 2.76309 17.3532 2.75312 17.3492 2.74314C17.3452 2.73516 17.3392 2.72519 17.3332 2.7192L15.9867 1.37456C19.0448 2.52369 21.4745 4.95561 22.6256 8.00798ZM1.31261 15.8244L8.17688 22.6893C4.98911 21.5441 2.45765 19.0125 1.31261 15.8244ZM8.50603 22.801L4.98512 19.2778H6.80642C6.83834 19.3676 6.92212 19.4334 7.02386 19.4334C7.05976 19.4334 7.09368 19.4254 7.1236 19.4095L11.0215 23.3077C10.1518 23.2339 9.30995 23.0604 8.50603 22.801ZM13.4153 23.2618L9.98421 19.8304C9.99817 19.8005 10.0081 19.7666 10.0081 19.7307C10.0081 19.6309 9.94431 19.5451 9.85454 19.5132V17.6938L12.9386 20.7801C12.9246 20.81 12.9146 20.8439 12.9146 20.8798C12.9146 21.0075 13.0184 21.1112 13.146 21.1112C13.1819 21.1112 13.2159 21.1012 13.2438 21.0873L15.081 22.9247C14.5444 23.0783 13.9859 23.192 13.4153 23.2618ZM15.2526 22.8748L13.3555 20.9776C13.3595 20.9696 13.3615 20.9636 13.3655 20.9556H15.1549C15.1868 21.0454 15.2706 21.1112 15.3723 21.1112C15.4082 21.1112 15.4421 21.1012 15.472 21.0873L16.7108 22.3262C16.24 22.5416 15.7533 22.7252 15.2526 22.8748ZM16.8584 22.2564L15.5798 20.9796C15.5837 20.9716 15.5857 20.9656 15.5877 20.9576H17.5626L18.1451 21.5401C17.7342 21.8055 17.3033 22.0449 16.8584 22.2564ZM21.5783 18.0828L20.0223 16.5247H22.0271L22.2904 16.788C22.081 17.2349 21.8436 17.6678 21.5783 18.0828ZM22.3582 16.6384L22.1129 16.393C22.1049 16.385 22.0969 16.381 22.0869 16.3771C22.077 16.3731 22.067 16.3711 22.057 16.3711H19.8667L18.3765 14.8788C18.3905 14.8489 18.3985 14.815 18.3985 14.781C18.3985 14.6534 18.2947 14.5496 18.1671 14.5496C18.0394 14.5496 17.9357 14.6534 17.9357 14.781C17.9357 14.9087 18.0394 15.0125 18.1671 15.0125C18.203 15.0125 18.2369 15.0045 18.2668 14.9885L19.7809 16.5027L21.4925 18.2145C21.2292 18.6135 20.9419 18.9965 20.6327 19.3596L18.3227 17.0494C18.3366 17.0195 18.3466 16.9855 18.3466 16.9496C18.3466 16.8219 18.2429 16.7182 18.1152 16.7182C17.9875 16.7182 17.8838 16.8219 17.8838 16.9496C17.8838 17.0773 17.9895 17.181 18.1152 17.181C18.1511 17.181 18.185 17.1731 18.2149 17.1571L20.533 19.4753C20.2198 19.8304 19.8866 20.1676 19.5335 20.4808L18.3247 19.2718C18.3386 19.2419 18.3486 19.208 18.3486 19.1741C18.3486 19.0464 18.2449 18.9426 18.1172 18.9426C17.9895 18.9426 17.8858 19.0464 17.8858 19.1741C17.8858 19.3017 17.9915 19.4055 18.1172 19.4055C18.1531 19.4055 18.187 19.3975 18.2169 19.3815L19.4178 20.5845C19.0568 20.8958 18.6777 21.185 18.2788 21.4524L17.6524 20.8259C17.6464 20.818 17.6384 20.814 17.6285 20.81C17.6185 20.806 17.6085 20.804 17.5985 20.804H15.5877C15.5558 20.7142 15.472 20.6504 15.3703 20.6504C15.3344 20.6504 15.3005 20.6584 15.2725 20.6723L13.1879 18.5875V16.395C13.1879 16.385 13.1859 16.3751 13.1819 16.3651C13.178 16.3551 13.172 16.3471 13.164 16.3392L10.8181 13.991C10.832 13.9611 10.842 13.9272 10.842 13.8933C10.842 13.7656 10.7383 13.6618 10.6106 13.6618C10.4829 13.6618 10.3792 13.7656 10.3792 13.8933C10.3792 14.0209 10.4829 14.1247 10.6106 14.1247C10.6465 14.1247 10.6804 14.1167 10.7083 14.1027L13.0343 16.4269V18.4319L10.8181 16.2155C10.832 16.1855 10.842 16.1516 10.842 16.1157C10.842 15.988 10.7383 15.8843 10.6106 15.8843C10.4829 15.8843 10.3792 15.988 10.3792 16.1157C10.3792 16.2434 10.4829 16.3471 10.6106 16.3471C10.6465 16.3471 10.6804 16.3392 10.7083 16.3232L13.0563 18.6713L15.1628 20.7801C15.1588 20.788 15.1568 20.794 15.1529 20.802H13.3655C13.3336 20.7122 13.2498 20.6484 13.148 20.6484C13.1121 20.6484 13.0782 20.6564 13.0483 20.6703L9.20223 16.8239C9.21619 16.794 9.22617 16.7601 9.22617 16.7262C9.22617 16.5985 9.12243 16.4948 8.99476 16.4948C8.86709 16.4948 8.76336 16.5985 8.76336 16.7262C8.76336 16.8539 8.86709 16.9576 8.99476 16.9576C9.03067 16.9576 9.06458 16.9496 9.09251 16.9357L9.69695 17.5401V19.5152C9.68897 19.5192 9.68299 19.5212 9.67501 19.5252L8.36639 18.2165C8.38035 18.1865 8.39033 18.1526 8.39033 18.1167C8.39033 17.989 8.28659 17.8853 8.15892 17.8853C8.03125 17.8853 7.92752 17.989 7.92752 18.1167C7.92752 18.2444 8.03125 18.3481 8.15892 18.3481C8.19483 18.3481 8.22874 18.3402 8.25667 18.3242L9.56529 19.6329C9.55133 19.6628 9.54135 19.6968 9.54135 19.7307C9.54135 19.8584 9.64508 19.9621 9.77275 19.9621C9.80866 19.9621 9.84257 19.9541 9.8705 19.9382L13.2179 23.2838C12.8169 23.3277 12.4099 23.3496 11.997 23.3496C11.7477 23.3496 11.5003 23.3397 11.2549 23.3237L7.23132 19.2998C7.24528 19.2698 7.25526 19.2359 7.25526 19.2C7.25526 19.0723 7.15153 18.9686 7.02386 18.9686C6.92411 18.9686 6.83834 19.0324 6.80642 19.1222H4.83152L1.2009 15.4913C0.84382 14.392 0.65032 13.217 0.65032 11.998C0.65032 5.73965 5.74117 0.646384 12.001 0.646384C13.2777 0.646384 14.5045 0.857855 15.6496 1.24888L17.2036 2.80299V4.77806C17.1138 4.80998 17.05 4.89377 17.05 4.99551C17.05 5.12319 17.1537 5.22693 17.2814 5.22693C17.3173 5.22693 17.3512 5.21895 17.3811 5.20299L18.8713 6.69526V8.88978C18.8713 8.89975 18.8732 8.90973 18.8772 8.9197C18.8812 8.92968 18.8872 8.93766 18.8932 8.94564L20.9619 11.0145C20.9479 11.0444 20.9379 11.0783 20.9379 11.1142C20.9379 11.214 21.0017 11.2998 21.0935 11.3317V13.3387C21.0935 13.3486 21.0955 13.3586 21.0995 13.3686C21.1035 13.3786 21.1095 13.3865 21.1174 13.3945L22.8969 15.1741C22.7512 15.6748 22.5697 16.1656 22.3582 16.6384ZM22.9467 15.0025L21.2511 13.3067V11.3317C21.2591 11.3277 21.2651 11.3257 21.273 11.3217L23.2739 13.3227C23.2061 13.8953 23.0943 14.4559 22.9467 15.0025ZM21.3808 11.212C21.3947 11.182 21.4047 11.1481 21.4047 11.1142C21.4047 10.9865 21.301 10.8828 21.1733 10.8828C21.1374 10.8828 21.1035 10.8908 21.0736 10.9067L19.0268 8.85786V6.85287L23.3178 11.1441C23.3397 11.4254 23.3497 11.7127 23.3497 12C23.3497 12.381 23.3297 12.7561 23.2938 13.1272L21.3808 11.212Z" fill="url(#paint11_linear_629_3551)"/>
<path d="M6.76048 17.2009C6.68468 17.1251 6.58494 17.0833 6.47722 17.0833C6.47522 17.0833 6.47522 17.0833 6.47522 17.0833C6.41538 17.0833 6.35553 17.0972 6.30167 17.1231C6.26177 17.1431 6.22387 17.169 6.19196 17.2009C6.16403 17.2289 6.14208 17.2608 6.12214 17.2947C6.09022 17.3526 6.07426 17.4164 6.07227 17.4842C6.07227 17.5919 6.11416 17.6937 6.18797 17.7695C6.26377 17.8453 6.36551 17.8872 6.47123 17.8872H6.47323C6.58095 17.8872 6.68069 17.8453 6.75649 17.7715C6.8323 17.6957 6.87419 17.5939 6.87419 17.4882C6.87818 17.3785 6.83629 17.2787 6.76048 17.2009ZM6.58494 17.5939C6.55701 17.6219 6.51711 17.6378 6.47522 17.6378C6.43333 17.6378 6.39543 17.6219 6.36551 17.5919C6.33558 17.564 6.31963 17.5241 6.32162 17.4822C6.32162 17.4403 6.33758 17.4024 6.3675 17.3725C6.39543 17.3446 6.43533 17.3286 6.47522 17.3286H6.47722C6.51911 17.3286 6.55701 17.3446 6.58693 17.3745C6.61486 17.4044 6.63082 17.4423 6.63082 17.4842C6.63082 17.5261 6.61486 17.566 6.58494 17.5939Z" fill="url(#paint12_linear_629_3551)"/>
<path d="M5.48202 16.5306C5.42018 16.4428 5.33041 16.3829 5.22269 16.365C5.16284 16.355 5.101 16.357 5.04315 16.373C5.00126 16.3849 4.95937 16.4029 4.92147 16.4288C4.88955 16.4508 4.85963 16.4787 4.83768 16.5086C4.79579 16.5585 4.76787 16.6203 4.7559 16.6862C4.73595 16.7919 4.75989 16.8996 4.82173 16.9874C4.88357 17.0752 4.97333 17.133 5.08106 17.153C5.10499 17.1569 5.12893 17.1589 5.15287 17.1589C5.23266 17.1589 5.31246 17.135 5.38028 17.0871C5.46805 17.0253 5.5279 16.9335 5.54585 16.8278C5.5658 16.7241 5.54386 16.6183 5.48202 16.5306ZM5.24064 16.8856C5.20673 16.9096 5.16484 16.9176 5.12494 16.9116C5.08504 16.9036 5.04914 16.8817 5.0252 16.8477C5.00126 16.8138 4.99328 16.7719 5.00126 16.732C5.00725 16.6901 5.03118 16.6562 5.0651 16.6323C5.09103 16.6143 5.12095 16.6044 5.15287 16.6044C5.16085 16.6044 5.17082 16.6044 5.1808 16.6064C5.22069 16.6143 5.2566 16.6363 5.28054 16.6702C5.30448 16.7041 5.31246 16.746 5.30448 16.7859C5.2965 16.8278 5.27455 16.8617 5.24064 16.8856Z" fill="url(#paint13_linear_629_3551)"/>
<path d="M4.28897 15.5631C4.24508 15.4654 4.16329 15.3916 4.06355 15.3557C4.0057 15.3337 3.94386 15.3277 3.88402 15.3317C3.84013 15.3357 3.79624 15.3477 3.75635 15.3676C3.72044 15.3856 3.68653 15.4055 3.6586 15.4315C3.57083 15.5093 3.52295 15.619 3.52295 15.7327C3.52295 15.7885 3.53492 15.8464 3.56085 15.9003C3.60673 15.998 3.68653 16.0718 3.78627 16.1097C3.83215 16.1257 3.87803 16.1337 3.92591 16.1337C3.98376 16.1337 4.03961 16.1217 4.09348 16.0958C4.19122 16.0519 4.26503 15.9701 4.30293 15.8703C4.33884 15.7686 4.33485 15.6589 4.28897 15.5631ZM4.06954 15.7846C4.05557 15.8245 4.02765 15.8544 3.98974 15.8723C3.91194 15.9082 3.82018 15.8743 3.78427 15.7965C3.74837 15.7187 3.78228 15.629 3.86008 15.5911C3.89798 15.5751 3.93987 15.5711 3.97777 15.5851C4.01767 15.599 4.04759 15.629 4.06555 15.6649C4.0835 15.7028 4.0835 15.7447 4.06954 15.7846Z" fill="url(#paint14_linear_629_3551)"/>
<path d="M3.2514 14.3122C3.22347 14.2085 3.15764 14.1207 3.06588 14.0668C3.01201 14.0369 2.95217 14.017 2.89232 14.013C2.84844 14.009 2.80455 14.013 2.76266 14.0249C2.72276 14.0349 2.68685 14.0509 2.65294 14.0708V14.0728C2.59709 14.1067 2.5532 14.1526 2.51929 14.2125C2.46543 14.3042 2.44947 14.4119 2.4774 14.5157C2.52527 14.6952 2.68885 14.8149 2.8644 14.8149C2.89831 14.8149 2.93422 14.8109 2.96813 14.8029C3.17759 14.7451 3.30725 14.5256 3.2514 14.3122ZM2.9023 14.5636C2.8624 14.5735 2.82051 14.5695 2.7846 14.5476C2.7487 14.5276 2.72276 14.4937 2.71279 14.4538C2.70281 14.4139 2.7088 14.372 2.72875 14.3361C2.75069 14.3002 2.78261 14.2743 2.8225 14.2643C2.83447 14.2603 2.84844 14.2583 2.8624 14.2583C2.93222 14.2583 2.99406 14.3042 3.01201 14.372C3.03396 14.4558 2.98409 14.5416 2.9023 14.5636Z" fill="url(#paint15_linear_629_3551)"/>
<path d="M2.28822 12.5307C2.24035 12.4908 2.18649 12.4629 2.12864 12.4489C2.08475 12.4369 2.04086 12.4329 1.99498 12.4369C1.95508 12.4409 1.91718 12.4489 1.88128 12.4629C1.73166 12.5227 1.62793 12.6703 1.62793 12.8379C1.62793 12.8479 1.62793 12.8598 1.62992 12.8698C1.6399 12.9775 1.68977 13.0733 1.77156 13.1431C1.84537 13.2049 1.93514 13.2369 2.03089 13.2369C2.04286 13.2369 2.05483 13.2369 2.0668 13.2349C2.17252 13.2249 2.27027 13.175 2.34009 13.0932C2.40991 13.0114 2.44382 12.9077 2.43385 12.8C2.41988 12.6963 2.37001 12.5985 2.28822 12.5307ZM2.14659 12.9356C2.12066 12.9676 2.08275 12.9855 2.04086 12.9915C1.99897 12.9955 1.96107 12.9815 1.92915 12.9556C1.89723 12.9297 1.87928 12.8917 1.87529 12.8499C1.86731 12.7641 1.93115 12.6903 2.01692 12.6823C2.05682 12.6783 2.09672 12.6923 2.12864 12.7182C2.16055 12.7441 2.17851 12.782 2.1825 12.8239C2.18449 12.8658 2.17252 12.9057 2.14659 12.9356Z" fill="url(#paint16_linear_629_3551)"/>
<path d="M1.64344 10.6752C1.60354 10.6573 1.56165 10.6453 1.51577 10.6413C1.47587 10.6373 1.43597 10.6393 1.39807 10.6493C1.2305 10.6832 1.09685 10.8249 1.08089 11.0044C1.07092 11.1121 1.10283 11.2158 1.17265 11.2976C1.24247 11.3794 1.33822 11.4313 1.44595 11.4413C1.45792 11.4433 1.46988 11.4433 1.48385 11.4433C1.57761 11.4433 1.66737 11.4113 1.74118 11.3495C1.82297 11.2797 1.87284 11.1839 1.88481 11.0762C1.89678 10.9027 1.79704 10.7431 1.64344 10.6752ZM1.5796 11.16C1.54768 11.1859 1.50779 11.1979 1.46589 11.1959C1.424 11.1919 1.3881 11.172 1.36017 11.14C1.33423 11.1081 1.32227 11.0682 1.32426 11.0263C1.33224 10.9465 1.40006 10.8867 1.47786 10.8867C1.48385 10.8867 1.48784 10.8867 1.49183 10.8887C1.57761 10.8967 1.63945 10.9705 1.63147 11.0563C1.62947 11.0982 1.60952 11.1341 1.5796 11.16Z" fill="url(#paint17_linear_629_3551)"/>
<g opacity="0.4">
<g opacity="0.4">
<g opacity="0.4">
<path opacity="0.4" d="M13.6604 5.64191L13.3153 6.9605C12.6849 6.61938 11.9867 6.41591 11.2745 6.36803C10.313 6.3022 9.31958 6.51366 8.42589 7.0383C8.01894 7.27768 7.65788 7.56294 7.34668 7.8881C7.47236 7.63875 7.62197 7.39937 7.78954 7.17395C7.81547 7.14004 7.8414 7.10612 7.86733 7.07221C7.89327 7.04029 7.9192 7.00838 7.94713 6.97646C8.13664 6.74705 8.35009 6.53161 8.58747 6.33811C8.61939 6.31218 8.65131 6.28425 8.68323 6.26031L8.68522 6.25832C8.71714 6.23238 8.74906 6.20844 8.78297 6.18451C8.9246 6.08077 9.07023 5.98303 9.22583 5.89126C9.34153 5.82344 9.45723 5.7616 9.57692 5.70574C9.61682 5.68579 9.65472 5.66784 9.69461 5.64989L9.7006 5.64789C9.73252 5.63393 9.76842 5.61797 9.80234 5.60401C10.0936 5.48032 10.3928 5.38856 10.696 5.32672H10.698C10.7279 5.32074 10.7559 5.31475 10.7858 5.30677L10.8975 5.28682C10.9115 5.28483 10.9254 5.28284 10.9394 5.28084H10.9414C11.2546 5.23296 11.5658 5.21501 11.877 5.22698C11.9189 5.22897 11.9588 5.23097 12.0007 5.23296C12.0425 5.23496 12.0824 5.23895 12.1243 5.24294C12.4335 5.27087 12.7388 5.32872 13.036 5.41449H13.038C13.0779 5.42447 13.1178 5.43843 13.1577 5.4504L13.1597 5.4524C13.1976 5.46237 13.2375 5.47634 13.2734 5.4903C13.403 5.53618 13.5327 5.58605 13.6604 5.64191Z" fill="url(#paint18_linear_629_3551)"/>
<g opacity="0.4">
<g opacity="0.4">
<g opacity="0.4">
<path opacity="0.4" d="M12.1227 1.99109V5.24296C12.0828 5.23897 12.0409 5.23498 11.999 5.23299C11.9571 5.229 11.9172 5.227 11.8753 5.227V2.11478C6.48322 2.18261 2.1165 6.59159 2.1165 12.0001C2.1165 12.1477 2.12049 12.2993 2.12847 12.449C2.08458 12.437 2.0407 12.433 1.99482 12.437C1.95492 12.441 1.91702 12.4489 1.88111 12.4629C1.87313 12.3073 1.86914 12.1537 1.86914 12.0001C1.86914 9.29483 2.92441 6.7492 4.83548 4.83797C6.74853 2.92476 9.29396 1.87139 11.999 1.87139C12.0688 1.86939 12.1227 1.92526 12.1227 1.99109Z" fill="url(#paint19_linear_629_3551)"/>
</g>
<g opacity="0.4">
<path opacity="0.4" d="M13.9565 1.6182L13.3161 5.25112L13.2762 5.47456L13.2723 5.49252C13.2344 5.47855 13.1965 5.46459 13.1585 5.45461L13.1566 5.45262C13.1167 5.44065 13.0768 5.42668 13.0369 5.41671L13.6912 1.698C11.2934 1.30299 8.82574 1.76184 6.72317 2.99077C3.90645 4.64264 2.05922 7.43765 1.64429 10.6756C1.6044 10.6576 1.5625 10.6456 1.51662 10.6416C1.47672 10.6377 1.43683 10.6397 1.39893 10.6496C1.60041 9.07756 2.15497 7.54937 3.00877 6.2207C3.92241 4.79825 5.12929 3.63915 6.59949 2.7793C8.78584 1.4985 11.3632 1.03566 13.8548 1.47655C13.9226 1.48653 13.9685 1.55037 13.9565 1.6182Z" fill="url(#paint20_linear_629_3551)"/>
</g>
<g opacity="0.4">
<path opacity="0.4" d="M7.94813 6.97675C7.9202 7.00867 7.89427 7.04059 7.86834 7.07251C7.8424 7.10643 7.81447 7.14035 7.79054 7.17426L7.77458 7.15232L7.59704 6.94084L6.98262 6.21067C4.18784 8.62663 3.51359 12.6685 5.39074 15.8725C5.65406 16.3194 5.95927 16.7403 6.30438 17.1234C6.26448 17.1433 6.22658 17.1693 6.19466 17.2012C6.16673 17.2291 6.14479 17.261 6.12484 17.295C5.76776 16.898 5.45058 16.463 5.17729 15.9982C4.22774 14.3763 3.88463 12.465 4.21577 10.6177C4.54293 8.79022 5.50245 7.13037 6.91879 5.94533C6.97065 5.90144 7.04845 5.90743 7.09234 5.9593L7.94813 6.97675Z" fill="url(#paint21_linear_629_3551)"/>
</g>
<g opacity="0.4">
<path opacity="0.4" d="M8.78644 6.1845C8.75452 6.20844 8.72061 6.23238 8.68869 6.25831L8.68669 6.26031C8.65478 6.28624 8.62286 6.31218 8.59094 6.33811L8.58097 6.32215L8.41539 6.03487L7.78901 4.94759C3.925 7.25183 2.63433 12.2633 4.91045 16.1516C4.95633 16.2294 5.00022 16.3012 5.0441 16.371C5.00221 16.383 4.96032 16.401 4.92242 16.4269C4.8905 16.4488 4.86058 16.4768 4.83864 16.5067C4.79275 16.4329 4.74488 16.3571 4.697 16.2753C3.55395 14.3242 3.24076 12.0458 3.81129 9.85931C4.38182 7.67278 5.77023 5.83936 7.72119 4.69422L7.73914 4.68424C7.74912 4.67826 7.75909 4.67227 7.76906 4.66629C7.82891 4.63437 7.90272 4.65432 7.93464 4.71218L8.78644 6.1845Z" fill="url(#paint22_linear_629_3551)"/>
</g>
<g opacity="0.4">
<path opacity="0.4" d="M9.80481 5.60424C9.7709 5.61821 9.73499 5.63417 9.70307 5.64813L9.69709 5.65013C9.65719 5.66808 9.6173 5.68604 9.57939 5.70599L9.5754 5.69601L9.45771 5.36883L8.88718 3.79875C8.43435 3.97232 7.9915 4.18379 7.57058 4.43117C3.79833 6.63766 2.22639 11.308 3.88411 15.3319C3.84022 15.3359 3.79633 15.3479 3.75644 15.3678C3.72053 15.3858 3.68662 15.4057 3.65869 15.4317C2.8408 13.4546 2.75901 11.2461 3.42729 9.20125C4.11152 7.10449 5.53783 5.33691 7.44291 4.2197C7.9137 3.94439 8.40842 3.71097 8.91511 3.52544C8.94503 3.51347 8.97895 3.51546 9.00887 3.52943C9.03879 3.54339 9.06273 3.56933 9.0727 3.59925L9.80481 5.60424Z" fill="url(#paint23_linear_629_3551)"/>
</g>
<g opacity="0.4">
<path opacity="0.4" d="M10.9408 5.28086C10.9268 5.28485 10.9129 5.28684 10.8989 5.28884L10.7872 5.30879C10.7573 5.31477 10.7294 5.32076 10.6994 5.32874H10.6974L10.6575 5.09731L10.2586 2.83697C9.21327 3.03447 8.21186 3.41153 7.28625 3.95417C3.76934 6.01103 2.01188 10.0449 2.8916 14.013C2.84772 14.009 2.80383 14.013 2.76194 14.025C2.72204 14.035 2.68614 14.0509 2.65222 14.0709C2.44077 13.1193 2.37693 12.1437 2.46271 11.1681C2.55049 10.1726 2.79186 9.19906 3.18086 8.27736C3.98678 6.36016 5.36521 4.79008 7.16457 3.73672C8.15202 3.15816 9.22125 2.76315 10.3404 2.56764C10.4062 2.55567 10.472 2.59956 10.484 2.66739L10.9029 5.04345L10.9288 5.19108L10.9408 5.28086Z" fill="url(#paint24_linear_629_3551)"/>
</g>
</g>
</g>
<g opacity="0.4">
<g opacity="0.4">
<path opacity="0.4" d="M11.3581 12.409C11.3482 12.4469 11.3382 12.4868 11.3242 12.5228L13.0518 12.9736L13.0358 14.424L13.345 14.7991L13.8238 15.3796L14.7135 16.4589L16.5427 18.6794L16.5587 13.1113C16.5587 13.1113 16.1617 13.0654 15.5952 12.7362C15.5912 12.7342 15.5892 12.7322 15.5852 12.7302C15.4655 12.6604 15.3378 12.5786 15.2062 12.4809C14.8611 12.2275 14.4821 11.8724 14.105 11.3796L14.6536 11.3437L15.6171 11.2799L15.7687 11.2699L15.9463 10.5896L16.7223 12.2794L17.2788 14.2245C17.2788 14.2245 17.7975 10.3382 15.7268 8.03796L11.3581 12.409Z" fill="url(#paint25_linear_629_3551)"/>
<path opacity="0.4" d="M11.2344 11.5891C11.2723 11.6529 11.3023 11.7188 11.3262 11.7866L14.8531 8.25943C14.4262 7.7128 13.8996 7.27788 13.3171 6.96068C12.6867 6.61953 11.9885 6.41604 11.2763 6.36816C10.3148 6.30232 9.32338 6.51579 8.42769 7.03848C8.02074 7.27788 7.65967 7.56517 7.34848 7.88836C6.87969 8.37714 6.52261 8.9517 6.28921 9.57015C6.00395 10.3263 5.90221 11.1482 6.00595 11.9602C6.08773 12.6066 6.29919 13.247 6.64829 13.8455C7.06321 14.5537 7.62576 15.1223 8.27409 15.5313L8.79075 14.6574L9.7004 13.1173C9.64654 13.0854 9.59667 13.0495 9.54879 13.0096C9.45504 12.9298 9.37125 12.834 9.30542 12.7203C8.99223 12.1876 9.17177 11.5013 9.70439 11.1901C10.1532 10.9268 10.7078 11.0125 11.0589 11.3637C11.1247 11.4295 11.1846 11.5053 11.2344 11.5891Z" fill="url(#paint26_linear_629_3551)"/>
</g>
</g>
<path opacity="0.4" d="M23.0544 7.32968C22.45 5.89925 21.5862 4.61845 20.4831 3.51521C19.3819 2.41197 18.0992 1.54813 16.6709 0.943641C15.1908 0.317207 13.6188 0 11.999 0C10.3792 0 8.80924 0.317207 7.32907 0.943641C5.89876 1.54813 4.61608 2.41397 3.51492 3.51521C2.41376 4.61646 1.548 5.89925 0.943563 7.32968C0.317181 8.80798 0 10.3801 0 12C0 13.62 0.317181 15.192 0.943563 16.6723C1.548 18.0988 2.41376 19.3835 3.51492 20.4848C4.61608 21.586 5.90076 22.4519 7.32907 23.0564C8.80924 23.6808 10.3792 24 11.999 24C13.6188 24 15.1908 23.6828 16.6709 23.0564C18.0992 22.4519 19.3819 21.586 20.4851 20.4848C21.5862 19.3835 22.452 18.0988 23.0564 16.6703C23.6828 15.19 24 13.62 24 11.998C23.998 10.38 23.6808 8.80798 23.0544 7.32968ZM22.6256 8.00798L20.2696 5.65187C20.2836 5.62195 20.2936 5.58803 20.2936 5.55212C20.2936 5.42444 20.1898 5.3207 20.0622 5.3207C19.9345 5.3207 19.8308 5.42444 19.8308 5.55212C19.8308 5.6798 19.9345 5.78354 20.0622 5.78354C20.0981 5.78354 20.132 5.77556 20.1619 5.7596L22.7492 8.34713C23.0265 9.1611 23.214 10.017 23.2978 10.9027L19.0029 6.60948H19.0009L17.4868 5.09526C17.5008 5.06534 17.5108 5.03142 17.5108 4.99751C17.5108 4.89776 17.4469 4.81197 17.3552 4.78005V2.77307C17.3552 2.76309 17.3532 2.75312 17.3492 2.74314C17.3452 2.73516 17.3392 2.72519 17.3332 2.7192L15.9867 1.37456C19.0448 2.52369 21.4745 4.95561 22.6256 8.00798ZM1.31261 15.8244L8.17688 22.6893C4.98911 21.5441 2.45765 19.0125 1.31261 15.8244ZM8.50603 22.801L4.98512 19.2778H6.80642C6.83834 19.3676 6.92212 19.4334 7.02386 19.4334C7.05976 19.4334 7.09368 19.4254 7.1236 19.4095L11.0215 23.3077C10.1518 23.2339 9.30995 23.0604 8.50603 22.801ZM13.4153 23.2618L9.98421 19.8304C9.99817 19.8005 10.0081 19.7666 10.0081 19.7307C10.0081 19.6309 9.94431 19.5451 9.85454 19.5132V17.6938L12.9386 20.7801C12.9246 20.81 12.9146 20.8439 12.9146 20.8798C12.9146 21.0075 13.0184 21.1112 13.146 21.1112C13.1819 21.1112 13.2159 21.1012 13.2438 21.0873L15.081 22.9247C14.5444 23.0783 13.9859 23.192 13.4153 23.2618ZM15.2526 22.8748L13.3555 20.9776C13.3595 20.9696 13.3615 20.9636 13.3655 20.9556H15.1549C15.1868 21.0454 15.2706 21.1112 15.3723 21.1112C15.4082 21.1112 15.4421 21.1012 15.472 21.0873L16.7108 22.3262C16.24 22.5416 15.7533 22.7252 15.2526 22.8748ZM16.8584 22.2564L15.5798 20.9796C15.5837 20.9716 15.5857 20.9656 15.5877 20.9576H17.5626L18.1451 21.5401C17.7342 21.8055 17.3033 22.0449 16.8584 22.2564ZM21.5783 18.0828L20.0223 16.5247H22.0271L22.2904 16.788C22.081 17.2349 21.8436 17.6678 21.5783 18.0828ZM22.3582 16.6384L22.1129 16.393C22.1049 16.385 22.0969 16.381 22.0869 16.3771C22.077 16.3731 22.067 16.3711 22.057 16.3711H19.8667L18.3765 14.8788C18.3905 14.8489 18.3985 14.815 18.3985 14.781C18.3985 14.6534 18.2947 14.5496 18.1671 14.5496C18.0394 14.5496 17.9357 14.6534 17.9357 14.781C17.9357 14.9087 18.0394 15.0125 18.1671 15.0125C18.203 15.0125 18.2369 15.0045 18.2668 14.9885L19.7809 16.5027L21.4925 18.2145C21.2292 18.6135 20.9419 18.9965 20.6327 19.3596L18.3227 17.0494C18.3366 17.0195 18.3466 16.9855 18.3466 16.9496C18.3466 16.8219 18.2429 16.7182 18.1152 16.7182C17.9875 16.7182 17.8838 16.8219 17.8838 16.9496C17.8838 17.0773 17.9895 17.181 18.1152 17.181C18.1511 17.181 18.185 17.1731 18.2149 17.1571L20.533 19.4753C20.2198 19.8304 19.8866 20.1676 19.5335 20.4808L18.3247 19.2718C18.3386 19.2419 18.3486 19.208 18.3486 19.1741C18.3486 19.0464 18.2449 18.9426 18.1172 18.9426C17.9895 18.9426 17.8858 19.0464 17.8858 19.1741C17.8858 19.3017 17.9915 19.4055 18.1172 19.4055C18.1531 19.4055 18.187 19.3975 18.2169 19.3815L19.4178 20.5845C19.0568 20.8958 18.6777 21.185 18.2788 21.4524L17.6524 20.8259C17.6464 20.818 17.6384 20.814 17.6285 20.81C17.6185 20.806 17.6085 20.804 17.5985 20.804H15.5877C15.5558 20.7142 15.472 20.6504 15.3703 20.6504C15.3344 20.6504 15.3005 20.6584 15.2725 20.6723L13.1879 18.5875V16.395C13.1879 16.385 13.1859 16.3751 13.1819 16.3651C13.178 16.3551 13.172 16.3471 13.164 16.3392L10.8181 13.991C10.832 13.9611 10.842 13.9272 10.842 13.8933C10.842 13.7656 10.7383 13.6618 10.6106 13.6618C10.4829 13.6618 10.3792 13.7656 10.3792 13.8933C10.3792 14.0209 10.4829 14.1247 10.6106 14.1247C10.6465 14.1247 10.6804 14.1167 10.7083 14.1027L13.0343 16.4269V18.4319L10.8181 16.2155C10.832 16.1855 10.842 16.1516 10.842 16.1157C10.842 15.988 10.7383 15.8843 10.6106 15.8843C10.4829 15.8843 10.3792 15.988 10.3792 16.1157C10.3792 16.2434 10.4829 16.3471 10.6106 16.3471C10.6465 16.3471 10.6804 16.3392 10.7083 16.3232L13.0563 18.6713L15.1628 20.7801C15.1588 20.788 15.1568 20.794 15.1529 20.802H13.3655C13.3336 20.7122 13.2498 20.6484 13.148 20.6484C13.1121 20.6484 13.0782 20.6564 13.0483 20.6703L9.20223 16.8239C9.21619 16.794 9.22617 16.7601 9.22617 16.7262C9.22617 16.5985 9.12243 16.4948 8.99476 16.4948C8.86709 16.4948 8.76336 16.5985 8.76336 16.7262C8.76336 16.8539 8.86709 16.9576 8.99476 16.9576C9.03067 16.9576 9.06458 16.9496 9.09251 16.9357L9.69695 17.5401V19.5152C9.68897 19.5192 9.68299 19.5212 9.67501 19.5252L8.36639 18.2165C8.38035 18.1865 8.39033 18.1526 8.39033 18.1167C8.39033 17.989 8.28659 17.8853 8.15892 17.8853C8.03125 17.8853 7.92752 17.989 7.92752 18.1167C7.92752 18.2444 8.03125 18.3481 8.15892 18.3481C8.19483 18.3481 8.22874 18.3402 8.25667 18.3242L9.56529 19.6329C9.55133 19.6628 9.54135 19.6968 9.54135 19.7307C9.54135 19.8584 9.64508 19.9621 9.77275 19.9621C9.80866 19.9621 9.84257 19.9541 9.8705 19.9382L13.2179 23.2838C12.8169 23.3277 12.4099 23.3496 11.997 23.3496C11.7477 23.3496 11.5003 23.3397 11.2549 23.3237L7.23132 19.2998C7.24528 19.2698 7.25526 19.2359 7.25526 19.2C7.25526 19.0723 7.15153 18.9686 7.02386 18.9686C6.92411 18.9686 6.83834 19.0324 6.80642 19.1222H4.83152L1.2009 15.4913C0.84382 14.392 0.65032 13.217 0.65032 11.998C0.65032 5.73965 5.74117 0.646384 12.001 0.646384C13.2777 0.646384 14.5045 0.857855 15.6496 1.24888L17.2036 2.80299V4.77806C17.1138 4.80998 17.05 4.89377 17.05 4.99551C17.05 5.12319 17.1537 5.22693 17.2814 5.22693C17.3173 5.22693 17.3512 5.21895 17.3811 5.20299L18.8713 6.69526V8.88978C18.8713 8.89975 18.8732 8.90973 18.8772 8.9197C18.8812 8.92968 18.8872 8.93766 18.8932 8.94564L20.9619 11.0145C20.9479 11.0444 20.9379 11.0783 20.9379 11.1142C20.9379 11.214 21.0017 11.2998 21.0935 11.3317V13.3387C21.0935 13.3486 21.0955 13.3586 21.0995 13.3686C21.1035 13.3786 21.1095 13.3865 21.1174 13.3945L22.8969 15.1741C22.7512 15.6748 22.5697 16.1656 22.3582 16.6384ZM22.9467 15.0025L21.2511 13.3067V11.3317C21.2591 11.3277 21.2651 11.3257 21.273 11.3217L23.2739 13.3227C23.2061 13.8953 23.0943 14.4559 22.9467 15.0025ZM21.3808 11.212C21.3947 11.182 21.4047 11.1481 21.4047 11.1142C21.4047 10.9865 21.301 10.8828 21.1733 10.8828C21.1374 10.8828 21.1035 10.8908 21.0736 10.9067L19.0268 8.85786V6.85287L23.3178 11.1441C23.3397 11.4254 23.3497 11.7127 23.3497 12C23.3497 12.381 23.3297 12.7561 23.2938 13.1272L21.3808 11.212Z" fill="url(#paint27_linear_629_3551)"/>
<path opacity="0.4" d="M6.76048 17.2009C6.68468 17.1251 6.58494 17.0833 6.47722 17.0833C6.47522 17.0833 6.47522 17.0833 6.47522 17.0833C6.41538 17.0833 6.35553 17.0972 6.30167 17.1231C6.26177 17.1431 6.22387 17.169 6.19196 17.2009C6.16403 17.2289 6.14208 17.2608 6.12214 17.2947C6.09022 17.3526 6.07426 17.4164 6.07227 17.4842C6.07227 17.5919 6.11416 17.6937 6.18797 17.7695C6.26377 17.8453 6.36551 17.8872 6.47123 17.8872H6.47323C6.58095 17.8872 6.68069 17.8453 6.75649 17.7715C6.8323 17.6957 6.87419 17.5939 6.87419 17.4882C6.87818 17.3785 6.83629 17.2787 6.76048 17.2009ZM6.58494 17.5939C6.55701 17.6219 6.51711 17.6378 6.47522 17.6378C6.43333 17.6378 6.39543 17.6219 6.36551 17.5919C6.33558 17.564 6.31963 17.5241 6.32162 17.4822C6.32162 17.4403 6.33758 17.4024 6.3675 17.3725C6.39543 17.3446 6.43533 17.3286 6.47522 17.3286H6.47722C6.51911 17.3286 6.55701 17.3446 6.58693 17.3745C6.61486 17.4044 6.63082 17.4423 6.63082 17.4842C6.63082 17.5261 6.61486 17.566 6.58494 17.5939Z" fill="url(#paint28_linear_629_3551)"/>
<path opacity="0.4" d="M5.48202 16.5306C5.42018 16.4428 5.33041 16.3829 5.22269 16.365C5.16284 16.355 5.101 16.357 5.04315 16.373C5.00126 16.3849 4.95937 16.4029 4.92147 16.4288C4.88955 16.4508 4.85963 16.4787 4.83768 16.5086C4.79579 16.5585 4.76787 16.6203 4.7559 16.6862C4.73595 16.7919 4.75989 16.8996 4.82173 16.9874C4.88357 17.0752 4.97333 17.133 5.08106 17.153C5.10499 17.1569 5.12893 17.1589 5.15287 17.1589C5.23266 17.1589 5.31246 17.135 5.38028 17.0871C5.46805 17.0253 5.5279 16.9335 5.54585 16.8278C5.5658 16.7241 5.54386 16.6183 5.48202 16.5306ZM5.24064 16.8856C5.20673 16.9096 5.16484 16.9176 5.12494 16.9116C5.08504 16.9036 5.04914 16.8817 5.0252 16.8477C5.00126 16.8138 4.99328 16.7719 5.00126 16.732C5.00725 16.6901 5.03118 16.6562 5.0651 16.6323C5.09103 16.6143 5.12095 16.6044 5.15287 16.6044C5.16085 16.6044 5.17082 16.6044 5.1808 16.6064C5.22069 16.6143 5.2566 16.6363 5.28054 16.6702C5.30448 16.7041 5.31246 16.746 5.30448 16.7859C5.2965 16.8278 5.27455 16.8617 5.24064 16.8856Z" fill="url(#paint29_linear_629_3551)"/>
<path opacity="0.4" d="M4.28897 15.5631C4.24508 15.4654 4.16329 15.3916 4.06355 15.3557C4.0057 15.3337 3.94386 15.3277 3.88402 15.3317C3.84013 15.3357 3.79624 15.3477 3.75635 15.3676C3.72044 15.3856 3.68653 15.4055 3.6586 15.4315C3.57083 15.5093 3.52295 15.619 3.52295 15.7327C3.52295 15.7885 3.53492 15.8464 3.56085 15.9003C3.60673 15.998 3.68653 16.0718 3.78627 16.1097C3.83215 16.1257 3.87803 16.1337 3.92591 16.1337C3.98376 16.1337 4.03961 16.1217 4.09348 16.0958C4.19122 16.0519 4.26503 15.9701 4.30293 15.8703C4.33884 15.7686 4.33485 15.6589 4.28897 15.5631ZM4.06954 15.7846C4.05557 15.8245 4.02765 15.8544 3.98974 15.8723C3.91194 15.9082 3.82018 15.8743 3.78427 15.7965C3.74837 15.7187 3.78228 15.629 3.86008 15.5911C3.89798 15.5751 3.93987 15.5711 3.97777 15.5851C4.01767 15.599 4.04759 15.629 4.06555 15.6649C4.0835 15.7028 4.0835 15.7447 4.06954 15.7846Z" fill="url(#paint30_linear_629_3551)"/>
<path opacity="0.4" d="M3.2514 14.3122C3.22347 14.2085 3.15764 14.1207 3.06588 14.0668C3.01201 14.0369 2.95217 14.017 2.89232 14.013C2.84844 14.009 2.80455 14.013 2.76266 14.0249C2.72276 14.0349 2.68685 14.0509 2.65294 14.0708V14.0728C2.59709 14.1067 2.5532 14.1526 2.51929 14.2125C2.46543 14.3042 2.44947 14.4119 2.4774 14.5157C2.52527 14.6952 2.68885 14.8149 2.8644 14.8149C2.89831 14.8149 2.93422 14.8109 2.96813 14.8029C3.17759 14.7451 3.30725 14.5256 3.2514 14.3122ZM2.9023 14.5636C2.8624 14.5735 2.82051 14.5695 2.7846 14.5476C2.7487 14.5276 2.72276 14.4937 2.71279 14.4538C2.70281 14.4139 2.7088 14.372 2.72875 14.3361C2.75069 14.3002 2.78261 14.2743 2.8225 14.2643C2.83447 14.2603 2.84844 14.2583 2.8624 14.2583C2.93222 14.2583 2.99406 14.3042 3.01201 14.372C3.03396 14.4558 2.98409 14.5416 2.9023 14.5636Z" fill="url(#paint31_linear_629_3551)"/>
<path opacity="0.4" d="M2.28822 12.5307C2.24035 12.4908 2.18649 12.4629 2.12864 12.4489C2.08475 12.4369 2.04086 12.4329 1.99498 12.4369C1.95508 12.4409 1.91718 12.4489 1.88128 12.4629C1.73166 12.5227 1.62793 12.6703 1.62793 12.8379C1.62793 12.8479 1.62793 12.8598 1.62992 12.8698C1.6399 12.9775 1.68977 13.0733 1.77156 13.1431C1.84537 13.2049 1.93514 13.2369 2.03089 13.2369C2.04286 13.2369 2.05483 13.2369 2.0668 13.2349C2.17252 13.2249 2.27027 13.175 2.34009 13.0932C2.40991 13.0114 2.44382 12.9077 2.43385 12.8C2.41988 12.6963 2.37001 12.5985 2.28822 12.5307ZM2.14659 12.9356C2.12066 12.9676 2.08275 12.9855 2.04086 12.9915C1.99897 12.9955 1.96107 12.9815 1.92915 12.9556C1.89723 12.9297 1.87928 12.8917 1.87529 12.8499C1.86731 12.7641 1.93115 12.6903 2.01692 12.6823C2.05682 12.6783 2.09672 12.6923 2.12864 12.7182C2.16055 12.7441 2.17851 12.782 2.1825 12.8239C2.18449 12.8658 2.17252 12.9057 2.14659 12.9356Z" fill="url(#paint32_linear_629_3551)"/>
<path opacity="0.4" d="M1.64344 10.6752C1.60354 10.6573 1.56165 10.6453 1.51577 10.6413C1.47587 10.6373 1.43597 10.6393 1.39807 10.6493C1.2305 10.6832 1.09685 10.8249 1.08089 11.0044C1.07092 11.1121 1.10283 11.2158 1.17265 11.2976C1.24247 11.3794 1.33822 11.4313 1.44595 11.4413C1.45792 11.4433 1.46988 11.4433 1.48385 11.4433C1.57761 11.4433 1.66737 11.4113 1.74118 11.3495C1.82297 11.2797 1.87284 11.1839 1.88481 11.0762C1.89678 10.9027 1.79704 10.7431 1.64344 10.6752ZM1.5796 11.16C1.54768 11.1859 1.50779 11.1979 1.46589 11.1959C1.424 11.1919 1.3881 11.172 1.36017 11.14C1.33423 11.1081 1.32227 11.0682 1.32426 11.0263C1.33224 10.9465 1.40006 10.8867 1.47786 10.8867C1.48385 10.8867 1.48784 10.8867 1.49183 10.8887C1.57761 10.8967 1.63945 10.9705 1.63147 11.0563C1.62947 11.0982 1.60952 11.1341 1.5796 11.16Z" fill="url(#paint33_linear_629_3551)"/>
</g>
</g>
</g>
<defs>
<linearGradient id="paint0_linear_629_3551" x1="0.000825866" y1="11.9993" x2="23.998" y2="11.9993" gradientUnits="userSpaceOnUse">
<stop stop-color="#B6872D"/>
<stop offset="0.4403" stop-color="#F9C116"/>
<stop offset="1" stop-color="#C3922C"/>
</linearGradient>
<linearGradient id="paint1_linear_629_3551" x1="20.6521" y1="4.74689" x2="3.36084" y2="19.2374" gradientUnits="userSpaceOnUse">
<stop offset="6.37909e-09" stop-color="#393937"/>
<stop offset="1" stop-color="#6E6E6C"/>
</linearGradient>
<linearGradient id="paint2_linear_629_3551" x1="5.2246" y1="0.476643" x2="22.844" y2="21.4717" gradientUnits="userSpaceOnUse">
<stop stop-color="#B6872D"/>
<stop offset="0.4403" stop-color="#F9C116"/>
<stop offset="1" stop-color="#C3922C"/>
</linearGradient>
<linearGradient id="paint3_linear_629_3551" x1="2.95459" y1="2.38172" x2="20.5757" y2="23.3771" gradientUnits="userSpaceOnUse">
<stop stop-color="#B6872D"/>
<stop offset="0.4403" stop-color="#F9C116"/>
<stop offset="1" stop-color="#C3922C"/>
</linearGradient>
<linearGradient id="paint4_linear_629_3551" x1="3.89542" y1="1.59274" x2="21.5166" y2="22.5881" gradientUnits="userSpaceOnUse">
<stop stop-color="#B6872D"/>
<stop offset="0.4403" stop-color="#F9C116"/>
<stop offset="1" stop-color="#C3922C"/>
</linearGradient>
<linearGradient id="paint5_linear_629_3551" x1="0.545979" y1="4.40393" x2="18.1671" y2="25.3993" gradientUnits="userSpaceOnUse">
<stop stop-color="#B6872D"/>
<stop offset="0.4403" stop-color="#F9C116"/>
<stop offset="1" stop-color="#C3922C"/>
</linearGradient>
<linearGradient id="paint6_linear_629_3551" x1="0.918065" y1="4.0918" x2="18.5392" y2="25.0872" gradientUnits="userSpaceOnUse">
<stop stop-color="#B6872D"/>
<stop offset="0.4403" stop-color="#F9C116"/>
<stop offset="1" stop-color="#C3922C"/>
</linearGradient>
<linearGradient id="paint7_linear_629_3551" x1="1.44768" y1="3.64677" x2="19.0688" y2="24.6422" gradientUnits="userSpaceOnUse">
<stop stop-color="#B6872D"/>
<stop offset="0.4403" stop-color="#F9C116"/>
<stop offset="1" stop-color="#C3922C"/>
</linearGradient>
<linearGradient id="paint8_linear_629_3551" x1="2.13191" y1="3.07309" x2="19.753" y2="24.0685" gradientUnits="userSpaceOnUse">
<stop stop-color="#B6872D"/>
<stop offset="0.4403" stop-color="#F9C116"/>
<stop offset="1" stop-color="#C3922C"/>
</linearGradient>
<linearGradient id="paint9_linear_629_3551" x1="5.27" y1="0.437994" x2="22.8911" y2="21.4334" gradientUnits="userSpaceOnUse">
<stop stop-color="#B6872D"/>
<stop offset="0.4403" stop-color="#F9C116"/>
<stop offset="1" stop-color="#C3922C"/>
</linearGradient>
<linearGradient id="paint10_linear_629_3551" x1="3.23255" y1="2.14801" x2="20.8537" y2="23.1434" gradientUnits="userSpaceOnUse">
<stop stop-color="#B6872D"/>
<stop offset="0.4403" stop-color="#F9C116"/>
<stop offset="1" stop-color="#C3922C"/>
</linearGradient>
<linearGradient id="paint11_linear_629_3551" x1="3.52614" y1="1.90198" x2="21.1473" y2="22.8974" gradientUnits="userSpaceOnUse">
<stop stop-color="#B6872D"/>
<stop offset="0.4403" stop-color="#F9C116"/>
<stop offset="1" stop-color="#C3922C"/>
</linearGradient>
<linearGradient id="paint12_linear_629_3551" x1="-2.41521" y1="6.88926" x2="15.2042" y2="27.8843" gradientUnits="userSpaceOnUse">
<stop stop-color="#B6872D"/>
<stop offset="0.4403" stop-color="#F9C116"/>
<stop offset="1" stop-color="#C3922C"/>
</linearGradient>
<linearGradient id="paint13_linear_629_3551" x1="-2.83504" y1="7.2416" x2="14.7845" y2="28.2367" gradientUnits="userSpaceOnUse">
<stop stop-color="#B6872D"/>
<stop offset="0.4403" stop-color="#F9C116"/>
<stop offset="1" stop-color="#C3922C"/>
</linearGradient>
<linearGradient id="paint14_linear_629_3551" x1="-3.04868" y1="7.4208" x2="14.5709" y2="28.4159" gradientUnits="userSpaceOnUse">
<stop stop-color="#B6872D"/>
<stop offset="0.4403" stop-color="#F9C116"/>
<stop offset="1" stop-color="#C3922C"/>
</linearGradient>
<linearGradient id="paint15_linear_629_3551" x1="-3.02402" y1="7.39976" x2="14.5955" y2="28.3949" gradientUnits="userSpaceOnUse">
<stop stop-color="#B6872D"/>
<stop offset="0.4403" stop-color="#F9C116"/>
<stop offset="1" stop-color="#C3922C"/>
</linearGradient>
<linearGradient id="paint16_linear_629_3551" x1="-2.73681" y1="7.15892" x2="14.8827" y2="28.154" gradientUnits="userSpaceOnUse">
<stop stop-color="#B6872D"/>
<stop offset="0.4403" stop-color="#F9C116"/>
<stop offset="1" stop-color="#C3922C"/>
</linearGradient>
<linearGradient id="paint17_linear_629_3551" x1="-2.17482" y1="6.6867" x2="15.4446" y2="27.6818" gradientUnits="userSpaceOnUse">
<stop stop-color="#B6872D"/>
<stop offset="0.4403" stop-color="#F9C116"/>
<stop offset="1" stop-color="#C3922C"/>
</linearGradient>
<linearGradient id="paint18_linear_629_3551" x1="5.2246" y1="0.476643" x2="22.844" y2="21.4717" gradientUnits="userSpaceOnUse">
<stop stop-color="#B6872D"/>
<stop offset="0.4403" stop-color="#F9C116"/>
<stop offset="1" stop-color="#C3922C"/>
</linearGradient>
<linearGradient id="paint19_linear_629_3551" x1="2.95459" y1="2.38172" x2="20.5757" y2="23.3771" gradientUnits="userSpaceOnUse">
<stop stop-color="#B6872D"/>
<stop offset="0.4403" stop-color="#F9C116"/>
<stop offset="1" stop-color="#C3922C"/>
</linearGradient>
<linearGradient id="paint20_linear_629_3551" x1="3.89542" y1="1.59274" x2="21.5166" y2="22.5881" gradientUnits="userSpaceOnUse">
<stop stop-color="#B6872D"/>
<stop offset="0.4403" stop-color="#F9C116"/>
<stop offset="1" stop-color="#C3922C"/>
</linearGradient>
<linearGradient id="paint21_linear_629_3551" x1="0.545979" y1="4.40393" x2="18.1671" y2="25.3993" gradientUnits="userSpaceOnUse">
<stop stop-color="#B6872D"/>
<stop offset="0.4403" stop-color="#F9C116"/>
<stop offset="1" stop-color="#C3922C"/>
</linearGradient>
<linearGradient id="paint22_linear_629_3551" x1="0.918065" y1="4.0918" x2="18.5392" y2="25.0872" gradientUnits="userSpaceOnUse">
<stop stop-color="#B6872D"/>
<stop offset="0.4403" stop-color="#F9C116"/>
<stop offset="1" stop-color="#C3922C"/>
</linearGradient>
<linearGradient id="paint23_linear_629_3551" x1="1.44768" y1="3.64677" x2="19.0688" y2="24.6422" gradientUnits="userSpaceOnUse">
<stop stop-color="#B6872D"/>
<stop offset="0.4403" stop-color="#F9C116"/>
<stop offset="1" stop-color="#C3922C"/>
</linearGradient>
<linearGradient id="paint24_linear_629_3551" x1="2.13191" y1="3.07309" x2="19.753" y2="24.0685" gradientUnits="userSpaceOnUse">
<stop stop-color="#B6872D"/>
<stop offset="0.4403" stop-color="#F9C116"/>
<stop offset="1" stop-color="#C3922C"/>
</linearGradient>
<linearGradient id="paint25_linear_629_3551" x1="5.27" y1="0.437994" x2="22.8911" y2="21.4334" gradientUnits="userSpaceOnUse">
<stop stop-color="#B6872D"/>
<stop offset="0.4403" stop-color="#F9C116"/>
<stop offset="1" stop-color="#C3922C"/>
</linearGradient>
<linearGradient id="paint26_linear_629_3551" x1="3.23255" y1="2.14801" x2="20.8537" y2="23.1434" gradientUnits="userSpaceOnUse">
<stop stop-color="#B6872D"/>
<stop offset="0.4403" stop-color="#F9C116"/>
<stop offset="1" stop-color="#C3922C"/>
</linearGradient>
<linearGradient id="paint27_linear_629_3551" x1="3.52614" y1="1.90198" x2="21.1473" y2="22.8974" gradientUnits="userSpaceOnUse">
<stop stop-color="#B6872D"/>
<stop offset="0.4403" stop-color="#F9C116"/>
<stop offset="1" stop-color="#C3922C"/>
</linearGradient>
<linearGradient id="paint28_linear_629_3551" x1="-2.41521" y1="6.88926" x2="15.2042" y2="27.8843" gradientUnits="userSpaceOnUse">
<stop stop-color="#B6872D"/>
<stop offset="0.4403" stop-color="#F9C116"/>
<stop offset="1" stop-color="#C3922C"/>
</linearGradient>
<linearGradient id="paint29_linear_629_3551" x1="-2.83504" y1="7.2416" x2="14.7845" y2="28.2367" gradientUnits="userSpaceOnUse">
<stop stop-color="#B6872D"/>
<stop offset="0.4403" stop-color="#F9C116"/>
<stop offset="1" stop-color="#C3922C"/>
</linearGradient>
<linearGradient id="paint30_linear_629_3551" x1="-3.04868" y1="7.4208" x2="14.5709" y2="28.4159" gradientUnits="userSpaceOnUse">
<stop stop-color="#B6872D"/>
<stop offset="0.4403" stop-color="#F9C116"/>
<stop offset="1" stop-color="#C3922C"/>
</linearGradient>
<linearGradient id="paint31_linear_629_3551" x1="-3.02402" y1="7.39976" x2="14.5955" y2="28.3949" gradientUnits="userSpaceOnUse">
<stop stop-color="#B6872D"/>
<stop offset="0.4403" stop-color="#F9C116"/>
<stop offset="1" stop-color="#C3922C"/>
</linearGradient>
<linearGradient id="paint32_linear_629_3551" x1="-2.73681" y1="7.15892" x2="14.8827" y2="28.154" gradientUnits="userSpaceOnUse">
<stop stop-color="#B6872D"/>
<stop offset="0.4403" stop-color="#F9C116"/>
<stop offset="1" stop-color="#C3922C"/>
</linearGradient>
<linearGradient id="paint33_linear_629_3551" x1="-2.17482" y1="6.6867" x2="15.4446" y2="27.6818" gradientUnits="userSpaceOnUse">
<stop stop-color="#B6872D"/>
<stop offset="0.4403" stop-color="#F9C116"/>
<stop offset="1" stop-color="#C3922C"/>
</linearGradient>
</defs>
</svg>
