<svg width="33" height="32" viewBox="0 0 33 32" fill="none" xmlns="http://www.w3.org/2000/svg">
<circle cx="16" cy="16" r="16" fill="white"/>
<path fill-rule="evenodd" clip-rule="evenodd" d="M32.0213 16C32.0213 24.8366 24.8532 32 16.0106 32C7.16821 32 0 24.8366 0 16C0 7.16344 7.16821 0 16.0106 0C24.8532 0 32.0213 7.16344 32.0213 16ZM11.4737 22.3672H8.36647C7.71355 22.3672 7.39103 22.3672 7.19439 22.2415C6.98198 22.1039 6.85219 21.8759 6.83646 21.6243C6.82465 21.3925 6.98593 21.1094 7.30844 20.5434L14.9805 7.02924C15.307 6.45537 15.4722 6.16844 15.6806 6.06232C15.9048 5.94834 16.1723 5.94834 16.3965 6.06232C16.605 6.16844 16.7702 6.45537 17.0966 7.02924L18.6738 9.78064L18.6819 9.79468C19.0345 10.4103 19.2133 10.7225 19.2913 11.0502C19.3778 11.4079 19.3778 11.7852 19.2913 12.1429C19.2127 12.4731 19.0357 12.7875 18.6777 13.4125L14.6478 20.5316L14.6374 20.5498C14.2824 21.1706 14.1026 21.4852 13.8533 21.7225C13.5819 21.982 13.2554 22.1705 12.8975 22.2769C12.571 22.3672 12.2053 22.3672 11.4737 22.3672ZM19.3204 22.3672H23.7727C24.4296 22.3672 24.76 22.3672 24.9568 22.2377C25.1691 22.1 25.3028 21.868 25.3147 21.6166C25.326 21.3923 25.1683 21.1202 24.8591 20.5871C24.8485 20.5689 24.8378 20.5505 24.8269 20.5317L22.5968 16.719L22.5714 16.6761C22.258 16.1465 22.0998 15.8791 21.8966 15.7757C21.6726 15.6617 21.4089 15.6617 21.1848 15.7757C20.9802 15.8818 20.8151 16.1609 20.4886 16.723L18.2663 20.5356L18.2587 20.5488C17.9334 21.1099 17.7708 21.3904 17.7826 21.6205C17.7983 21.8721 17.9281 22.1039 18.1405 22.2415C18.3332 22.3672 18.6636 22.3672 19.3204 22.3672Z" fill="#E84142"/>
</svg>
