<svg width="26" height="26" viewBox="0 0 26 26" fill="none" xmlns="http://www.w3.org/2000/svg">
<path fill-rule="evenodd" clip-rule="evenodd" d="M13 26C20.1797 26 26 20.1797 26 13C26 5.8203 20.1797 0 13 0C5.8203 0 0 5.8203 0 13C0 20.1797 5.8203 26 13 26ZM18.9657 10.932L20.3704 9.52737C20.9432 8.95453 20.9432 8.02825 20.3704 7.45846L18.5391 5.62721C17.9663 5.05743 17.04 5.05743 16.4702 5.62721L15.0655 7.03188C14.9223 7.17509 14.9223 7.40666 15.0655 7.54987L18.4477 10.932C18.5909 11.0752 18.8225 11.0752 18.9657 10.932ZM5.85743 16.2399L13.8589 8.23849C14.0021 8.09528 14.2337 8.09528 14.3799 8.23849L17.7621 11.6207C17.9053 11.7639 17.9053 11.9954 17.7621 12.1386L9.76066 20.1401L6.05854 20.7891C5.55883 20.8744 5.1231 20.4417 5.21147 19.942L5.85743 16.2399ZM8.98063 14.951C8.81304 15.1186 8.81304 15.3867 8.98063 15.5543C9.14821 15.7219 9.41635 15.7219 9.58393 15.5543L14.2763 10.862C14.4439 10.6944 14.4439 10.4262 14.2763 10.2586C14.1088 10.0911 13.8406 10.0911 13.673 10.2586L8.98063 14.951ZM9.34322 18.1169H7.88065V16.6543H6.77459L6.43027 18.6196L7.37789 19.5672L9.34322 19.2229V18.1169Z" fill="#F3DEB7"/>
</svg>
