<svg width="16" height="16" viewBox="0 0 16 16" fill="none" xmlns="http://www.w3.org/2000/svg">
<path d="M13.7143 0H2.28571C1.02321 0 0 1.02321 0 2.28571V13.7143C0 14.9764 1.02321 16 2.28571 16H13.7143C14.9768 16 16 14.9764 16 13.7143V2.28571C16 1.02321 14.975 0 13.7143 0ZM11.8036 10.425C11.8036 10.6562 11.6647 10.8643 11.4508 10.9529C11.2373 11.0416 10.9915 10.9923 10.828 10.829L9.21189 9.21289L6.78618 11.6386C6.33975 12.085 5.61761 12.0836 5.17154 11.6371L4.36332 10.8289C3.91786 10.3821 3.91429 9.66072 4.36071 9.18214L6.78643 6.75643L5.17143 5.17143C5.00714 5.00714 4.95714 4.76071 5.04643 4.55C5.13489 4.33629 5.34318 4.19732 5.57429 4.19732H11.2314C11.547 4.19732 11.7707 4.45314 11.7707 4.73661V10.425H11.8036Z" fill="#F3DEB7"/>
</svg>
