<svg width="40" height="40" viewBox="0 0 40 40" fill="none" xmlns="http://www.w3.org/2000/svg">
<path fill-rule="evenodd" clip-rule="evenodd" d="M20 40C31.0457 40 40 31.0457 40 20C40 8.9543 31.0457 0 20 0C8.9543 0 0 8.9543 0 20C0 31.0457 8.9543 40 20 40ZM4.66602 20.0003C4.66602 28.4696 11.5301 35.3337 19.9993 35.3337C28.4686 35.3337 35.3327 28.4696 35.3327 20.0003C35.3327 11.5311 28.4686 4.66699 19.9993 4.66699C11.5301 4.66699 4.66602 11.5311 4.66602 20.0003ZM19.2027 21.1443C18.8014 20.9287 18.5618 20.4795 18.5618 20.0003L18.5079 11.8545C18.5079 11.0579 19.2027 10.417 19.9454 10.417C20.796 10.417 21.4368 11.0579 21.4368 11.8545V19.2337L26.546 22.6357C27.2048 23.079 27.3845 23.9714 26.8934 24.6303C26.504 25.2891 25.6116 25.4688 24.9527 24.9777L19.2027 21.1443Z" fill="#F3DEB7"/>
</svg>
