<svg width="60" height="60" viewBox="0 0 60 60" fill="none" xmlns="http://www.w3.org/2000/svg">
<circle cx="30" cy="30" r="30" fill="#C8902B"/>
<path d="M42.1832 13.6761V29.3701C39.9422 29.3712 37.7711 30.15 36.0404 31.5736C34.3096 32.9972 33.1265 34.9772 32.693 37.1759C32.2595 39.3746 32.6024 41.6555 33.6632 43.6295C34.724 45.6036 36.437 47.1482 38.5097 48H18.6761C18.2316 48 17.8052 47.8234 17.4909 47.5091C17.1766 47.1948 17 46.7684 17 46.3239V13.6761C17 13.2316 17.1766 12.8053 17.4909 12.4909C17.8052 12.1766 18.2316 12 18.6761 12H40.5057C40.7259 11.9998 40.944 12.043 41.1475 12.1272C41.351 12.2113 41.536 12.3348 41.6918 12.4904C41.8475 12.6461 41.9711 12.8309 42.0554 13.0344C42.1398 13.2378 42.1832 13.4559 42.1832 13.6761V13.6761Z" fill="#F1F2F2"/>
<path d="M50.6026 39.0482C50.6004 41.2807 49.7127 43.4211 48.1342 44.9998C46.5558 46.5786 44.4155 47.4666 42.1831 47.4692C42.035 47.4692 41.887 47.4692 41.7403 47.4581C40.0959 47.3717 38.5128 46.8052 37.1871 45.8285C35.8613 44.8518 34.851 43.5078 34.2811 41.9629C33.7112 40.4179 33.6068 38.7398 33.9808 37.1361C34.3548 35.5324 35.1907 34.0736 36.3852 32.9401C37.5797 31.8066 39.0803 31.0482 40.7013 30.7587C42.3223 30.4692 43.9927 30.6613 45.5057 31.3113C47.0186 31.9614 48.3078 33.0407 49.2137 34.4158C50.1196 35.7909 50.6025 37.4015 50.6026 39.0482V39.0482Z" fill="#EAAB21"/>
<path d="M42.1829 45.6506C45.8293 45.6506 48.7853 42.6946 48.7853 39.0481C48.7853 35.4017 45.8293 32.4457 42.1829 32.4457C38.5365 32.4457 35.5806 35.4017 35.5806 39.0481C35.5806 42.6946 38.5365 45.6506 42.1829 45.6506Z" fill="#EAAB21"/>
<path d="M39.4094 40.0902H40.5576C40.5968 40.389 40.7432 40.6635 40.9696 40.8626C41.221 41.1126 41.4613 41.2383 41.6875 41.2383V39.8988C41.4822 39.8443 41.3076 39.7927 41.1624 39.7466C41.0171 39.7005 40.8579 39.6404 40.6847 39.5692C40.5338 39.5082 40.3885 39.4344 40.2503 39.3485C40.1247 39.2656 40.0065 39.1722 39.8969 39.0691C39.7858 38.9678 39.6916 38.8494 39.6176 38.7186C39.5421 38.5788 39.4849 38.43 39.4472 38.2758C39.4028 38.0958 39.3812 37.9109 39.3829 37.7255C39.3829 37.0839 39.5961 36.5764 40.0226 36.203C40.4491 35.8296 41.0157 35.6252 41.7224 35.5898V34.7015H42.777V35.6792C42.939 35.7351 43.1625 35.8273 43.4474 35.9586L43.5214 35.8831L43.6471 35.7588H44.3762L44.4181 35.7672L44.4545 35.777L44.467 35.7882L44.4782 35.7993C44.4791 35.8025 44.4791 35.8059 44.4782 35.8091V37.7897L44.4503 37.8176L43.8916 37.8358H43.7743H43.6346C43.5997 37.8358 43.5424 37.8358 43.4614 37.826L43.4153 37.7799C43.3343 37.4666 43.1611 37.1849 42.9181 36.9712C42.907 36.9565 42.8929 36.9443 42.8768 36.9354C42.8606 36.9265 42.8428 36.9211 42.8245 36.9195C42.791 36.9195 42.7742 36.9293 42.7742 36.9475V38.0076C43.0052 38.0684 43.2327 38.1416 43.4558 38.2269C43.6622 38.3076 43.8605 38.4077 44.048 38.5258C44.2311 38.6379 44.3963 38.7768 44.5383 38.9378C44.6767 39.1018 44.7859 39.2885 44.8609 39.4896C44.9494 39.7188 44.9967 39.9618 45.0006 40.2075C45.0134 40.593 44.9165 40.9741 44.7212 41.3067C44.5249 41.6441 44.2443 41.9247 43.9069 42.121C43.5653 42.3229 43.179 42.4371 42.7826 42.4535V43.3879H41.7085V42.392C41.306 42.3144 40.9141 42.1897 40.5408 42.0205L40.3369 42.3082H39.4304L39.4094 40.0902ZM41.1763 37.1374C41.1759 37.204 41.1887 37.2699 41.2139 37.3315C41.239 37.3931 41.2761 37.4491 41.323 37.4964C41.4265 37.6022 41.5601 37.6734 41.7057 37.7003V36.7226C41.5739 36.7154 41.444 36.7572 41.3411 36.8399C41.2921 36.873 41.2516 36.9172 41.223 36.9689C41.1943 37.0206 41.1783 37.0783 41.1763 37.1374ZM43.2267 40.769C43.2417 40.6361 43.2085 40.5023 43.1332 40.3919C43.0913 40.3302 43.0362 40.2787 42.972 40.241C42.9077 40.2033 42.8358 40.1804 42.7616 40.174V41.1964C42.8819 41.1929 42.9961 41.1428 43.0801 41.0567C43.1233 41.0217 43.1586 40.978 43.1839 40.9284C43.2092 40.8788 43.2237 40.8245 43.2267 40.769V40.769Z" fill="#C8902B"/>
<path d="M42.1831 31.8171C40.7529 31.8171 39.3549 32.2412 38.1658 33.0358C36.9767 33.8303 36.0499 34.9597 35.5026 36.281C34.9553 37.6023 34.8121 39.0562 35.0911 40.4588C35.3701 41.8615 36.0588 43.15 37.07 44.1612C38.0813 45.1725 39.3697 45.8612 40.7724 46.1402C42.175 46.4192 43.6289 46.276 44.9502 45.7287C46.2715 45.1814 47.4008 44.2546 48.1953 43.0655C48.9899 41.8763 49.414 40.4783 49.414 39.0481C49.4117 37.131 48.6492 35.2931 47.2936 33.9375C45.9381 32.5819 44.1001 31.8194 42.1831 31.8171V31.8171ZM42.1831 45.0221C41.0015 45.0221 39.8466 44.6717 38.8642 44.0153C37.8818 43.3589 37.1161 42.4259 36.6639 41.3343C36.2118 40.2427 36.0935 39.0415 36.324 37.8827C36.5545 36.7239 37.1235 35.6594 37.9589 34.8239C38.7944 33.9885 39.8588 33.4195 41.0176 33.189C42.1764 32.9585 43.3776 33.0768 44.4691 33.529C45.5607 33.9811 46.4937 34.7468 47.1501 35.7292C47.8065 36.7116 48.1569 37.8666 48.1569 39.0481C48.1573 40.6333 47.5282 42.1537 46.408 43.2752C45.2878 44.3967 43.7682 45.0276 42.1831 45.0291V45.0221Z" fill="#C8902B"/>
<path d="M38.923 15.3634H20.2612V16.7979H38.923V15.3634Z" fill="#808285"/>
<path d="M38.923 19.1542H20.2612V20.5886H38.923V19.1542Z" fill="#808285"/>
<path d="M38.923 22.9436H20.2612V24.3781H38.923V22.9436Z" fill="#808285"/>
<path d="M38.923 26.7344H20.2612V28.1688H38.923V26.7344Z" fill="#808285"/>
</svg>
