<svg width="19" height="17" viewBox="0 0 19 17" fill="none" xmlns="http://www.w3.org/2000/svg">
<path d="M18.0115 10.6604C17.5956 10.0959 16.8025 9.97384 16.2386 10.392L12.4442 13.1869H8.62124C8.34393 13.1869 8.14258 12.9571 8.14258 12.68C8.14258 12.4027 8.3724 12.1728 8.62124 12.1728H11.1017C11.5804 12.1728 12.0765 11.828 12.1595 11.329C12.2625 10.695 11.7753 10.1441 11.1572 10.1441H6.05772C5.23037 10.1441 4.37386 10.4373 3.70817 10.9762L2.23416 12.1725L0.478658 12.144C0.229851 12.144 0 12.4039 0 12.6797V15.7222C0 16.0018 0.229851 16.23 0.478658 16.23H11.4498C12.1481 16.23 12.842 16.0021 13.4056 15.5875L17.6882 12.4328C18.3063 12.0172 18.4268 11.2247 18.0115 10.6604ZM8.85359 5.54736C8.61268 5.51249 8.29569 5.39838 8.01673 5.29694L7.86141 5.24305C7.46517 5.07504 7.03089 5.30962 6.89141 5.67733C6.75193 6.04504 6.95864 6.50785 7.3539 6.64859L7.50146 6.70109C7.77046 6.79812 8.06824 6.89429 8.3697 6.96457V7.35422C8.3697 7.77423 8.70984 8.115 9.12985 8.115C9.54987 8.115 9.89063 7.77423 9.89063 7.35422V7.02455C10.6917 6.84313 11.2499 6.33192 11.352 5.57526C11.6274 3.98871 10.1192 3.55729 9.3099 3.3262L9.14205 3.26819C8.30837 3.03171 8.35591 2.92964 8.3781 2.79936C8.41475 2.58488 8.8631 2.48046 9.39914 2.56507C9.55567 2.58984 9.75956 2.64581 10.022 2.73694C10.4192 2.87265 10.8529 2.66365 10.9895 2.26653C11.1261 1.8694 10.9163 1.43632 10.5191 1.29875C10.2781 1.21547 10.0778 1.1606 9.89079 1.1174V0.760781C9.89079 0.340767 9.55002 0 9.13001 0C8.70999 0 8.36986 0.340767 8.36986 0.760781V1.09426C7.56977 1.27526 7.0087 1.78308 6.8502 2.54006C6.60612 4.10822 8.13719 4.55835 8.71412 4.72952L8.9201 4.78896C9.92369 5.07622 9.90753 5.16586 9.88185 5.31643C9.84578 5.53151 9.39882 5.63612 8.85359 5.54736Z" fill="#292630"/>
</svg>
