<svg width="16" height="16" viewBox="0 0 16 16" fill="none" xmlns="http://www.w3.org/2000/svg">
<path d="M7.83594 15.6719C12.125 15.6719 15.6719 12.125 15.6719 7.83596C15.6719 3.53906 12.125 0 7.82812 0C3.53906 0 0 3.53906 0 7.83596C0 12.125 3.54687 15.6719 7.83594 15.6719ZM7.83594 14.6563C4.05468 14.6563 1.01562 11.6094 1.01562 7.83596C1.01562 4.05468 4.05468 1.00781 7.82812 1.00781C11.6094 1.00781 14.6563 4.05468 14.6641 7.83596C14.6641 11.6094 11.6172 14.6563 7.83594 14.6563ZM7.78906 4.89062C8.27344 4.89062 8.64846 4.51562 8.64846 4.03906C8.64846 3.5625 8.27344 3.17968 7.78906 3.17968C7.3125 3.17968 6.92968 3.5625 6.92968 4.03906C6.92968 4.51562 7.3125 4.89062 7.78906 4.89062ZM6.4375 12.1016H9.64066C9.89066 12.1016 10.086 11.9141 10.086 11.6719C10.086 11.4297 9.89066 11.2344 9.64066 11.2344H8.51562V6.85937C8.51562 6.53906 8.35156 6.32031 8.04687 6.32031H6.53906C6.28906 6.32031 6.09375 6.51562 6.09375 6.75C6.09375 7 6.28906 7.1875 6.53906 7.1875H7.5625V11.2344H6.4375C6.1875 11.2344 5.99218 11.4297 5.99218 11.6719C5.99218 11.9141 6.1875 12.1016 6.4375 12.1016Z" fill="#FFBB00"/>
</svg>
