<svg width="36" height="36" viewBox="0 0 36 36" fill="none" xmlns="http://www.w3.org/2000/svg">
<rect opacity="0.3" width="36" height="36" rx="18" fill="url(#paint0_linear_902_4397)"/>
<path d="M10 22.6656V24C10 25.1031 12.6875 26 16 26C19.3125 26 22 25.1031 22 24V22.6656C20.7094 23.575 18.35 24 16 24C13.65 24 11.2906 23.575 10 22.6656ZM20 14C23.3125 14 26 13.1031 26 12C26 10.8969 23.3125 10 20 10C16.6875 10 14 10.8969 14 12C14 13.1031 16.6875 14 20 14ZM10 19.3875V21C10 22.1031 12.6875 23 16 23C19.3125 23 22 22.1031 22 21V19.3875C20.7094 20.45 18.3469 21 16 21C13.6531 21 11.2906 20.45 10 19.3875ZM23 19.7312C24.7906 19.3844 26 18.7406 26 18V16.6656C25.275 17.1781 24.2094 17.5281 23 17.7437V19.7312ZM16 15C12.6875 15 10 16.1187 10 17.5C10 18.8812 12.6875 20 16 20C19.3125 20 22 18.8812 22 17.5C22 16.1187 19.3125 15 16 15ZM22.8531 16.7594C24.7281 16.4219 26 15.7594 26 15V13.6656C24.8906 14.45 22.9844 14.8719 20.9781 14.9719C21.9 15.4187 22.5781 16.0187 22.8531 16.7594Z" fill="#D4D4D4"/>
<defs>
<linearGradient id="paint0_linear_902_4397" x1="0" y1="0" x2="39.1233" y2="3.44689" gradientUnits="userSpaceOnUse">
<stop stop-color="#FAFF00"/>
<stop offset="1" stop-color="#FFE600"/>
</linearGradient>
</defs>
</svg>
