<svg width="36" height="36" viewBox="0 0 36 36" fill="none" xmlns="http://www.w3.org/2000/svg">
<rect opacity="0.3" width="36" height="36" rx="18" fill="#F3DEB7"/>
<path d="M28.7109 25.1558L24.622 21.067C24.4375 20.8824 24.1873 20.7799 23.9248 20.7799H23.2563C24.3882 19.3322 25.0608 17.5113 25.0608 15.5304C25.0608 10.8182 21.2427 7 16.5304 7C11.8182 7 8 10.8182 8 15.5304C8 20.2427 11.8182 24.0608 16.5304 24.0608C18.5113 24.0608 20.3322 23.3882 21.7799 22.2563V22.9248C21.7799 23.1873 21.8824 23.4375 22.067 23.622L26.1558 27.7109C26.5414 28.0964 27.1647 28.0964 27.5461 27.7109L28.7068 26.5502C29.0923 26.1647 29.0923 25.5414 28.7109 25.1558ZM16.5304 20.7799C13.6309 20.7799 11.2809 18.434 11.2809 15.5304C11.2809 12.6309 13.6268 10.2809 16.5304 10.2809C19.4299 10.2809 21.7799 12.6268 21.7799 15.5304C21.7799 18.4299 19.434 20.7799 16.5304 20.7799Z" fill="#D4D4D4"/>
<rect x="12.7163" y="14.8333" width="2.00957" height="2.91182" fill="#D4D4D4"/>
<rect x="15.5461" y="12.3315" width="2.00957" height="5.41353" fill="#D4D4D4"/>
<rect x="18.376" y="13.6029" width="2.00957" height="4.14217" fill="#D4D4D4"/>
</svg>
