<svg width="36" height="36" viewBox="0 0 36 36" fill="none" xmlns="http://www.w3.org/2000/svg">
<rect opacity="0.3" width="36" height="36" rx="18" fill="url(#paint0_linear_902_4317)"/>
<path d="M28.3438 23.3333H10.625V10.6667C10.625 10.2983 10.3313 10 9.96875 10H8.65625C8.29367 10 8 10.2983 8 10.6667V24.6667C8 25.4029 8.58775 26 9.3125 26H28.3438C28.7063 26 29 25.7017 29 25.3333V24C29 23.6317 28.7063 23.3333 28.3438 23.3333ZM27.0312 11.3333H22.1889C21.312 11.3333 20.8728 12.4104 21.4929 13.0404L22.8218 14.3904L19.8125 17.4479L16.8032 14.3908C16.2905 13.87 15.4595 13.87 14.9472 14.3908L12.1299 17.2529C11.8735 17.5133 11.8735 17.9354 12.1299 18.1958L13.0576 19.1383C13.314 19.3988 13.7295 19.3988 13.9858 19.1383L15.875 17.2188L18.8843 20.2758C19.397 20.7967 20.228 20.7967 20.7403 20.2758L24.6778 16.2758L26.0067 17.6258C26.6268 18.2558 27.6871 17.8096 27.6871 16.9188V12C27.6875 11.6317 27.3938 11.3333 27.0312 11.3333Z" fill="#D4D4D4"/>
<defs>
<linearGradient id="paint0_linear_902_4317" x1="0" y1="0" x2="39.1233" y2="3.44689" gradientUnits="userSpaceOnUse">
<stop stop-color="#00FFA3"/>
<stop offset="1" stop-color="#02EF53"/>
</linearGradient>
</defs>
</svg>
