<svg width="142" height="39" viewBox="0 0 142 39" fill="none" xmlns="http://www.w3.org/2000/svg">
<g clip-path="url(#clip0_935_101)">
<path d="M67.2433 26.0346L66.4974 26.0863C66.0711 26.0863 65.7869 25.9313 65.6271 25.6214C65.4672 25.3114 65.3251 24.6571 65.2008 23.6412C64.739 17.9936 64.5081 14.4982 64.5081 13.1896C64.5081 12.7591 64.668 12.4492 64.9877 12.2253C65.3074 12.0187 65.8402 11.8637 66.6039 11.7777L66.7283 10.8306L66.675 10.7273L63.8154 10.8823C63.4957 10.8823 62.9096 10.8651 62.0748 10.8306C60.4053 15.7207 58.8779 19.9392 57.4925 23.5035H57.3682C55.894 19.6982 54.402 15.4452 52.8924 10.779L51.0985 10.8823C50.5301 10.8823 49.571 10.8479 48.2212 10.7445L48.0081 11.6399L48.0791 11.7777C48.8961 11.8293 49.4822 11.9671 49.8374 12.1909C50.1927 12.4147 50.3703 12.7591 50.3703 13.2585C50.3703 13.7406 49.9795 17.4081 49.2158 24.2611C49.1448 24.9498 48.9849 25.432 48.7363 25.7075C48.4876 25.983 48.0791 26.1724 47.5285 26.224L47.4042 27.4121C48.2922 27.2743 49.1092 27.2055 49.8907 27.2055C50.3348 27.2055 51.1162 27.2399 52.2352 27.3088L52.4661 26.1551L52.4128 26.0518L51.3294 26.0863C50.7788 26.0863 50.5124 25.8452 50.5124 25.3631C50.5124 24.881 50.8143 21.0585 51.4182 13.8955H51.5603L56.6932 27.7048L57.3326 27.5326L62.4301 13.8955H62.5544L63.4602 24.9671C63.4602 25.7075 62.9451 26.1379 61.8972 26.2412L61.7907 27.4293L64.5436 27.2227C65.183 27.2227 66.0178 27.2399 67.048 27.2916L67.2789 26.1379L67.2433 26.0346Z" fill="#E7CEA2"/>
<path d="M83.7435 12.7745C82.3581 11.3109 80.4932 10.5705 78.1665 10.5705C75.8398 10.5705 73.8328 11.4487 72.1632 13.1877C70.4937 14.9268 69.6589 17.0275 69.6589 19.4553C69.6589 21.8831 70.3339 23.846 71.7015 25.3096C73.0513 26.7732 74.8274 27.5136 76.9943 27.5136C79.4986 27.5136 81.5944 26.6354 83.2994 24.8964C85.0045 23.1573 85.857 21.0566 85.857 18.6288C85.8393 16.201 85.1466 14.2381 83.7435 12.7745ZM81.8963 24.3454C80.8484 25.5851 79.463 26.205 77.758 26.205C76.0529 26.205 74.6676 25.5162 73.5664 24.1215C72.4652 22.744 71.9324 21.005 71.9324 18.9215C71.9324 16.8381 72.4474 15.1851 73.4598 13.9454C74.4899 12.7228 75.8398 12.103 77.5626 12.103C79.2677 12.103 80.6886 12.7917 81.8075 14.1864C82.9265 15.5811 83.4771 17.303 83.4771 19.3864C83.4771 21.4699 82.962 23.1056 81.8963 24.3454Z" fill="#E7CEA2"/>
<path d="M98.1299 24.948C97.5616 25.6368 96.8334 25.9811 95.9098 25.9983L90.5459 26.1705C93.9916 20.9017 97.384 16.0977 100.759 11.7586L100.474 11.0182L93.6541 10.846L89.0185 10.5705L88.7521 10.7944C88.7166 12.3613 88.5567 14.0315 88.2725 15.7877L89.5158 15.6844C89.6579 14.393 89.9776 13.4805 90.4927 12.9811C91.0077 12.4818 91.8603 12.2063 93.0858 12.1546L97.6682 11.9997L87.8107 26.4632L88.1837 27.2897L90.0309 27.1348L99.6041 27.2897L99.9949 26.8765C100.084 25.2407 100.297 23.4844 100.652 21.6248L99.4087 21.7454C99.1246 23.1917 98.6983 24.2593 98.1299 24.948Z" fill="#E7CEA2"/>
<path d="M117.489 26.1362C116.708 26.0673 116.157 25.9124 115.802 25.6541C115.447 25.3958 115.163 24.9481 114.95 24.3283C113.635 20.4885 112.232 15.9084 110.74 10.5879H110.527L108.858 11.0183L103.707 24.1216C103.423 24.8276 103.138 25.3097 102.837 25.6024C102.535 25.8779 102.144 26.0501 101.647 26.1018L101.433 27.3071L104.346 27.2382C105.501 27.2382 106.726 27.2898 108.023 27.4104L108.183 26.3084L108.129 26.2051H106.62C105.572 26.2051 105.039 25.8607 105.039 25.1548C105.039 24.9481 105.11 24.621 105.27 24.1561L106.247 21.4872L106.726 20.2302L109.23 13.3773H109.408L111.504 20.0925L111.877 21.2978L112.747 24.0872C112.907 24.5693 112.978 24.9653 112.978 25.2925C112.978 25.6196 112.818 25.8435 112.481 25.9812C112.143 26.119 111.539 26.2223 110.634 26.2912L110.527 27.2898L110.598 27.462C112.001 27.2898 113.173 27.2038 114.079 27.2038C114.985 27.2038 116.069 27.221 117.347 27.2726L117.525 26.2223L117.489 26.1362Z" fill="#E7CEA2"/>
<path d="M125.393 25.999L123.99 26.0851C123.528 26.0851 123.226 25.9646 123.066 25.7408C122.906 25.5169 122.835 25.0348 122.835 24.3461C122.835 21.9183 122.96 18.2335 123.208 13.2745C123.244 12.7752 123.386 12.4308 123.635 12.2414C123.883 12.052 124.381 11.8971 125.109 11.811L125.215 10.6573C123.759 10.8123 122.658 10.8812 121.912 10.8812C121.361 10.8812 120.402 10.8467 119.035 10.8123L118.857 11.9315L118.91 12.0348L120.029 11.9831C120.42 11.9831 120.669 12.0865 120.811 12.2586C120.935 12.448 121.006 12.8096 121.006 13.3606L120.988 24.1222C120.988 24.8454 120.846 25.3447 120.544 25.6547C120.26 25.9474 119.692 26.1885 118.875 26.3262L118.715 27.4971C119.94 27.2904 121.077 27.1871 122.107 27.1871C122.729 27.1871 123.777 27.2043 125.251 27.256L125.482 26.0679L125.393 25.999Z" fill="#E7CEA2"/>
<path d="M140.739 22.1766C140.401 23.5541 139.868 24.5872 139.14 25.2415C138.412 25.8958 137.435 26.223 136.245 26.223C134.416 26.223 132.942 25.5342 131.84 24.174C130.739 22.8137 130.189 21.0574 130.189 18.9051C130.189 16.77 130.721 15.0826 131.769 13.8773C132.817 12.672 134.238 12.0693 136.014 12.0693C138.607 12.0693 139.904 12.8614 139.904 14.4455C139.904 14.8243 139.886 15.2376 139.833 15.7025L141.094 15.5991C141.2 14.0323 141.414 12.6031 141.751 11.3117L141.644 11.1568C139.886 10.7435 138.341 10.5369 137.044 10.5369C134.38 10.5369 132.178 11.3978 130.437 13.1025C128.697 14.8071 127.826 16.925 127.826 19.4389C127.826 21.9528 128.537 23.9157 129.975 25.3448C131.396 26.774 133.243 27.4799 135.499 27.4799C137.755 27.4799 139.637 27.1356 141.165 26.4468L141.325 26.223C141.449 24.9833 141.68 23.6058 142.035 22.0389L140.739 22.1766Z" fill="#E7CEA2"/>
<path d="M20.1056 38.9828C31.2096 38.9828 40.2111 30.2562 40.2111 19.4914C40.2111 8.72662 31.2096 3.05176e-05 20.1056 3.05176e-05C9.00157 3.05176e-05 0 8.72662 0 19.4914C0 30.2562 9.00157 38.9828 20.1056 38.9828Z" fill="#FFE5AA"/>
<path d="M20.1056 38.9828C31.2096 38.9828 40.2111 30.2562 40.2111 19.4914C40.2111 8.72662 31.2096 3.05176e-05 20.1056 3.05176e-05C9.00157 3.05176e-05 0 8.72662 0 19.4914C0 30.2562 9.00157 38.9828 20.1056 38.9828Z" fill="url(#paint0_linear_935_101)"/>
<path d="M20.1056 38.9828C31.2096 38.9828 40.2111 30.2562 40.2111 19.4914C40.2111 8.72662 31.2096 3.05176e-05 20.1056 3.05176e-05C9.00157 3.05176e-05 0 8.72662 0 19.4914C0 30.2562 9.00157 38.9828 20.1056 38.9828Z" fill="url(#paint1_linear_935_101)"/>
<path d="M20.1056 38.9828C31.2096 38.9828 40.2111 30.2562 40.2111 19.4914C40.2111 8.72662 31.2096 3.05176e-05 20.1056 3.05176e-05C9.00157 3.05176e-05 0 8.72662 0 19.4914C0 30.2562 9.00157 38.9828 20.1056 38.9828Z" fill="url(#paint2_linear_935_101)"/>
<path d="M11.3316 27.9478C11.2073 27.8273 11.0297 27.7584 10.852 27.7584C10.7455 27.7584 10.6567 27.7756 10.5679 27.8273C10.4968 27.8617 10.4435 27.8962 10.3903 27.9478C10.337 27.9995 10.3015 28.0511 10.2659 28.1028C10.2126 28.1889 10.1771 28.3094 10.1771 28.4127C10.1771 28.5849 10.2482 28.7571 10.3725 28.8776C10.4968 28.9982 10.6744 29.067 10.852 29.067C11.0297 29.067 11.2073 28.9982 11.3316 28.8776C11.4559 28.7571 11.527 28.5849 11.527 28.4127C11.527 28.2405 11.4559 28.0684 11.3316 27.9478ZM11.0297 28.5849C10.9764 28.6366 10.9231 28.6538 10.852 28.6538C10.781 28.6538 10.71 28.6366 10.6744 28.5849C10.6212 28.5333 10.6034 28.4816 10.6034 28.4127C10.6034 28.3439 10.6212 28.275 10.6744 28.2405C10.7277 28.1889 10.781 28.1717 10.852 28.1717C10.9231 28.1717 10.9941 28.1889 11.0297 28.2405C11.0829 28.2922 11.1007 28.3439 11.1007 28.4127C11.1185 28.4816 11.0829 28.5505 11.0297 28.5849Z" fill="url(#paint3_linear_935_101)"/>
<path d="M11.3316 27.9478C11.2073 27.8273 11.0297 27.7584 10.852 27.7584C10.7455 27.7584 10.6567 27.7756 10.5679 27.8273C10.4968 27.8617 10.4435 27.8962 10.3903 27.9478C10.337 27.9995 10.3015 28.0511 10.2659 28.1028C10.2126 28.1889 10.1771 28.3094 10.1771 28.4127C10.1771 28.5849 10.2482 28.7571 10.3725 28.8776C10.4968 28.9982 10.6744 29.067 10.852 29.067C11.0297 29.067 11.2073 28.9982 11.3316 28.8776C11.4559 28.7571 11.527 28.5849 11.527 28.4127C11.527 28.2405 11.4559 28.0684 11.3316 27.9478ZM11.0297 28.5849C10.9764 28.6366 10.9231 28.6538 10.852 28.6538C10.781 28.6538 10.71 28.6366 10.6744 28.5849C10.6212 28.5333 10.6034 28.4816 10.6034 28.4127C10.6034 28.3439 10.6212 28.275 10.6744 28.2405C10.7277 28.1889 10.781 28.1717 10.852 28.1717C10.9231 28.1717 10.9941 28.1889 11.0297 28.2405C11.0829 28.2922 11.1007 28.3439 11.1007 28.4127C11.1185 28.4816 11.0829 28.5505 11.0297 28.5849Z" fill="url(#paint4_radial_935_101)" style="mix-blend-mode:overlay"/>
<path d="M11.3316 27.9478C11.2073 27.8273 11.0297 27.7584 10.852 27.7584C10.7455 27.7584 10.6567 27.7756 10.5679 27.8273C10.4968 27.8617 10.4435 27.8962 10.3903 27.9478C10.337 27.9995 10.3015 28.0511 10.2659 28.1028C10.2126 28.1889 10.1771 28.3094 10.1771 28.4127C10.1771 28.5849 10.2482 28.7571 10.3725 28.8776C10.4968 28.9982 10.6744 29.067 10.852 29.067C11.0297 29.067 11.2073 28.9982 11.3316 28.8776C11.4559 28.7571 11.527 28.5849 11.527 28.4127C11.527 28.2405 11.4559 28.0684 11.3316 27.9478ZM11.0297 28.5849C10.9764 28.6366 10.9231 28.6538 10.852 28.6538C10.781 28.6538 10.71 28.6366 10.6744 28.5849C10.6212 28.5333 10.6034 28.4816 10.6034 28.4127C10.6034 28.3439 10.6212 28.275 10.6744 28.2405C10.7277 28.1889 10.781 28.1717 10.852 28.1717C10.9231 28.1717 10.9941 28.1889 11.0297 28.2405C11.0829 28.2922 11.1007 28.3439 11.1007 28.4127C11.1185 28.4816 11.0829 28.5505 11.0297 28.5849Z" fill="#F0D7AB" style="mix-blend-mode:color"/>
<path d="M5.45281 23.2468C5.39953 23.0746 5.29296 22.9369 5.13311 22.8508C5.04431 22.7991 4.93774 22.7647 4.84893 22.7647C4.77789 22.7647 4.70685 22.7647 4.6358 22.7819C4.56476 22.7991 4.51147 22.8164 4.45819 22.8508C4.36939 22.9025 4.28058 22.9886 4.2273 23.0746C4.13849 23.2296 4.12073 23.4018 4.15625 23.574C4.2273 23.8667 4.51147 24.0561 4.81341 24.0561C4.8667 24.0561 4.93774 24.0561 4.99102 24.0389C5.32848 23.9528 5.54162 23.6084 5.45281 23.2468ZM4.8667 23.6601C4.79565 23.6773 4.72461 23.6601 4.67132 23.6256C4.61804 23.5912 4.56476 23.5395 4.547 23.4707C4.52923 23.4018 4.547 23.3329 4.56476 23.2813C4.60028 23.2296 4.65356 23.178 4.72461 23.1607C4.74237 23.1607 4.76013 23.1435 4.79565 23.1435C4.91998 23.1435 5.00878 23.2124 5.04431 23.3329C5.07983 23.4879 5.00878 23.6256 4.8667 23.6601Z" fill="url(#paint5_linear_935_101)"/>
<path d="M5.45281 23.2468C5.39953 23.0746 5.29296 22.9369 5.13311 22.8508C5.04431 22.7991 4.93774 22.7647 4.84893 22.7647C4.77789 22.7647 4.70685 22.7647 4.6358 22.7819C4.56476 22.7991 4.51147 22.8164 4.45819 22.8508C4.36939 22.9025 4.28058 22.9886 4.2273 23.0746C4.13849 23.2296 4.12073 23.4018 4.15625 23.574C4.2273 23.8667 4.51147 24.0561 4.81341 24.0561C4.8667 24.0561 4.93774 24.0561 4.99102 24.0389C5.32848 23.9528 5.54162 23.6084 5.45281 23.2468ZM4.8667 23.6601C4.79565 23.6773 4.72461 23.6601 4.67132 23.6256C4.61804 23.5912 4.56476 23.5395 4.547 23.4707C4.52923 23.4018 4.547 23.3329 4.56476 23.2813C4.60028 23.2296 4.65356 23.178 4.72461 23.1607C4.74237 23.1607 4.76013 23.1435 4.79565 23.1435C4.91998 23.1435 5.00878 23.2124 5.04431 23.3329C5.07983 23.4879 5.00878 23.6256 4.8667 23.6601Z" fill="url(#paint6_radial_935_101)" style="mix-blend-mode:overlay"/>
<path d="M5.45281 23.2468C5.39953 23.0746 5.29296 22.9369 5.13311 22.8508C5.04431 22.7991 4.93774 22.7647 4.84893 22.7647C4.77789 22.7647 4.70685 22.7647 4.6358 22.7819C4.56476 22.7991 4.51147 22.8164 4.45819 22.8508C4.36939 22.9025 4.28058 22.9886 4.2273 23.0746C4.13849 23.2296 4.12073 23.4018 4.15625 23.574C4.2273 23.8667 4.51147 24.0561 4.81341 24.0561C4.8667 24.0561 4.93774 24.0561 4.99102 24.0389C5.32848 23.9528 5.54162 23.6084 5.45281 23.2468ZM4.8667 23.6601C4.79565 23.6773 4.72461 23.6601 4.67132 23.6256C4.61804 23.5912 4.56476 23.5395 4.547 23.4707C4.52923 23.4018 4.547 23.3329 4.56476 23.2813C4.60028 23.2296 4.65356 23.178 4.72461 23.1607C4.74237 23.1607 4.76013 23.1435 4.79565 23.1435C4.91998 23.1435 5.00878 23.2124 5.04431 23.3329C5.07983 23.4879 5.00878 23.6256 4.8667 23.6601Z" fill="#F0D7AB" style="mix-blend-mode:color"/>
<path d="M3.8363 20.3543C3.74749 20.2854 3.65868 20.251 3.56988 20.2166C3.49883 20.1993 3.42779 20.1821 3.33898 20.1993C3.26794 20.1993 3.21466 20.2165 3.14361 20.2338C2.89496 20.3371 2.71735 20.5781 2.71735 20.8364C2.71735 20.8536 2.71735 20.8709 2.71735 20.8881C2.73511 21.0603 2.82391 21.2152 2.94824 21.3358C3.07257 21.4391 3.21466 21.4907 3.37451 21.4907C3.39227 21.4907 3.41003 21.4907 3.42779 21.4907C3.6054 21.4735 3.76525 21.3874 3.88958 21.2669C4.01391 21.1291 4.06719 20.9569 4.04943 20.7848C4.04943 20.6298 3.96062 20.4748 3.8363 20.3543ZM3.58764 21.0258C3.55212 21.0775 3.48107 21.1119 3.41003 21.1119C3.33899 21.1119 3.26794 21.0947 3.21466 21.0603C3.16137 21.0258 3.12585 20.9569 3.12585 20.8881C3.10809 20.7503 3.21466 20.6298 3.35675 20.6126C3.42779 20.6126 3.49883 20.6298 3.55212 20.6642C3.6054 20.6987 3.64092 20.7675 3.64092 20.8364C3.65868 20.9053 3.64092 20.9742 3.58764 21.0258Z" fill="url(#paint7_linear_935_101)"/>
<path d="M3.8363 20.3543C3.74749 20.2854 3.65868 20.251 3.56988 20.2166C3.49883 20.1993 3.42779 20.1821 3.33898 20.1993C3.26794 20.1993 3.21466 20.2165 3.14361 20.2338C2.89496 20.3371 2.71735 20.5781 2.71735 20.8364C2.71735 20.8536 2.71735 20.8709 2.71735 20.8881C2.73511 21.0603 2.82391 21.2152 2.94824 21.3358C3.07257 21.4391 3.21466 21.4907 3.37451 21.4907C3.39227 21.4907 3.41003 21.4907 3.42779 21.4907C3.6054 21.4735 3.76525 21.3874 3.88958 21.2669C4.01391 21.1291 4.06719 20.9569 4.04943 20.7848C4.04943 20.6298 3.96062 20.4748 3.8363 20.3543ZM3.58764 21.0258C3.55212 21.0775 3.48107 21.1119 3.41003 21.1119C3.33899 21.1119 3.26794 21.0947 3.21466 21.0603C3.16137 21.0258 3.12585 20.9569 3.12585 20.8881C3.10809 20.7503 3.21466 20.6298 3.35675 20.6126C3.42779 20.6126 3.49883 20.6298 3.55212 20.6642C3.6054 20.6987 3.64092 20.7675 3.64092 20.8364C3.65868 20.9053 3.64092 20.9742 3.58764 21.0258Z" fill="url(#paint8_radial_935_101)" style="mix-blend-mode:overlay"/>
<path d="M3.8363 20.3543C3.74749 20.2854 3.65868 20.251 3.56988 20.2166C3.49883 20.1993 3.42779 20.1821 3.33898 20.1993C3.26794 20.1993 3.21466 20.2165 3.14361 20.2338C2.89496 20.3371 2.71735 20.5781 2.71735 20.8364C2.71735 20.8536 2.71735 20.8709 2.71735 20.8881C2.73511 21.0603 2.82391 21.2152 2.94824 21.3358C3.07257 21.4391 3.21466 21.4907 3.37451 21.4907C3.39227 21.4907 3.41003 21.4907 3.42779 21.4907C3.6054 21.4735 3.76525 21.3874 3.88958 21.2669C4.01391 21.1291 4.06719 20.9569 4.04943 20.7848C4.04943 20.6298 3.96062 20.4748 3.8363 20.3543ZM3.58764 21.0258C3.55212 21.0775 3.48107 21.1119 3.41003 21.1119C3.33899 21.1119 3.26794 21.0947 3.21466 21.0603C3.16137 21.0258 3.12585 20.9569 3.12585 20.8881C3.10809 20.7503 3.21466 20.6298 3.35675 20.6126C3.42779 20.6126 3.49883 20.6298 3.55212 20.6642C3.6054 20.6987 3.64092 20.7675 3.64092 20.8364C3.65868 20.9053 3.64092 20.9742 3.58764 21.0258Z" fill="#F0D7AB" style="mix-blend-mode:color"/>
<path d="M2.75271 17.3404C2.68167 17.3059 2.61062 17.2887 2.53958 17.2887C2.46854 17.2887 2.39749 17.2887 2.34421 17.3059C2.06003 17.3576 1.8469 17.5986 1.81137 17.8913C1.79361 18.0635 1.8469 18.2357 1.97122 18.3735C2.09555 18.5112 2.2554 18.5973 2.43301 18.6145C2.45077 18.6145 2.46854 18.6145 2.50406 18.6145C2.66391 18.6145 2.806 18.5629 2.93032 18.4596C3.07241 18.339 3.14346 18.1841 3.16122 18.0119C3.17898 17.7192 3.01913 17.4609 2.75271 17.3404ZM2.64615 18.1324C2.59286 18.1668 2.52182 18.2013 2.45077 18.1841C2.37973 18.1841 2.32645 18.1496 2.27316 18.098C2.21988 18.0463 2.20212 17.9774 2.21988 17.9086C2.23764 17.7708 2.34421 17.6847 2.4863 17.6847H2.50406C2.64615 17.7019 2.75271 17.8225 2.73495 17.9602C2.73495 18.0291 2.69943 18.098 2.64615 18.1324Z" fill="url(#paint9_linear_935_101)"/>
<path d="M2.75271 17.3404C2.68167 17.3059 2.61062 17.2887 2.53958 17.2887C2.46854 17.2887 2.39749 17.2887 2.34421 17.3059C2.06003 17.3576 1.8469 17.5986 1.81137 17.8913C1.79361 18.0635 1.8469 18.2357 1.97122 18.3735C2.09555 18.5112 2.2554 18.5973 2.43301 18.6145C2.45077 18.6145 2.46854 18.6145 2.50406 18.6145C2.66391 18.6145 2.806 18.5629 2.93032 18.4596C3.07241 18.339 3.14346 18.1841 3.16122 18.0119C3.17898 17.7192 3.01913 17.4609 2.75271 17.3404ZM2.64615 18.1324C2.59286 18.1668 2.52182 18.2013 2.45077 18.1841C2.37973 18.1841 2.32645 18.1496 2.27316 18.098C2.21988 18.0463 2.20212 17.9774 2.21988 17.9086C2.23764 17.7708 2.34421 17.6847 2.4863 17.6847H2.50406C2.64615 17.7019 2.75271 17.8225 2.73495 17.9602C2.73495 18.0291 2.69943 18.098 2.64615 18.1324Z" fill="url(#paint10_radial_935_101)" style="mix-blend-mode:overlay"/>
<path d="M2.75271 17.3404C2.68167 17.3059 2.61062 17.2887 2.53958 17.2887C2.46854 17.2887 2.39749 17.2887 2.34421 17.3059C2.06003 17.3576 1.8469 17.5986 1.81137 17.8913C1.79361 18.0635 1.8469 18.2357 1.97122 18.3735C2.09555 18.5112 2.2554 18.5973 2.43301 18.6145C2.45077 18.6145 2.46854 18.6145 2.50406 18.6145C2.66391 18.6145 2.806 18.5629 2.93032 18.4596C3.07241 18.339 3.14346 18.1841 3.16122 18.0119C3.17898 17.7192 3.01913 17.4609 2.75271 17.3404ZM2.64615 18.1324C2.59286 18.1668 2.52182 18.2013 2.45077 18.1841C2.37973 18.1841 2.32645 18.1496 2.27316 18.098C2.21988 18.0463 2.20212 17.9774 2.21988 17.9086C2.23764 17.7708 2.34421 17.6847 2.4863 17.6847H2.50406C2.64615 17.7019 2.75271 17.8225 2.73495 17.9602C2.73495 18.0291 2.69943 18.098 2.64615 18.1324Z" fill="#F0D7AB" style="mix-blend-mode:color"/>
<path d="M19.0399 20.166C19.0221 20.2349 19.0043 20.2865 18.9866 20.3554L21.8816 21.0958L21.8639 23.4547L22.3789 24.0574L23.1782 25.0044L24.6701 26.7607L27.7428 30.3766L27.7783 21.3369C27.7783 21.3369 27.1212 21.268 26.1621 20.7342C26.1621 20.7342 26.1443 20.7342 26.1443 20.717C25.9489 20.5965 25.7358 20.4759 25.5049 20.3037C24.9365 19.8905 24.2971 19.3223 23.6577 18.513L24.5813 18.4614L26.1976 18.358L26.4462 18.3408L26.7482 17.2388L28.0447 19.9766L28.9683 23.1448C28.9683 23.1448 29.8386 16.8256 26.3752 13.0892L19.0399 20.166Z" fill="url(#paint11_linear_935_101)"/>
<path d="M19.0399 20.166C19.0221 20.2349 19.0043 20.2865 18.9866 20.3554L21.8816 21.0958L21.8639 23.4547L22.3789 24.0574L23.1782 25.0044L24.6701 26.7607L27.7428 30.3766L27.7783 21.3369C27.7783 21.3369 27.1212 21.268 26.1621 20.7342C26.1621 20.7342 26.1443 20.7342 26.1443 20.717C25.9489 20.5965 25.7358 20.4759 25.5049 20.3037C24.9365 19.8905 24.2971 19.3223 23.6577 18.513L24.5813 18.4614L26.1976 18.358L26.4462 18.3408L26.7482 17.2388L28.0447 19.9766L28.9683 23.1448C28.9683 23.1448 29.8386 16.8256 26.3752 13.0892L19.0399 20.166Z" fill="url(#paint12_radial_935_101)" style="mix-blend-mode:overlay"/>
<path d="M19.0399 20.166C19.0221 20.2349 19.0043 20.2865 18.9866 20.3554L21.8816 21.0958L21.8639 23.4547L22.3789 24.0574L23.1782 25.0044L24.6701 26.7607L27.7428 30.3766L27.7783 21.3369C27.7783 21.3369 27.1212 21.268 26.1621 20.7342C26.1621 20.7342 26.1443 20.7342 26.1443 20.717C25.9489 20.5965 25.7358 20.4759 25.5049 20.3037C24.9365 19.8905 24.2971 19.3223 23.6577 18.513L24.5813 18.4614L26.1976 18.358L26.4462 18.3408L26.7482 17.2388L28.0447 19.9766L28.9683 23.1448C28.9683 23.1448 29.8386 16.8256 26.3752 13.0892L19.0399 20.166Z" fill="#F0D7AB" style="mix-blend-mode:color"/>
<path d="M12.3085 12.8292C11.527 13.6212 10.9231 14.551 10.5323 15.5669C10.0528 16.7895 9.89295 18.1325 10.0528 19.4583C10.1949 20.5087 10.5501 21.5418 11.1362 22.5232C11.8289 23.6769 12.7702 24.5895 13.8537 25.261L14.724 23.8491L16.2514 21.3524C16.1626 21.3007 16.0738 21.2491 16.0028 21.1802C15.8429 21.0424 15.7008 20.8875 15.5943 20.7153C15.0792 19.8544 15.3634 18.7352 16.2692 18.2358C17.0152 17.8054 17.9565 17.9431 18.5426 18.5113C18.6492 18.6146 18.7557 18.7352 18.8445 18.8729C18.9156 18.9762 18.9511 19.0795 19.0044 19.2001L24.9188 13.4663C24.2084 12.5709 23.3203 11.865 22.3435 11.3484C22.3257 11.3484 22.308 11.3312 22.2902 11.3312C22.308 11.3312 22.3257 11.3484 22.3435 11.3484L22.9118 9.2133C22.6987 9.12721 22.4856 9.04112 22.2547 8.97224V8.93781L22.3257 8.57622L23.3914 2.67026C23.4091 2.56695 23.3381 2.46363 23.2138 2.44642C19.0399 1.72324 14.724 2.48085 11.0474 4.5643C8.57863 5.959 6.55386 7.83582 5.02641 10.1603C3.60552 12.3126 2.66418 14.8093 2.32672 17.3577C2.39777 17.3405 2.45105 17.3405 2.52209 17.3405C2.59314 17.3405 2.66418 17.3577 2.73523 17.3921C3.42791 12.1405 6.51834 7.59476 11.2428 4.90867C14.7595 2.91132 18.8978 2.17092 22.9296 2.808L21.8462 8.80006C21.3489 8.66231 20.8338 8.559 20.3187 8.52456V3.23847C20.3187 3.13516 20.2299 3.03185 20.1056 3.03185C15.5765 3.03185 11.3138 4.73648 8.09908 7.85304C4.90208 10.9524 3.12597 15.102 3.12597 19.4928C3.12597 19.7338 3.12597 19.9921 3.14373 20.2504C3.19702 20.2332 3.26806 20.2159 3.3391 20.2159C3.41015 20.2159 3.49895 20.2159 3.57 20.2332C3.55224 19.9921 3.55224 19.751 3.55224 19.51C3.55224 10.7285 10.8698 3.56562 19.9102 3.44509V8.50734C19.3951 8.49012 18.8623 8.50734 18.3472 8.59343L18.3295 8.45569L18.294 8.21463L17.5835 4.35767C17.5657 4.25436 17.4592 4.16827 17.3349 4.20271C15.4522 4.52986 13.6761 5.16695 12.0065 6.09675C8.98713 7.8186 6.67819 10.3669 5.32835 13.4663C4.67119 14.9643 4.28044 16.5484 4.12059 18.1669C3.9785 19.751 4.08507 21.3352 4.44029 22.8848C4.49358 22.8504 4.56462 22.8332 4.6179 22.8159C4.68895 22.7987 4.75999 22.7815 4.83104 22.7987C3.35687 16.359 6.30521 9.79873 12.2019 6.44112C13.7471 5.56297 15.4344 4.9431 17.175 4.63317L17.8499 8.30072L17.921 8.67953C17.4237 8.78284 16.9086 8.93781 16.429 9.12721L15.2035 5.87291C15.1858 5.82125 15.1502 5.78681 15.097 5.75238C15.0437 5.73516 14.9904 5.71794 14.9371 5.75238C14.0846 6.06231 13.2498 6.44112 12.4683 6.87158C9.27131 8.67953 6.89132 11.555 5.73685 14.9643C4.6179 18.2875 4.75999 21.8861 6.1276 25.0888C5.98551 25.2093 5.8967 25.3987 5.8967 25.5709C5.8967 25.657 5.91446 25.7603 5.96775 25.8464C6.03879 26.0014 6.18088 26.1219 6.34073 26.1908C6.41177 26.2252 6.50058 26.2252 6.57162 26.2252C6.66043 26.2252 6.767 26.208 6.8558 26.1563C7.01565 26.0875 7.13998 25.9497 7.21102 25.7948C7.26431 25.6226 7.26431 25.4504 7.19326 25.2954C7.12222 25.1405 6.98013 25.0199 6.82028 24.951C6.71371 24.9166 6.62491 24.8994 6.51834 24.9166C3.74761 18.3736 6.37625 10.7974 12.6992 7.19873C13.4096 6.80271 14.1379 6.45834 14.9016 6.16562L15.8607 8.71396L16.0561 9.24774V9.26496C15.8607 9.35105 15.6653 9.45436 15.4699 9.57489C15.2035 9.71264 14.9726 9.88483 14.724 10.057L13.3031 7.66363C13.2498 7.57754 13.1255 7.5431 13.0189 7.59476C13.0011 7.61198 12.9834 7.61198 12.9656 7.6292L12.9301 7.64642C9.67982 9.4888 7.35311 12.4676 6.39401 16.0146C5.43491 19.5616 5.96775 23.2636 7.86818 26.4491C7.95699 26.5868 8.02803 26.7073 8.09908 26.8279C8.02803 26.914 7.97475 27.0173 7.95699 27.1206C7.92147 27.2928 7.95699 27.465 8.06356 27.6027C8.17012 27.7405 8.31221 27.8438 8.48982 27.8782C8.52534 27.8782 8.57863 27.8954 8.61415 27.8954C8.75624 27.8954 8.88057 27.861 9.00489 27.7749C9.14698 27.6716 9.25355 27.5166 9.28907 27.3616C9.32459 27.1895 9.28907 27.0173 9.18251 26.8795C9.07594 26.7418 8.93385 26.6385 8.75624 26.604C8.64967 26.5868 8.54311 26.5868 8.4543 26.6212C8.38326 26.5007 8.31221 26.3974 8.22341 26.2597C4.40477 19.9405 6.57162 11.7961 13.0367 8.05966L14.0846 9.83317L14.3687 10.2981L14.3865 10.3325C13.9958 10.6424 13.6228 11.004 13.3208 11.3656L11.8822 9.71264C11.8111 9.62655 11.6691 9.62655 11.598 9.69542C9.21803 11.6239 7.61953 14.31 7.06893 17.2888C6.51834 20.2848 7.0867 23.4014 8.6852 26.0358C9.14698 26.7934 9.67982 27.4994 10.2659 28.1365C10.3015 28.0848 10.337 28.0332 10.3903 27.9815C10.4435 27.9299 10.5146 27.8954 10.5679 27.861C9.99952 27.2411 9.48445 26.5524 9.04042 25.8292C5.8967 20.6292 7.01565 14.0517 11.7046 10.1259L12.7347 11.314L13.0367 11.6583L13.0722 11.6928C12.7702 12.0199 12.5216 12.416 12.3085 12.8292ZM6.66043 25.3299C6.73147 25.3471 6.78476 25.3987 6.80252 25.4676C6.83804 25.5193 6.83804 25.6054 6.82028 25.657C6.80252 25.7259 6.74923 25.7775 6.67819 25.7948C6.55386 25.8464 6.39401 25.7948 6.34073 25.6742C6.28745 25.5537 6.34073 25.3987 6.46506 25.3471C6.5361 25.3126 6.60715 25.2954 6.66043 25.3299ZM8.48982 27.0173C8.52534 26.9828 8.57863 26.9656 8.63191 26.9656C8.64967 26.9656 8.66743 26.9656 8.6852 26.9656C8.75624 26.9828 8.80952 27.0173 8.84504 27.0689C8.88057 27.1206 8.89833 27.1895 8.88057 27.2583C8.86281 27.3272 8.82728 27.3789 8.774 27.4133C8.72072 27.4477 8.64967 27.465 8.57863 27.4477C8.50758 27.4305 8.4543 27.3961 8.41878 27.3444C8.38326 27.2928 8.3655 27.2239 8.38326 27.155C8.38326 27.1206 8.43654 27.0689 8.48982 27.0173Z" fill="url(#paint13_linear_935_101)"/>
<path d="M12.3085 12.8292C11.527 13.6212 10.9231 14.551 10.5323 15.5669C10.0528 16.7895 9.89295 18.1325 10.0528 19.4583C10.1949 20.5087 10.5501 21.5418 11.1362 22.5232C11.8289 23.6769 12.7702 24.5895 13.8537 25.261L14.724 23.8491L16.2514 21.3524C16.1626 21.3007 16.0738 21.2491 16.0028 21.1802C15.8429 21.0424 15.7008 20.8875 15.5943 20.7153C15.0792 19.8544 15.3634 18.7352 16.2692 18.2358C17.0152 17.8054 17.9565 17.9431 18.5426 18.5113C18.6492 18.6146 18.7557 18.7352 18.8445 18.8729C18.9156 18.9762 18.9511 19.0795 19.0044 19.2001L24.9188 13.4663C24.2084 12.5709 23.3203 11.865 22.3435 11.3484C22.3257 11.3484 22.308 11.3312 22.2902 11.3312C22.308 11.3312 22.3257 11.3484 22.3435 11.3484L22.9118 9.2133C22.6987 9.12721 22.4856 9.04112 22.2547 8.97224V8.93781L22.3257 8.57622L23.3914 2.67026C23.4091 2.56695 23.3381 2.46363 23.2138 2.44642C19.0399 1.72324 14.724 2.48085 11.0474 4.5643C8.57863 5.959 6.55386 7.83582 5.02641 10.1603C3.60552 12.3126 2.66418 14.8093 2.32672 17.3577C2.39777 17.3405 2.45105 17.3405 2.52209 17.3405C2.59314 17.3405 2.66418 17.3577 2.73523 17.3921C3.42791 12.1405 6.51834 7.59476 11.2428 4.90867C14.7595 2.91132 18.8978 2.17092 22.9296 2.808L21.8462 8.80006C21.3489 8.66231 20.8338 8.559 20.3187 8.52456V3.23847C20.3187 3.13516 20.2299 3.03185 20.1056 3.03185C15.5765 3.03185 11.3138 4.73648 8.09908 7.85304C4.90208 10.9524 3.12597 15.102 3.12597 19.4928C3.12597 19.7338 3.12597 19.9921 3.14373 20.2504C3.19702 20.2332 3.26806 20.2159 3.3391 20.2159C3.41015 20.2159 3.49895 20.2159 3.57 20.2332C3.55224 19.9921 3.55224 19.751 3.55224 19.51C3.55224 10.7285 10.8698 3.56562 19.9102 3.44509V8.50734C19.3951 8.49012 18.8623 8.50734 18.3472 8.59343L18.3295 8.45569L18.294 8.21463L17.5835 4.35767C17.5657 4.25436 17.4592 4.16827 17.3349 4.20271C15.4522 4.52986 13.6761 5.16695 12.0065 6.09675C8.98713 7.8186 6.67819 10.3669 5.32835 13.4663C4.67119 14.9643 4.28044 16.5484 4.12059 18.1669C3.9785 19.751 4.08507 21.3352 4.44029 22.8848C4.49358 22.8504 4.56462 22.8332 4.6179 22.8159C4.68895 22.7987 4.75999 22.7815 4.83104 22.7987C3.35687 16.359 6.30521 9.79873 12.2019 6.44112C13.7471 5.56297 15.4344 4.9431 17.175 4.63317L17.8499 8.30072L17.921 8.67953C17.4237 8.78284 16.9086 8.93781 16.429 9.12721L15.2035 5.87291C15.1858 5.82125 15.1502 5.78681 15.097 5.75238C15.0437 5.73516 14.9904 5.71794 14.9371 5.75238C14.0846 6.06231 13.2498 6.44112 12.4683 6.87158C9.27131 8.67953 6.89132 11.555 5.73685 14.9643C4.6179 18.2875 4.75999 21.8861 6.1276 25.0888C5.98551 25.2093 5.8967 25.3987 5.8967 25.5709C5.8967 25.657 5.91446 25.7603 5.96775 25.8464C6.03879 26.0014 6.18088 26.1219 6.34073 26.1908C6.41177 26.2252 6.50058 26.2252 6.57162 26.2252C6.66043 26.2252 6.767 26.208 6.8558 26.1563C7.01565 26.0875 7.13998 25.9497 7.21102 25.7948C7.26431 25.6226 7.26431 25.4504 7.19326 25.2954C7.12222 25.1405 6.98013 25.0199 6.82028 24.951C6.71371 24.9166 6.62491 24.8994 6.51834 24.9166C3.74761 18.3736 6.37625 10.7974 12.6992 7.19873C13.4096 6.80271 14.1379 6.45834 14.9016 6.16562L15.8607 8.71396L16.0561 9.24774V9.26496C15.8607 9.35105 15.6653 9.45436 15.4699 9.57489C15.2035 9.71264 14.9726 9.88483 14.724 10.057L13.3031 7.66363C13.2498 7.57754 13.1255 7.5431 13.0189 7.59476C13.0011 7.61198 12.9834 7.61198 12.9656 7.6292L12.9301 7.64642C9.67982 9.4888 7.35311 12.4676 6.39401 16.0146C5.43491 19.5616 5.96775 23.2636 7.86818 26.4491C7.95699 26.5868 8.02803 26.7073 8.09908 26.8279C8.02803 26.914 7.97475 27.0173 7.95699 27.1206C7.92147 27.2928 7.95699 27.465 8.06356 27.6027C8.17012 27.7405 8.31221 27.8438 8.48982 27.8782C8.52534 27.8782 8.57863 27.8954 8.61415 27.8954C8.75624 27.8954 8.88057 27.861 9.00489 27.7749C9.14698 27.6716 9.25355 27.5166 9.28907 27.3616C9.32459 27.1895 9.28907 27.0173 9.18251 26.8795C9.07594 26.7418 8.93385 26.6385 8.75624 26.604C8.64967 26.5868 8.54311 26.5868 8.4543 26.6212C8.38326 26.5007 8.31221 26.3974 8.22341 26.2597C4.40477 19.9405 6.57162 11.7961 13.0367 8.05966L14.0846 9.83317L14.3687 10.2981L14.3865 10.3325C13.9958 10.6424 13.6228 11.004 13.3208 11.3656L11.8822 9.71264C11.8111 9.62655 11.6691 9.62655 11.598 9.69542C9.21803 11.6239 7.61953 14.31 7.06893 17.2888C6.51834 20.2848 7.0867 23.4014 8.6852 26.0358C9.14698 26.7934 9.67982 27.4994 10.2659 28.1365C10.3015 28.0848 10.337 28.0332 10.3903 27.9815C10.4435 27.9299 10.5146 27.8954 10.5679 27.861C9.99952 27.2411 9.48445 26.5524 9.04042 25.8292C5.8967 20.6292 7.01565 14.0517 11.7046 10.1259L12.7347 11.314L13.0367 11.6583L13.0722 11.6928C12.7702 12.0199 12.5216 12.416 12.3085 12.8292ZM6.66043 25.3299C6.73147 25.3471 6.78476 25.3987 6.80252 25.4676C6.83804 25.5193 6.83804 25.6054 6.82028 25.657C6.80252 25.7259 6.74923 25.7775 6.67819 25.7948C6.55386 25.8464 6.39401 25.7948 6.34073 25.6742C6.28745 25.5537 6.34073 25.3987 6.46506 25.3471C6.5361 25.3126 6.60715 25.2954 6.66043 25.3299ZM8.48982 27.0173C8.52534 26.9828 8.57863 26.9656 8.63191 26.9656C8.64967 26.9656 8.66743 26.9656 8.6852 26.9656C8.75624 26.9828 8.80952 27.0173 8.84504 27.0689C8.88057 27.1206 8.89833 27.1895 8.88057 27.2583C8.86281 27.3272 8.82728 27.3789 8.774 27.4133C8.72072 27.4477 8.64967 27.465 8.57863 27.4477C8.50758 27.4305 8.4543 27.3961 8.41878 27.3444C8.38326 27.2928 8.3655 27.2239 8.38326 27.155C8.38326 27.1206 8.43654 27.0689 8.48982 27.0173Z" fill="url(#paint14_radial_935_101)" style="mix-blend-mode:overlay"/>
<path d="M12.3085 12.8292C11.527 13.6212 10.9231 14.551 10.5323 15.5669C10.0528 16.7895 9.89295 18.1325 10.0528 19.4583C10.1949 20.5087 10.5501 21.5418 11.1362 22.5232C11.8289 23.6769 12.7702 24.5895 13.8537 25.261L14.724 23.8491L16.2514 21.3524C16.1626 21.3007 16.0738 21.2491 16.0028 21.1802C15.8429 21.0424 15.7008 20.8875 15.5943 20.7153C15.0792 19.8544 15.3634 18.7352 16.2692 18.2358C17.0152 17.8054 17.9565 17.9431 18.5426 18.5113C18.6492 18.6146 18.7557 18.7352 18.8445 18.8729C18.9156 18.9762 18.9511 19.0795 19.0044 19.2001L24.9188 13.4663C24.2084 12.5709 23.3203 11.865 22.3435 11.3484C22.3257 11.3484 22.308 11.3312 22.2902 11.3312C22.308 11.3312 22.3257 11.3484 22.3435 11.3484L22.9118 9.2133C22.6987 9.12721 22.4856 9.04112 22.2547 8.97224V8.93781L22.3257 8.57622L23.3914 2.67026C23.4091 2.56695 23.3381 2.46363 23.2138 2.44642C19.0399 1.72324 14.724 2.48085 11.0474 4.5643C8.57863 5.959 6.55386 7.83582 5.02641 10.1603C3.60552 12.3126 2.66418 14.8093 2.32672 17.3577C2.39777 17.3405 2.45105 17.3405 2.52209 17.3405C2.59314 17.3405 2.66418 17.3577 2.73523 17.3921C3.42791 12.1405 6.51834 7.59476 11.2428 4.90867C14.7595 2.91132 18.8978 2.17092 22.9296 2.808L21.8462 8.80006C21.3489 8.66231 20.8338 8.559 20.3187 8.52456V3.23847C20.3187 3.13516 20.2299 3.03185 20.1056 3.03185C15.5765 3.03185 11.3138 4.73648 8.09908 7.85304C4.90208 10.9524 3.12597 15.102 3.12597 19.4928C3.12597 19.7338 3.12597 19.9921 3.14373 20.2504C3.19702 20.2332 3.26806 20.2159 3.3391 20.2159C3.41015 20.2159 3.49895 20.2159 3.57 20.2332C3.55224 19.9921 3.55224 19.751 3.55224 19.51C3.55224 10.7285 10.8698 3.56562 19.9102 3.44509V8.50734C19.3951 8.49012 18.8623 8.50734 18.3472 8.59343L18.3295 8.45569L18.294 8.21463L17.5835 4.35767C17.5657 4.25436 17.4592 4.16827 17.3349 4.20271C15.4522 4.52986 13.6761 5.16695 12.0065 6.09675C8.98713 7.8186 6.67819 10.3669 5.32835 13.4663C4.67119 14.9643 4.28044 16.5484 4.12059 18.1669C3.9785 19.751 4.08507 21.3352 4.44029 22.8848C4.49358 22.8504 4.56462 22.8332 4.6179 22.8159C4.68895 22.7987 4.75999 22.7815 4.83104 22.7987C3.35687 16.359 6.30521 9.79873 12.2019 6.44112C13.7471 5.56297 15.4344 4.9431 17.175 4.63317L17.8499 8.30072L17.921 8.67953C17.4237 8.78284 16.9086 8.93781 16.429 9.12721L15.2035 5.87291C15.1858 5.82125 15.1502 5.78681 15.097 5.75238C15.0437 5.73516 14.9904 5.71794 14.9371 5.75238C14.0846 6.06231 13.2498 6.44112 12.4683 6.87158C9.27131 8.67953 6.89132 11.555 5.73685 14.9643C4.6179 18.2875 4.75999 21.8861 6.1276 25.0888C5.98551 25.2093 5.8967 25.3987 5.8967 25.5709C5.8967 25.657 5.91446 25.7603 5.96775 25.8464C6.03879 26.0014 6.18088 26.1219 6.34073 26.1908C6.41177 26.2252 6.50058 26.2252 6.57162 26.2252C6.66043 26.2252 6.767 26.208 6.8558 26.1563C7.01565 26.0875 7.13998 25.9497 7.21102 25.7948C7.26431 25.6226 7.26431 25.4504 7.19326 25.2954C7.12222 25.1405 6.98013 25.0199 6.82028 24.951C6.71371 24.9166 6.62491 24.8994 6.51834 24.9166C3.74761 18.3736 6.37625 10.7974 12.6992 7.19873C13.4096 6.80271 14.1379 6.45834 14.9016 6.16562L15.8607 8.71396L16.0561 9.24774V9.26496C15.8607 9.35105 15.6653 9.45436 15.4699 9.57489C15.2035 9.71264 14.9726 9.88483 14.724 10.057L13.3031 7.66363C13.2498 7.57754 13.1255 7.5431 13.0189 7.59476C13.0011 7.61198 12.9834 7.61198 12.9656 7.6292L12.9301 7.64642C9.67982 9.4888 7.35311 12.4676 6.39401 16.0146C5.43491 19.5616 5.96775 23.2636 7.86818 26.4491C7.95699 26.5868 8.02803 26.7073 8.09908 26.8279C8.02803 26.914 7.97475 27.0173 7.95699 27.1206C7.92147 27.2928 7.95699 27.465 8.06356 27.6027C8.17012 27.7405 8.31221 27.8438 8.48982 27.8782C8.52534 27.8782 8.57863 27.8954 8.61415 27.8954C8.75624 27.8954 8.88057 27.861 9.00489 27.7749C9.14698 27.6716 9.25355 27.5166 9.28907 27.3616C9.32459 27.1895 9.28907 27.0173 9.18251 26.8795C9.07594 26.7418 8.93385 26.6385 8.75624 26.604C8.64967 26.5868 8.54311 26.5868 8.4543 26.6212C8.38326 26.5007 8.31221 26.3974 8.22341 26.2597C4.40477 19.9405 6.57162 11.7961 13.0367 8.05966L14.0846 9.83317L14.3687 10.2981L14.3865 10.3325C13.9958 10.6424 13.6228 11.004 13.3208 11.3656L11.8822 9.71264C11.8111 9.62655 11.6691 9.62655 11.598 9.69542C9.21803 11.6239 7.61953 14.31 7.06893 17.2888C6.51834 20.2848 7.0867 23.4014 8.6852 26.0358C9.14698 26.7934 9.67982 27.4994 10.2659 28.1365C10.3015 28.0848 10.337 28.0332 10.3903 27.9815C10.4435 27.9299 10.5146 27.8954 10.5679 27.861C9.99952 27.2411 9.48445 26.5524 9.04042 25.8292C5.8967 20.6292 7.01565 14.0517 11.7046 10.1259L12.7347 11.314L13.0367 11.6583L13.0722 11.6928C12.7702 12.0199 12.5216 12.416 12.3085 12.8292ZM6.66043 25.3299C6.73147 25.3471 6.78476 25.3987 6.80252 25.4676C6.83804 25.5193 6.83804 25.6054 6.82028 25.657C6.80252 25.7259 6.74923 25.7775 6.67819 25.7948C6.55386 25.8464 6.39401 25.7948 6.34073 25.6742C6.28745 25.5537 6.34073 25.3987 6.46506 25.3471C6.5361 25.3126 6.60715 25.2954 6.66043 25.3299ZM8.48982 27.0173C8.52534 26.9828 8.57863 26.9656 8.63191 26.9656C8.64967 26.9656 8.66743 26.9656 8.6852 26.9656C8.75624 26.9828 8.80952 27.0173 8.84504 27.0689C8.88057 27.1206 8.89833 27.1895 8.88057 27.2583C8.86281 27.3272 8.82728 27.3789 8.774 27.4133C8.72072 27.4477 8.64967 27.465 8.57863 27.4477C8.50758 27.4305 8.4543 27.3961 8.41878 27.3444C8.38326 27.2928 8.3655 27.2239 8.38326 27.155C8.38326 27.1206 8.43654 27.0689 8.48982 27.0173Z" fill="#F0D7AB" style="mix-blend-mode:color"/>
<path d="M38.6482 11.9174C37.6358 9.59286 36.1794 7.50942 34.3322 5.71869C32.4851 3.92796 30.336 2.51604 27.9382 1.53459C25.4517 0.518692 22.823 0.00213623 20.1056 0.00213623C17.4059 0.00213623 14.7595 0.518692 12.2907 1.53459C9.89293 2.51604 7.74384 3.92796 5.89669 5.71869C4.04953 7.50942 2.59312 9.59286 1.58074 11.9174C0.532833 14.3107 0 16.8591 0 19.4935C0 22.128 0.532833 24.6763 1.58074 27.0869C2.59312 29.4114 4.04953 31.4949 5.89669 33.2856C7.74384 35.0763 9.89293 36.4882 12.2907 37.4697C14.7772 38.4856 17.4059 39.0021 20.1233 39.0021C22.8408 39.0021 25.4694 38.4856 27.956 37.4697C30.3537 36.4882 32.5028 35.0763 34.35 33.2856C36.1971 31.4949 37.6535 29.4114 38.6659 27.0869C39.7138 24.6763 40.2467 22.128 40.2467 19.4935C40.2289 16.8591 39.6961 14.3107 38.6482 11.9174ZM37.92 13.0194L33.977 9.19684C33.9948 9.14518 34.0125 9.09353 34.0125 9.04187C34.0125 8.83525 33.8349 8.66306 33.6218 8.66306C33.4086 8.66306 33.231 8.83525 33.231 9.04187C33.231 9.24849 33.4086 9.42068 33.6218 9.42068C33.6751 9.42068 33.7461 9.40346 33.7816 9.38624L38.1153 13.5876C38.5771 14.9134 38.8968 16.3081 39.0389 17.7372L31.8457 10.7637L29.3058 8.28426C29.3236 8.2326 29.3413 8.18094 29.3413 8.12929C29.3413 7.9571 29.2348 7.81936 29.0749 7.78492V4.51339C29.0749 4.49618 29.0749 4.47896 29.0572 4.46174C29.0572 4.44452 29.0394 4.4273 29.0394 4.4273L26.8015 2.24055C31.9167 4.10015 35.984 8.06041 37.92 13.0194ZM2.20238 25.7094L13.7116 36.867C8.36548 35.0074 4.12058 30.8922 2.20238 25.7094ZM14.2622 37.0564L8.34772 31.3227H11.4026C11.4559 31.4604 11.598 31.5809 11.7578 31.5809C11.8111 31.5809 11.8822 31.5637 11.9177 31.5465L18.4538 37.8829C17.0151 37.7452 15.5942 37.4697 14.2622 37.0564ZM22.4856 37.7968L16.731 32.218C16.7487 32.1664 16.7665 32.1147 16.7665 32.0631C16.7665 31.9081 16.6599 31.7531 16.5001 31.7187V28.7571L21.6685 33.7677C21.6508 33.8194 21.633 33.871 21.633 33.9227C21.633 34.1293 21.8106 34.3015 22.0238 34.3015C22.0771 34.3015 22.1481 34.2843 22.1836 34.267L25.2563 37.2458C24.3682 37.5041 23.4447 37.6763 22.4856 37.7968ZM25.5582 37.177L22.379 34.0949C22.379 34.0776 22.3967 34.0776 22.3967 34.0604H25.3984C25.4517 34.2154 25.5937 34.3187 25.7536 34.3187C25.8069 34.3187 25.8779 34.3015 25.9134 34.2843L27.9915 36.2988C27.21 36.626 26.4108 36.9187 25.5582 37.177ZM28.2579 36.1611L26.1088 34.0949C26.1088 34.0776 26.1266 34.0776 26.1266 34.0604H29.4301L30.407 35.0074C29.7143 35.4379 29.0039 35.8167 28.2579 36.1611ZM36.1616 29.377L33.5507 26.8458H36.9076L37.3516 27.2763C37.0141 27.9995 36.6056 28.7054 36.1616 29.377ZM37.4759 27.0352L37.0674 26.6392C37.0497 26.622 37.0497 26.622 37.0319 26.6048C37.0141 26.6048 36.9964 26.6048 36.9786 26.6048H33.3021L30.7978 24.177C30.8155 24.1253 30.8333 24.0737 30.8333 24.022C30.8333 23.8154 30.6557 23.6432 30.4425 23.6432C30.2294 23.6432 30.0518 23.8154 30.0518 24.022C30.0518 24.2286 30.2294 24.4008 30.4425 24.4008C30.4958 24.4008 30.5669 24.3836 30.6024 24.3664L33.1422 26.8286L36.0195 29.618C35.5755 30.2723 35.0959 30.8922 34.5809 31.4776L30.7089 27.724C30.7267 27.6723 30.7445 27.6207 30.7445 27.569C30.7445 27.3624 30.5669 27.1902 30.3537 27.1902C30.1406 27.1902 29.963 27.3624 29.963 27.569C29.963 27.7756 30.1406 27.9478 30.3537 27.9478C30.407 27.9478 30.4781 27.9306 30.5136 27.9134L34.4033 31.6843C33.8704 32.2697 33.3198 32.8035 32.7337 33.32L30.7089 31.3571C30.7267 31.3054 30.7445 31.2538 30.7445 31.2021C30.7445 30.9955 30.5669 30.8233 30.3537 30.8233C30.1406 30.8233 29.963 30.9955 29.963 31.2021C29.963 31.4088 30.1406 31.5809 30.3537 31.5809C30.407 31.5809 30.4781 31.5637 30.5136 31.5465L32.5206 33.4922C31.9167 33.9915 31.2773 34.4737 30.6024 34.9041L29.5545 33.8882C29.5367 33.871 29.5367 33.871 29.519 33.8538C29.5012 33.8538 29.4834 33.8366 29.4657 33.8366H26.1088C26.0555 33.6988 25.9134 33.5783 25.7536 33.5783C25.7003 33.5783 25.647 33.5955 25.5937 33.6127L22.0948 30.2207V26.6564C22.0948 26.6392 22.0948 26.622 22.0948 26.6048C22.0948 26.5876 22.077 26.5703 22.0593 26.5703L18.1341 22.7306C18.1518 22.679 18.1696 22.6273 18.1696 22.5756C18.1696 22.369 17.992 22.1968 17.7789 22.1968C17.5657 22.1968 17.3881 22.369 17.3881 22.5756C17.3881 22.7823 17.5657 22.9545 17.7789 22.9545C17.8321 22.9545 17.9032 22.9372 17.9387 22.92L21.8462 26.6909V29.9452L18.1341 26.3465C18.1518 26.2949 18.1696 26.2432 18.1696 26.1915C18.1696 25.9849 17.992 25.8127 17.7789 25.8127C17.5657 25.8127 17.3881 25.9849 17.3881 26.1915C17.3881 26.3982 17.5657 26.5703 17.7789 26.5703C17.8321 26.5703 17.9032 26.5531 17.9387 26.5359L21.8817 30.3584L25.4161 33.7849C25.4161 33.8021 25.3984 33.8021 25.3984 33.8194H22.3967C22.3435 33.6816 22.2014 33.5611 22.0415 33.5611C21.9882 33.5611 21.9172 33.5783 21.8817 33.5955L15.4344 27.3452C15.4522 27.2935 15.4699 27.2419 15.4699 27.1902C15.4699 26.9836 15.2923 26.8114 15.0792 26.8114C14.866 26.8114 14.6884 26.9836 14.6884 27.1902C14.6884 27.3968 14.866 27.569 15.0792 27.569C15.1325 27.569 15.2035 27.5518 15.239 27.5346L16.2514 28.516V31.7187C16.2336 31.7187 16.2336 31.7359 16.2159 31.7359L14.0313 29.6008C14.049 29.5492 14.0668 29.4975 14.0668 29.4458C14.0668 29.2392 13.8892 29.067 13.676 29.067C13.4629 29.067 13.2853 29.2392 13.2853 29.4458C13.2853 29.6525 13.4629 29.8247 13.676 29.8247C13.7293 29.8247 13.8004 29.8074 13.8359 29.7902L16.0205 31.9081C16.0028 31.9598 15.985 32.0114 15.985 32.0631C15.985 32.2697 16.1626 32.4419 16.3757 32.4419C16.429 32.4419 16.5001 32.4247 16.5356 32.4074L22.1481 37.8485C21.4732 37.9174 20.7983 37.9518 20.1056 37.9518C19.6793 37.9518 19.2708 37.9346 18.8623 37.9174L12.1131 31.3743C12.1308 31.3227 12.1486 31.271 12.1486 31.2194C12.1486 31.0127 11.971 30.8405 11.7578 30.8405C11.5802 30.8405 11.4381 30.9439 11.4026 31.0988H8.09906L2.007 25.1929C1.40313 23.4021 1.08343 21.4909 1.08343 19.5107C1.08343 9.33459 9.60876 1.06969 20.1056 1.06969C22.2369 1.06969 24.2972 1.41406 26.2154 2.05114L28.8263 4.58227V7.78492C28.6842 7.83657 28.5599 7.97432 28.5599 8.12929C28.5599 8.33591 28.7375 8.5081 28.9506 8.5081C29.0039 8.5081 29.0749 8.49088 29.1104 8.47366L31.6148 10.9015V14.4657C31.6148 14.4829 31.6148 14.5002 31.6325 14.5174C31.6325 14.5346 31.6503 14.5518 31.668 14.5518L35.1315 17.9094C35.1137 17.9611 35.0959 18.0127 35.0959 18.0644C35.0959 18.2366 35.2025 18.3743 35.3624 18.426V21.6803C35.3624 21.6975 35.3624 21.7147 35.3624 21.7319C35.3624 21.7492 35.3801 21.7664 35.3979 21.7664L38.3817 24.6591C38.1331 25.4684 37.8311 26.2604 37.4759 27.0352ZM38.4528 24.3836L35.611 21.6286V18.426C35.6288 18.426 35.6288 18.4088 35.6465 18.4088L39.0034 21.6631C38.8968 22.5756 38.7014 23.4882 38.4528 24.3836ZM35.8419 18.2194C35.8597 18.1677 35.8774 18.116 35.8774 18.0644C35.8774 17.8578 35.6998 17.6856 35.4867 17.6856C35.4334 17.6856 35.3624 17.7028 35.3268 17.72L31.8989 14.3968V11.1425L39.0922 18.116C39.1277 18.5809 39.1455 19.0458 39.1455 19.5107C39.1455 20.1306 39.1099 20.7333 39.0567 21.3359L35.8419 18.2194Z" fill="url(#paint15_linear_935_101)"/>
<path d="M38.6482 11.9174C37.6358 9.59286 36.1794 7.50942 34.3322 5.71869C32.4851 3.92796 30.336 2.51604 27.9382 1.53459C25.4517 0.518692 22.823 0.00213623 20.1056 0.00213623C17.4059 0.00213623 14.7595 0.518692 12.2907 1.53459C9.89293 2.51604 7.74384 3.92796 5.89669 5.71869C4.04953 7.50942 2.59312 9.59286 1.58074 11.9174C0.532833 14.3107 0 16.8591 0 19.4935C0 22.128 0.532833 24.6763 1.58074 27.0869C2.59312 29.4114 4.04953 31.4949 5.89669 33.2856C7.74384 35.0763 9.89293 36.4882 12.2907 37.4697C14.7772 38.4856 17.4059 39.0021 20.1233 39.0021C22.8408 39.0021 25.4694 38.4856 27.956 37.4697C30.3537 36.4882 32.5028 35.0763 34.35 33.2856C36.1971 31.4949 37.6535 29.4114 38.6659 27.0869C39.7138 24.6763 40.2467 22.128 40.2467 19.4935C40.2289 16.8591 39.6961 14.3107 38.6482 11.9174ZM37.92 13.0194L33.977 9.19684C33.9948 9.14518 34.0125 9.09353 34.0125 9.04187C34.0125 8.83525 33.8349 8.66306 33.6218 8.66306C33.4086 8.66306 33.231 8.83525 33.231 9.04187C33.231 9.24849 33.4086 9.42068 33.6218 9.42068C33.6751 9.42068 33.7461 9.40346 33.7816 9.38624L38.1153 13.5876C38.5771 14.9134 38.8968 16.3081 39.0389 17.7372L31.8457 10.7637L29.3058 8.28426C29.3236 8.2326 29.3413 8.18094 29.3413 8.12929C29.3413 7.9571 29.2348 7.81936 29.0749 7.78492V4.51339C29.0749 4.49618 29.0749 4.47896 29.0572 4.46174C29.0572 4.44452 29.0394 4.4273 29.0394 4.4273L26.8015 2.24055C31.9167 4.10015 35.984 8.06041 37.92 13.0194ZM2.20238 25.7094L13.7116 36.867C8.36548 35.0074 4.12058 30.8922 2.20238 25.7094ZM14.2622 37.0564L8.34772 31.3227H11.4026C11.4559 31.4604 11.598 31.5809 11.7578 31.5809C11.8111 31.5809 11.8822 31.5637 11.9177 31.5465L18.4538 37.8829C17.0151 37.7452 15.5942 37.4697 14.2622 37.0564ZM22.4856 37.7968L16.731 32.218C16.7487 32.1664 16.7665 32.1147 16.7665 32.0631C16.7665 31.9081 16.6599 31.7531 16.5001 31.7187V28.7571L21.6685 33.7677C21.6508 33.8194 21.633 33.871 21.633 33.9227C21.633 34.1293 21.8106 34.3015 22.0238 34.3015C22.0771 34.3015 22.1481 34.2843 22.1836 34.267L25.2563 37.2458C24.3682 37.5041 23.4447 37.6763 22.4856 37.7968ZM25.5582 37.177L22.379 34.0949C22.379 34.0776 22.3967 34.0776 22.3967 34.0604H25.3984C25.4517 34.2154 25.5937 34.3187 25.7536 34.3187C25.8069 34.3187 25.8779 34.3015 25.9134 34.2843L27.9915 36.2988C27.21 36.626 26.4108 36.9187 25.5582 37.177ZM28.2579 36.1611L26.1088 34.0949C26.1088 34.0776 26.1266 34.0776 26.1266 34.0604H29.4301L30.407 35.0074C29.7143 35.4379 29.0039 35.8167 28.2579 36.1611ZM36.1616 29.377L33.5507 26.8458H36.9076L37.3516 27.2763C37.0141 27.9995 36.6056 28.7054 36.1616 29.377ZM37.4759 27.0352L37.0674 26.6392C37.0497 26.622 37.0497 26.622 37.0319 26.6048C37.0141 26.6048 36.9964 26.6048 36.9786 26.6048H33.3021L30.7978 24.177C30.8155 24.1253 30.8333 24.0737 30.8333 24.022C30.8333 23.8154 30.6557 23.6432 30.4425 23.6432C30.2294 23.6432 30.0518 23.8154 30.0518 24.022C30.0518 24.2286 30.2294 24.4008 30.4425 24.4008C30.4958 24.4008 30.5669 24.3836 30.6024 24.3664L33.1422 26.8286L36.0195 29.618C35.5755 30.2723 35.0959 30.8922 34.5809 31.4776L30.7089 27.724C30.7267 27.6723 30.7445 27.6207 30.7445 27.569C30.7445 27.3624 30.5669 27.1902 30.3537 27.1902C30.1406 27.1902 29.963 27.3624 29.963 27.569C29.963 27.7756 30.1406 27.9478 30.3537 27.9478C30.407 27.9478 30.4781 27.9306 30.5136 27.9134L34.4033 31.6843C33.8704 32.2697 33.3198 32.8035 32.7337 33.32L30.7089 31.3571C30.7267 31.3054 30.7445 31.2538 30.7445 31.2021C30.7445 30.9955 30.5669 30.8233 30.3537 30.8233C30.1406 30.8233 29.963 30.9955 29.963 31.2021C29.963 31.4088 30.1406 31.5809 30.3537 31.5809C30.407 31.5809 30.4781 31.5637 30.5136 31.5465L32.5206 33.4922C31.9167 33.9915 31.2773 34.4737 30.6024 34.9041L29.5545 33.8882C29.5367 33.871 29.5367 33.871 29.519 33.8538C29.5012 33.8538 29.4834 33.8366 29.4657 33.8366H26.1088C26.0555 33.6988 25.9134 33.5783 25.7536 33.5783C25.7003 33.5783 25.647 33.5955 25.5937 33.6127L22.0948 30.2207V26.6564C22.0948 26.6392 22.0948 26.622 22.0948 26.6048C22.0948 26.5876 22.077 26.5703 22.0593 26.5703L18.1341 22.7306C18.1518 22.679 18.1696 22.6273 18.1696 22.5756C18.1696 22.369 17.992 22.1968 17.7789 22.1968C17.5657 22.1968 17.3881 22.369 17.3881 22.5756C17.3881 22.7823 17.5657 22.9545 17.7789 22.9545C17.8321 22.9545 17.9032 22.9372 17.9387 22.92L21.8462 26.6909V29.9452L18.1341 26.3465C18.1518 26.2949 18.1696 26.2432 18.1696 26.1915C18.1696 25.9849 17.992 25.8127 17.7789 25.8127C17.5657 25.8127 17.3881 25.9849 17.3881 26.1915C17.3881 26.3982 17.5657 26.5703 17.7789 26.5703C17.8321 26.5703 17.9032 26.5531 17.9387 26.5359L21.8817 30.3584L25.4161 33.7849C25.4161 33.8021 25.3984 33.8021 25.3984 33.8194H22.3967C22.3435 33.6816 22.2014 33.5611 22.0415 33.5611C21.9882 33.5611 21.9172 33.5783 21.8817 33.5955L15.4344 27.3452C15.4522 27.2935 15.4699 27.2419 15.4699 27.1902C15.4699 26.9836 15.2923 26.8114 15.0792 26.8114C14.866 26.8114 14.6884 26.9836 14.6884 27.1902C14.6884 27.3968 14.866 27.569 15.0792 27.569C15.1325 27.569 15.2035 27.5518 15.239 27.5346L16.2514 28.516V31.7187C16.2336 31.7187 16.2336 31.7359 16.2159 31.7359L14.0313 29.6008C14.049 29.5492 14.0668 29.4975 14.0668 29.4458C14.0668 29.2392 13.8892 29.067 13.676 29.067C13.4629 29.067 13.2853 29.2392 13.2853 29.4458C13.2853 29.6525 13.4629 29.8247 13.676 29.8247C13.7293 29.8247 13.8004 29.8074 13.8359 29.7902L16.0205 31.9081C16.0028 31.9598 15.985 32.0114 15.985 32.0631C15.985 32.2697 16.1626 32.4419 16.3757 32.4419C16.429 32.4419 16.5001 32.4247 16.5356 32.4074L22.1481 37.8485C21.4732 37.9174 20.7983 37.9518 20.1056 37.9518C19.6793 37.9518 19.2708 37.9346 18.8623 37.9174L12.1131 31.3743C12.1308 31.3227 12.1486 31.271 12.1486 31.2194C12.1486 31.0127 11.971 30.8405 11.7578 30.8405C11.5802 30.8405 11.4381 30.9439 11.4026 31.0988H8.09906L2.007 25.1929C1.40313 23.4021 1.08343 21.4909 1.08343 19.5107C1.08343 9.33459 9.60876 1.06969 20.1056 1.06969C22.2369 1.06969 24.2972 1.41406 26.2154 2.05114L28.8263 4.58227V7.78492C28.6842 7.83657 28.5599 7.97432 28.5599 8.12929C28.5599 8.33591 28.7375 8.5081 28.9506 8.5081C29.0039 8.5081 29.0749 8.49088 29.1104 8.47366L31.6148 10.9015V14.4657C31.6148 14.4829 31.6148 14.5002 31.6325 14.5174C31.6325 14.5346 31.6503 14.5518 31.668 14.5518L35.1315 17.9094C35.1137 17.9611 35.0959 18.0127 35.0959 18.0644C35.0959 18.2366 35.2025 18.3743 35.3624 18.426V21.6803C35.3624 21.6975 35.3624 21.7147 35.3624 21.7319C35.3624 21.7492 35.3801 21.7664 35.3979 21.7664L38.3817 24.6591C38.1331 25.4684 37.8311 26.2604 37.4759 27.0352ZM38.4528 24.3836L35.611 21.6286V18.426C35.6288 18.426 35.6288 18.4088 35.6465 18.4088L39.0034 21.6631C38.8968 22.5756 38.7014 23.4882 38.4528 24.3836ZM35.8419 18.2194C35.8597 18.1677 35.8774 18.116 35.8774 18.0644C35.8774 17.8578 35.6998 17.6856 35.4867 17.6856C35.4334 17.6856 35.3624 17.7028 35.3268 17.72L31.8989 14.3968V11.1425L39.0922 18.116C39.1277 18.5809 39.1455 19.0458 39.1455 19.5107C39.1455 20.1306 39.1099 20.7333 39.0567 21.3359L35.8419 18.2194Z" fill="url(#paint16_radial_935_101)" style="mix-blend-mode:overlay"/>
<path d="M38.6482 11.9174C37.6358 9.59286 36.1794 7.50942 34.3322 5.71869C32.4851 3.92796 30.336 2.51604 27.9382 1.53459C25.4517 0.518692 22.823 0.00213623 20.1056 0.00213623C17.4059 0.00213623 14.7595 0.518692 12.2907 1.53459C9.89293 2.51604 7.74384 3.92796 5.89669 5.71869C4.04953 7.50942 2.59312 9.59286 1.58074 11.9174C0.532833 14.3107 0 16.8591 0 19.4935C0 22.128 0.532833 24.6763 1.58074 27.0869C2.59312 29.4114 4.04953 31.4949 5.89669 33.2856C7.74384 35.0763 9.89293 36.4882 12.2907 37.4697C14.7772 38.4856 17.4059 39.0021 20.1233 39.0021C22.8408 39.0021 25.4694 38.4856 27.956 37.4697C30.3537 36.4882 32.5028 35.0763 34.35 33.2856C36.1971 31.4949 37.6535 29.4114 38.6659 27.0869C39.7138 24.6763 40.2467 22.128 40.2467 19.4935C40.2289 16.8591 39.6961 14.3107 38.6482 11.9174ZM37.92 13.0194L33.977 9.19684C33.9948 9.14518 34.0125 9.09353 34.0125 9.04187C34.0125 8.83525 33.8349 8.66306 33.6218 8.66306C33.4086 8.66306 33.231 8.83525 33.231 9.04187C33.231 9.24849 33.4086 9.42068 33.6218 9.42068C33.6751 9.42068 33.7461 9.40346 33.7816 9.38624L38.1153 13.5876C38.5771 14.9134 38.8968 16.3081 39.0389 17.7372L31.8457 10.7637L29.3058 8.28426C29.3236 8.2326 29.3413 8.18094 29.3413 8.12929C29.3413 7.9571 29.2348 7.81936 29.0749 7.78492V4.51339C29.0749 4.49618 29.0749 4.47896 29.0572 4.46174C29.0572 4.44452 29.0394 4.4273 29.0394 4.4273L26.8015 2.24055C31.9167 4.10015 35.984 8.06041 37.92 13.0194ZM2.20238 25.7094L13.7116 36.867C8.36548 35.0074 4.12058 30.8922 2.20238 25.7094ZM14.2622 37.0564L8.34772 31.3227H11.4026C11.4559 31.4604 11.598 31.5809 11.7578 31.5809C11.8111 31.5809 11.8822 31.5637 11.9177 31.5465L18.4538 37.8829C17.0151 37.7452 15.5942 37.4697 14.2622 37.0564ZM22.4856 37.7968L16.731 32.218C16.7487 32.1664 16.7665 32.1147 16.7665 32.0631C16.7665 31.9081 16.6599 31.7531 16.5001 31.7187V28.7571L21.6685 33.7677C21.6508 33.8194 21.633 33.871 21.633 33.9227C21.633 34.1293 21.8106 34.3015 22.0238 34.3015C22.0771 34.3015 22.1481 34.2843 22.1836 34.267L25.2563 37.2458C24.3682 37.5041 23.4447 37.6763 22.4856 37.7968ZM25.5582 37.177L22.379 34.0949C22.379 34.0776 22.3967 34.0776 22.3967 34.0604H25.3984C25.4517 34.2154 25.5937 34.3187 25.7536 34.3187C25.8069 34.3187 25.8779 34.3015 25.9134 34.2843L27.9915 36.2988C27.21 36.626 26.4108 36.9187 25.5582 37.177ZM28.2579 36.1611L26.1088 34.0949C26.1088 34.0776 26.1266 34.0776 26.1266 34.0604H29.4301L30.407 35.0074C29.7143 35.4379 29.0039 35.8167 28.2579 36.1611ZM36.1616 29.377L33.5507 26.8458H36.9076L37.3516 27.2763C37.0141 27.9995 36.6056 28.7054 36.1616 29.377ZM37.4759 27.0352L37.0674 26.6392C37.0497 26.622 37.0497 26.622 37.0319 26.6048C37.0141 26.6048 36.9964 26.6048 36.9786 26.6048H33.3021L30.7978 24.177C30.8155 24.1253 30.8333 24.0737 30.8333 24.022C30.8333 23.8154 30.6557 23.6432 30.4425 23.6432C30.2294 23.6432 30.0518 23.8154 30.0518 24.022C30.0518 24.2286 30.2294 24.4008 30.4425 24.4008C30.4958 24.4008 30.5669 24.3836 30.6024 24.3664L33.1422 26.8286L36.0195 29.618C35.5755 30.2723 35.0959 30.8922 34.5809 31.4776L30.7089 27.724C30.7267 27.6723 30.7445 27.6207 30.7445 27.569C30.7445 27.3624 30.5669 27.1902 30.3537 27.1902C30.1406 27.1902 29.963 27.3624 29.963 27.569C29.963 27.7756 30.1406 27.9478 30.3537 27.9478C30.407 27.9478 30.4781 27.9306 30.5136 27.9134L34.4033 31.6843C33.8704 32.2697 33.3198 32.8035 32.7337 33.32L30.7089 31.3571C30.7267 31.3054 30.7445 31.2538 30.7445 31.2021C30.7445 30.9955 30.5669 30.8233 30.3537 30.8233C30.1406 30.8233 29.963 30.9955 29.963 31.2021C29.963 31.4088 30.1406 31.5809 30.3537 31.5809C30.407 31.5809 30.4781 31.5637 30.5136 31.5465L32.5206 33.4922C31.9167 33.9915 31.2773 34.4737 30.6024 34.9041L29.5545 33.8882C29.5367 33.871 29.5367 33.871 29.519 33.8538C29.5012 33.8538 29.4834 33.8366 29.4657 33.8366H26.1088C26.0555 33.6988 25.9134 33.5783 25.7536 33.5783C25.7003 33.5783 25.647 33.5955 25.5937 33.6127L22.0948 30.2207V26.6564C22.0948 26.6392 22.0948 26.622 22.0948 26.6048C22.0948 26.5876 22.077 26.5703 22.0593 26.5703L18.1341 22.7306C18.1518 22.679 18.1696 22.6273 18.1696 22.5756C18.1696 22.369 17.992 22.1968 17.7789 22.1968C17.5657 22.1968 17.3881 22.369 17.3881 22.5756C17.3881 22.7823 17.5657 22.9545 17.7789 22.9545C17.8321 22.9545 17.9032 22.9372 17.9387 22.92L21.8462 26.6909V29.9452L18.1341 26.3465C18.1518 26.2949 18.1696 26.2432 18.1696 26.1915C18.1696 25.9849 17.992 25.8127 17.7789 25.8127C17.5657 25.8127 17.3881 25.9849 17.3881 26.1915C17.3881 26.3982 17.5657 26.5703 17.7789 26.5703C17.8321 26.5703 17.9032 26.5531 17.9387 26.5359L21.8817 30.3584L25.4161 33.7849C25.4161 33.8021 25.3984 33.8021 25.3984 33.8194H22.3967C22.3435 33.6816 22.2014 33.5611 22.0415 33.5611C21.9882 33.5611 21.9172 33.5783 21.8817 33.5955L15.4344 27.3452C15.4522 27.2935 15.4699 27.2419 15.4699 27.1902C15.4699 26.9836 15.2923 26.8114 15.0792 26.8114C14.866 26.8114 14.6884 26.9836 14.6884 27.1902C14.6884 27.3968 14.866 27.569 15.0792 27.569C15.1325 27.569 15.2035 27.5518 15.239 27.5346L16.2514 28.516V31.7187C16.2336 31.7187 16.2336 31.7359 16.2159 31.7359L14.0313 29.6008C14.049 29.5492 14.0668 29.4975 14.0668 29.4458C14.0668 29.2392 13.8892 29.067 13.676 29.067C13.4629 29.067 13.2853 29.2392 13.2853 29.4458C13.2853 29.6525 13.4629 29.8247 13.676 29.8247C13.7293 29.8247 13.8004 29.8074 13.8359 29.7902L16.0205 31.9081C16.0028 31.9598 15.985 32.0114 15.985 32.0631C15.985 32.2697 16.1626 32.4419 16.3757 32.4419C16.429 32.4419 16.5001 32.4247 16.5356 32.4074L22.1481 37.8485C21.4732 37.9174 20.7983 37.9518 20.1056 37.9518C19.6793 37.9518 19.2708 37.9346 18.8623 37.9174L12.1131 31.3743C12.1308 31.3227 12.1486 31.271 12.1486 31.2194C12.1486 31.0127 11.971 30.8405 11.7578 30.8405C11.5802 30.8405 11.4381 30.9439 11.4026 31.0988H8.09906L2.007 25.1929C1.40313 23.4021 1.08343 21.4909 1.08343 19.5107C1.08343 9.33459 9.60876 1.06969 20.1056 1.06969C22.2369 1.06969 24.2972 1.41406 26.2154 2.05114L28.8263 4.58227V7.78492C28.6842 7.83657 28.5599 7.97432 28.5599 8.12929C28.5599 8.33591 28.7375 8.5081 28.9506 8.5081C29.0039 8.5081 29.0749 8.49088 29.1104 8.47366L31.6148 10.9015V14.4657C31.6148 14.4829 31.6148 14.5002 31.6325 14.5174C31.6325 14.5346 31.6503 14.5518 31.668 14.5518L35.1315 17.9094C35.1137 17.9611 35.0959 18.0127 35.0959 18.0644C35.0959 18.2366 35.2025 18.3743 35.3624 18.426V21.6803C35.3624 21.6975 35.3624 21.7147 35.3624 21.7319C35.3624 21.7492 35.3801 21.7664 35.3979 21.7664L38.3817 24.6591C38.1331 25.4684 37.8311 26.2604 37.4759 27.0352ZM38.4528 24.3836L35.611 21.6286V18.426C35.6288 18.426 35.6288 18.4088 35.6465 18.4088L39.0034 21.6631C38.8968 22.5756 38.7014 23.4882 38.4528 24.3836ZM35.8419 18.2194C35.8597 18.1677 35.8774 18.116 35.8774 18.0644C35.8774 17.8578 35.6998 17.6856 35.4867 17.6856C35.4334 17.6856 35.3624 17.7028 35.3268 17.72L31.8989 14.3968V11.1425L39.0922 18.116C39.1277 18.5809 39.1455 19.0458 39.1455 19.5107C39.1455 20.1306 39.1099 20.7333 39.0567 21.3359L35.8419 18.2194Z" fill="#F0D7AB" style="mix-blend-mode:color"/>
</g>
<defs>
<linearGradient id="paint0_linear_935_101" x1="1.65326" y1="2.13704" x2="32.5978" y2="41.3089" gradientUnits="userSpaceOnUse">
<stop stop-color="#DBC7AC"/>
<stop offset="0.4403" stop-color="#E2E3DD"/>
<stop offset="1" stop-color="#F1DAB5"/>
</linearGradient>
<linearGradient id="paint1_linear_935_101" x1="34.6137" y1="7.71316" x2="6.37942" y2="32.1218" gradientUnits="userSpaceOnUse">
<stop offset="3.31713e-07" stop-color="#1B1D15"/>
<stop offset="1" stop-color="#554F59"/>
</linearGradient>
<linearGradient id="paint2_linear_935_101" x1="34.6137" y1="7.71316" x2="6.37942" y2="32.1218" gradientUnits="userSpaceOnUse">
<stop offset="3.31713e-07" stop-color="#1B1D15"/>
<stop offset="1" stop-color="#554F59"/>
</linearGradient>
<linearGradient id="paint3_linear_935_101" x1="10.1771" y1="28.6254" x2="11.5856" y2="28.2135" gradientUnits="userSpaceOnUse">
<stop offset="0.0677083" stop-color="#7F8A8C"/>
<stop offset="0.21875" stop-color="#D5D5D5"/>
<stop offset="0.374419" stop-color="#848B8A"/>
<stop offset="0.555213" stop-color="#626F73"/>
<stop offset="0.796875" stop-color="#C4CDCF"/>
<stop offset="0.895833" stop-color="#8A9092"/>
<stop offset="1" stop-color="#758184"/>
</linearGradient>
<radialGradient id="paint4_radial_935_101" cx="0" cy="0" r="1" gradientUnits="userSpaceOnUse" gradientTransform="translate(10.1771 27.6451) rotate(59.4183) scale(1.21657 1.30471)">
<stop stop-color="white"/>
<stop offset="1" stop-color="white" stop-opacity="0"/>
</radialGradient>
<linearGradient id="paint5_linear_935_101" x1="4.1391" y1="23.6203" x2="5.53066" y2="23.2128" gradientUnits="userSpaceOnUse">
<stop offset="0.0677083" stop-color="#7F8A8C"/>
<stop offset="0.21875" stop-color="#D5D5D5"/>
<stop offset="0.374419" stop-color="#848B8A"/>
<stop offset="0.555213" stop-color="#626F73"/>
<stop offset="0.796875" stop-color="#C4CDCF"/>
<stop offset="0.895833" stop-color="#8A9092"/>
<stop offset="1" stop-color="#758184"/>
</linearGradient>
<radialGradient id="paint6_radial_935_101" cx="0" cy="0" r="1" gradientUnits="userSpaceOnUse" gradientTransform="translate(4.1391 22.6529) rotate(59.384) scale(1.20099 1.28885)">
<stop stop-color="white"/>
<stop offset="1" stop-color="white" stop-opacity="0"/>
</radialGradient>
<linearGradient id="paint7_linear_935_101" x1="2.71735" y1="21.0525" x2="4.11143" y2="20.646" gradientUnits="userSpaceOnUse">
<stop offset="0.0677083" stop-color="#7F8A8C"/>
<stop offset="0.21875" stop-color="#D5D5D5"/>
<stop offset="0.374419" stop-color="#848B8A"/>
<stop offset="0.555213" stop-color="#626F73"/>
<stop offset="0.796875" stop-color="#C4CDCF"/>
<stop offset="0.895833" stop-color="#8A9092"/>
<stop offset="1" stop-color="#758184"/>
</linearGradient>
<radialGradient id="paint8_radial_935_101" cx="0" cy="0" r="1" gradientUnits="userSpaceOnUse" gradientTransform="translate(2.71735 20.0798) rotate(59.4938) scale(1.20625 1.29176)">
<stop stop-color="white"/>
<stop offset="1" stop-color="white" stop-opacity="0"/>
</radialGradient>
<linearGradient id="paint9_linear_935_101" x1="1.80804" y1="18.1671" x2="3.22353" y2="17.7571" gradientUnits="userSpaceOnUse">
<stop offset="0.0677083" stop-color="#7F8A8C"/>
<stop offset="0.21875" stop-color="#D5D5D5"/>
<stop offset="0.374419" stop-color="#848B8A"/>
<stop offset="0.555213" stop-color="#626F73"/>
<stop offset="0.796875" stop-color="#C4CDCF"/>
<stop offset="0.895833" stop-color="#8A9092"/>
<stop offset="1" stop-color="#758184"/>
</linearGradient>
<radialGradient id="paint10_radial_935_101" cx="0" cy="0" r="1" gradientUnits="userSpaceOnUse" gradientTransform="translate(1.80804 17.1739) rotate(59.6591) scale(1.22953 1.31246)">
<stop stop-color="white"/>
<stop offset="1" stop-color="white" stop-opacity="0"/>
</radialGradient>
<linearGradient id="paint11_linear_935_101" x1="18.9866" y1="24.5428" x2="30.0995" y2="22.7057" gradientUnits="userSpaceOnUse">
<stop offset="0.0677083" stop-color="#7F8A8C"/>
<stop offset="0.21875" stop-color="#D5D5D5"/>
<stop offset="0.374419" stop-color="#848B8A"/>
<stop offset="0.555213" stop-color="#626F73"/>
<stop offset="0.796875" stop-color="#C4CDCF"/>
<stop offset="0.895833" stop-color="#8A9092"/>
<stop offset="1" stop-color="#758184"/>
</linearGradient>
<radialGradient id="paint12_radial_935_101" cx="0" cy="0" r="1" gradientUnits="userSpaceOnUse" gradientTransform="translate(18.9866 11.5926) rotate(71.5294) scale(14.5875 10.7331)">
<stop stop-color="white"/>
<stop offset="1" stop-color="white" stop-opacity="0"/>
</radialGradient>
<linearGradient id="paint13_linear_935_101" x1="2.32672" y1="19.3771" x2="26.4479" y2="13.4243" gradientUnits="userSpaceOnUse">
<stop offset="0.0677083" stop-color="#7F8A8C"/>
<stop offset="0.21875" stop-color="#D5D5D5"/>
<stop offset="0.374419" stop-color="#848B8A"/>
<stop offset="0.555213" stop-color="#626F73"/>
<stop offset="0.796875" stop-color="#C4CDCF"/>
<stop offset="0.895833" stop-color="#8A9092"/>
<stop offset="1" stop-color="#758184"/>
</linearGradient>
<radialGradient id="paint14_radial_935_101" cx="0" cy="0" r="1" gradientUnits="userSpaceOnUse" gradientTransform="translate(2.32672 -0.0679517) rotate(63.4973) scale(23.2145 22.6993)">
<stop stop-color="white"/>
<stop offset="1" stop-color="white" stop-opacity="0"/>
</radialGradient>
<linearGradient id="paint15_linear_935_101" x1="-1.10942e-07" y1="25.8414" x2="41.9922" y2="13.5541" gradientUnits="userSpaceOnUse">
<stop offset="0.0677083" stop-color="#7F8A8C"/>
<stop offset="0.21875" stop-color="#D5D5D5"/>
<stop offset="0.374419" stop-color="#848B8A"/>
<stop offset="0.555213" stop-color="#626F73"/>
<stop offset="0.796875" stop-color="#C4CDCF"/>
<stop offset="0.895833" stop-color="#8A9092"/>
<stop offset="1" stop-color="#758184"/>
</linearGradient>
<radialGradient id="paint16_radial_935_101" cx="0" cy="0" r="1" gradientUnits="userSpaceOnUse" gradientTransform="translate(-8.87226e-07 -3.37419) rotate(59.4073) scale(36.2611 38.8965)">
<stop stop-color="white"/>
<stop offset="1" stop-color="white" stop-opacity="0"/>
</radialGradient>
<clipPath id="clip0_935_101">
<rect width="142" height="39" fill="white"/>
</clipPath>
</defs>
</svg>
