<svg width="20" height="20" viewBox="0 0 20 20" fill="none" xmlns="http://www.w3.org/2000/svg">
<path d="M15.4672 4.79325V3.28611C15.4672 2.45957 15.1391 1.66702 14.5546 1.08276C13.9701 0.498304 13.1776 0.169922 12.3512 0.169922H5.55244C4.12493 0.169922 2.7559 0.737137 1.74652 1.74652C0.737136 2.7559 0.169922 4.12498 0.169922 5.55244V14.6177V14.6175C0.169922 16.045 0.737136 17.414 1.74652 18.4234C2.7559 19.4328 4.12498 20 5.55244 20H14.6177H14.6175C16.045 20 17.414 19.4328 18.4234 18.4234C19.4328 17.414 20 16.0449 20 14.6175V10.085C19.9968 8.80815 19.5388 7.57417 18.7081 6.60441C17.8775 5.63466 16.7286 4.99256 15.4673 4.79336L15.4672 4.79325ZM5.55263 1.86962H12.3514C12.727 1.86962 13.0873 2.01892 13.3529 2.2845C13.6186 2.55027 13.7677 2.91052 13.7677 3.28611V4.70259H1.9718C2.16473 3.89732 2.62264 3.18043 3.27197 2.66673C3.92131 2.15304 4.72449 1.87229 5.55254 1.86962H5.55263ZM18.3004 14.6174C18.2974 15.5932 17.9085 16.5282 17.2184 17.2182C16.5284 17.9083 15.5934 18.2972 14.6176 18.3002H5.55283C4.577 18.2972 3.64197 17.9083 2.95204 17.2182C2.26191 16.5282 1.87302 15.5932 1.87001 14.6174V6.40248H14.6178C15.5936 6.40533 16.5286 6.7944 17.2186 7.48432C17.9087 8.17425 18.2976 9.10928 18.3006 10.0851L18.3004 14.6174Z" fill="#F3DEB7"/>
<path d="M14.051 9.80151C13.3747 9.80151 12.7264 10.0701 12.2481 10.5482C11.7701 11.0264 11.5015 11.6748 11.5015 12.3511C11.5015 13.0272 11.7701 13.6757 12.2481 14.1538C12.7264 14.632 13.3747 14.9006 14.051 14.9006C14.7271 14.9006 15.3757 14.632 15.8537 14.1538C16.332 13.6757 16.6006 13.0272 16.6006 12.3511C16.6006 11.6748 16.332 11.0264 15.8537 10.5482C15.3757 10.0701 14.7271 9.80151 14.051 9.80151ZM14.051 13.2009C13.8255 13.2009 13.6094 13.1114 13.4501 12.952C13.2907 12.7925 13.2012 12.5764 13.2012 12.3511C13.2012 12.1255 13.2907 11.9094 13.4501 11.7501C13.6094 11.5908 13.8255 11.5012 14.051 11.5012C14.2764 11.5012 14.4924 11.5908 14.652 11.7501C14.8113 11.9094 14.9009 12.1255 14.9009 12.3511C14.8978 12.5755 14.8073 12.79 14.6486 12.9486C14.49 13.1074 14.2754 13.1979 14.051 13.2009L14.051 13.2009Z" fill="#F3DEB7"/>
</svg>
