<svg width="20" height="20" viewBox="0 0 20 20" fill="none" xmlns="http://www.w3.org/2000/svg">
<g clip-path="url(#clip0_92_612)">
<path d="M7.55105 14.789L7.41155 15.029C7.3969 15.0542 7.38912 15.0828 7.38898 15.112V17.3333C7.38898 17.3333 7.38898 17.3333 7.38898 17.3333C7.389 17.3775 7.40656 17.4199 7.43781 17.4512C7.46906 17.4824 7.51145 17.5 7.55564 17.5C7.55566 17.5 7.55568 17.5 7.5557 17.5H8.00009H8.50009V18V19.3333C8.50009 19.3333 8.50009 19.3333 8.50009 19.3333C8.50011 19.3775 8.51767 19.4199 8.54893 19.4512C8.58018 19.4824 8.62256 19.5 8.66676 19.5L7.55105 14.789ZM7.55105 14.789L7.42107 14.5437M7.55105 14.789L7.42107 14.5437M7.42107 14.5437C6.93334 13.6232 6.27112 12.8596 5.6357 12.1268C5.4294 11.8889 5.22592 11.6543 5.03216 11.4186C4.14594 10.3406 3.38898 9.08609 3.38898 7.25C3.38898 3.52697 6.35865 0.5 10.0001 0.5C13.6415 0.5 16.6112 3.52697 16.6112 7.25C16.6112 8.61614 16.1993 9.665 15.6307 10.5312C15.2375 11.1303 14.8033 11.6262 14.3528 12.1408C14.1185 12.4085 13.8797 12.6813 13.6399 12.9763L13.6353 12.9819L13.631 12.9876C13.6174 13.0052 13.6005 13.02 13.5811 13.0311L13.8283 13.4657M7.42107 14.5437L13.8283 13.4657M13.8283 13.4657L13.5811 13.0311C13.5617 13.0421 13.5403 13.0491 13.5182 13.0517C13.496 13.0543 13.4736 13.0525 13.4522 13.0463C13.4308 13.0401 13.4108 13.0296 13.3935 13.0156L13.8283 13.4657ZM11.5001 18V17.5H12.0001H12.4445C12.4445 17.5 12.4445 17.5 12.4445 17.5C12.4887 17.5 12.5311 17.4824 12.5624 17.4512C12.5936 17.4199 12.6112 17.3775 12.6112 17.3333L11.5001 18ZM11.5001 18V19.3333C11.5001 19.3333 11.5001 19.3333 11.5001 19.3333C11.5001 19.3775 11.4825 19.4199 11.4513 19.4512C11.42 19.4824 11.3776 19.5 11.3334 19.5C11.3334 19.5 11.3334 19.5 11.3334 19.5M11.5001 18L11.3334 19.5M10.1668 14.9444V14.4444V8.44444V7.94444H10.6668H11.3334H11.3405V7.94449C11.3626 7.94481 11.3845 7.94073 11.405 7.93249C11.4255 7.92425 11.4442 7.91202 11.4599 7.89651L11.811 8.25255L11.4599 7.8965C11.4756 7.88099 11.4881 7.86251 11.4967 7.84213L11.9373 8.02647L11.4967 7.84213C11.5052 7.82174 11.5096 7.79987 11.5096 7.77778C11.5096 7.75569 11.5052 7.73381 11.4967 7.71343L11.9579 7.52045L11.4967 7.71342C11.4881 7.69305 11.4756 7.67456 11.4599 7.65905C11.4442 7.64354 11.4255 7.63131 11.405 7.62307C11.3845 7.61483 11.3626 7.61075 11.3405 7.61106L11.3334 7.61116V7.61111H8.66676H8.65373L8.64072 7.61043C8.63493 7.61013 8.62914 7.61013 8.62335 7.61043L8.62323 7.61044C8.60125 7.61158 8.57971 7.61704 8.55985 7.6265L8.3448 7.17511L8.55985 7.6265C8.53998 7.63597 8.52217 7.64926 8.50744 7.66561L8.136 7.33089L8.50743 7.66561C8.4927 7.68196 8.48133 7.70105 8.47398 7.72179L8.00272 7.55471L8.47398 7.72179C8.46663 7.74253 8.46343 7.76452 8.46457 7.7865C8.46572 7.80848 8.47118 7.83002 8.48065 7.84988L8.0293 8.06501L8.48065 7.84988C8.49012 7.86975 8.50341 7.88755 8.51976 7.90229C8.53611 7.91702 8.55521 7.92838 8.57595 7.93573C8.57595 7.93573 8.57595 7.93573 8.57595 7.93573L8.40896 8.40702L10.1668 14.9444ZM10.1668 14.9444H10.6668M10.1668 14.9444H10.6668M10.6668 14.9444H12.4445C12.4445 14.9444 12.4445 14.9444 12.4445 14.9444C12.4887 14.9445 12.5311 14.962 12.5624 14.9933C12.5936 15.0245 12.6112 15.0669 12.6112 15.1111C12.6112 15.1111 12.6112 15.1111 12.6112 15.1112M10.6668 14.9444L12.6112 15.1112M11.3334 19.5H8.66681H11.3334ZM12.6112 15.1112V17.3333V15.1112ZM8.22231 15.2778H7.72231V15.7778V16.6667V17.1667H8.22231H11.7779H12.2779V16.6667V15.7778V15.2778H11.7779H8.22231ZM9.33342 17.5H8.83342V18V18.6667V19.1667H9.33342H10.6668H11.1668V18.6667V18V17.5H10.6668H9.33342Z" fill="#353533" stroke="#F3DEB7"/>
</g>
<defs>
<clipPath id="clip0_92_612">
<rect width="20" height="20" fill="white"/>
</clipPath>
</defs>
</svg>
