<svg width="20" height="20" viewBox="0 0 20 20" fill="none" xmlns="http://www.w3.org/2000/svg">
<path d="M11.6828 5.8531V6.3531H12.1828H17.2729C17.3409 6.3531 17.4014 6.37905 17.4423 6.41798L17.787 6.05576L17.4423 6.41798C17.4824 6.45611 17.5 6.50237 17.5 6.54504V12.7725C17.5 12.8152 17.4824 12.8615 17.4423 12.8996C17.4014 12.9385 17.3409 12.9645 17.2729 12.9645H11.4556C11.3876 12.9645 11.3271 12.9385 11.2862 12.8996C11.2461 12.8615 11.2285 12.8152 11.2285 12.7725V12.0806V11.5806H10.7285H4.9113H4.4113V12.0806V18.3081C4.4113 18.3507 4.39371 18.397 4.35364 18.4351C4.31273 18.4741 4.25218 18.5 4.18415 18.5C4.11612 18.5 4.05556 18.4741 4.01465 18.4351C3.97458 18.397 3.957 18.3507 3.957 18.3081V5.03384V4.67404L3.61584 4.55974C3.27141 4.44435 2.97982 4.22806 2.78099 3.94765C2.58249 3.6677 2.4859 3.33758 2.50166 3.00582C2.51742 2.67399 2.64504 2.35254 2.87029 2.08957C3.0959 1.82619 3.40803 1.63522 3.76279 1.54967C4.11769 1.46409 4.49215 1.48969 4.8295 1.62185C5.16663 1.75391 5.44535 1.98385 5.62812 2.27298C5.8106 2.56164 5.88908 2.89563 5.85521 3.22626C5.82133 3.55705 5.67617 3.87238 5.43622 4.12453L4.63237 4.96922H5.79842H11.4556C11.5237 4.96922 11.5842 4.99516 11.6251 5.03409C11.6652 5.07222 11.6828 5.11848 11.6828 5.16116V5.8531ZM17.0457 7.23698V6.73698H16.5457H12.1828H11.6828V7.23698V12.0806V12.5806H12.1828H16.5457H17.0457V12.0806V7.23698ZM4.419 4.25525L4.32601 3.76398L4.419 4.25525C4.65235 4.21108 4.86992 4.10151 5.04299 3.93682C5.21633 3.77188 5.33741 3.55865 5.38675 3.32263C5.43613 3.08639 5.41053 2.84182 5.3144 2.62098C5.21841 2.40047 5.05766 2.21603 4.85641 2.08807C4.65538 1.96025 4.42149 1.89339 4.18415 1.89339C3.86647 1.89339 3.55712 2.01324 3.3253 2.23384C3.09263 2.45524 2.957 2.76097 2.957 3.08533C2.957 3.32676 3.03236 3.56057 3.17035 3.75708C3.3081 3.95326 3.50121 4.10254 3.72253 4.18977C3.94368 4.27694 4.18572 4.29941 4.419 4.25525ZM4.4113 10.6967V11.1967H4.9113H10.7285H11.2285V10.6967V5.8531V5.3531H10.7285H4.9113H4.4113V5.8531V10.6967Z" fill="#353533" stroke="#F3DEB7"/>
</svg>
