<svg width="20" height="20" viewBox="0 0 20 20" fill="none" xmlns="http://www.w3.org/2000/svg">
<path d="M2.77795 4H7.11129C7.87747 4 8.61227 4.30436 9.15404 4.84614C9.69581 5.38791 10.0002 6.12271 10.0002 6.88889V17C10.0002 16.4254 9.7719 15.8743 9.36557 15.4679C8.95925 15.0616 8.40815 14.8333 7.83351 14.8333H2.77795V4Z" stroke="#F3DEB7" stroke-width="1.3" stroke-linecap="round" stroke-linejoin="round"/>
<path d="M17.2223 4H12.889C12.1228 4 11.388 4.30436 10.8462 4.84614C10.3045 5.38791 10.0001 6.12271 10.0001 6.88889V17C10.0001 16.4254 10.2284 15.8743 10.6347 15.4679C11.041 15.0616 11.5921 14.8333 12.1668 14.8333H17.2223V4Z" stroke="#F3DEB7" stroke-width="1.3" stroke-linecap="round" stroke-linejoin="round"/>
</svg>
