<svg width="20" height="20" viewBox="0 0 20 20" fill="none" xmlns="http://www.w3.org/2000/svg">
<path d="M3.68053 10.1321L3.22599 10.4919V17.2727C3.22599 17.2727 3.22599 17.2727 3.22599 17.2727C3.22601 17.333 3.24996 17.3908 3.29258 17.4334C3.3352 17.476 3.393 17.5 3.45326 17.5L3.68053 10.1321ZM3.68053 10.1321V16.5455V17.0455H4.18053H7.33203H7.83203V16.5455V14.3637C7.83203 13.1751 8.81008 12.197 9.99868 12.197C11.1873 12.197 12.1653 13.1751 12.1653 14.3637V16.5455V17.0455H12.6653H15.8168H16.3168V16.5455V10.1321L16.7714 10.4919V17.2727C16.7714 17.2727 16.7714 17.2727 16.7714 17.2727C16.7713 17.333 16.7474 17.3908 16.7048 17.4334C16.6622 17.4761 16.6044 17.5 16.5441 17.5C16.5441 17.5 16.5441 17.5 16.544 17.5H11.9381L3.68053 10.1321ZM0.180555 10.4773L0.574527 10.1695C0.637204 10.2497 0.816717 10.2698 0.901505 10.1944L0.912402 10.1848L0.923845 10.1757L9.68895 3.2591L9.99868 3.01469L10.3084 3.2591L19.0735 10.1757L19.085 10.1848L19.0959 10.1944C19.1279 10.2229 19.1927 10.2496 19.2745 10.2431C19.3557 10.2367 19.398 10.203 19.4125 10.1831C19.4206 10.1721 19.4499 10.1059 19.4357 9.99853C19.4221 9.89473 19.3794 9.84052 19.3583 9.82475L19.3478 9.81688L19.3479 9.81675L10.1483 2.55394C10.0739 2.50369 10.0317 2.4996 10.0076 2.50003L0.180555 10.4773ZM0.180555 10.4773L0.574526 10.1695C0.573261 10.1678 0.547078 10.1307 0.56934 10.0241C0.589363 9.92815 0.637164 9.84202 0.677992 9.79423L9.84143 2.55994C9.9201 2.51175 9.97555 2.5006 10.0076 2.50003L0.180555 10.4773ZM11.4238 17.787L11.7774 17.4334C11.82 17.476 11.8778 17.5 11.9381 17.5L11.4238 17.787ZM11.4238 17.787L11.7774 17.4334C11.7348 17.3908 11.7108 17.333 11.7108 17.2727C11.7108 17.2727 11.7108 17.2727 11.7108 17.2727V14.3637C11.7108 13.4034 10.9589 12.6516 9.99868 12.6516C9.03845 12.6516 8.28657 13.4034 8.28657 14.3637V17.2727C8.28657 17.2727 8.28657 17.2727 8.28657 17.2727C8.28655 17.333 8.2626 17.3908 8.21998 17.4334C8.17736 17.476 8.11956 17.5 8.0593 17.5C8.05928 17.5 8.05926 17.5 8.05925 17.5M11.4238 17.787L8.05925 17.5M8.05925 17.5H3.45331H8.05925Z" fill="#353533" stroke="#F3DEB7"/>
</svg>
