<svg width="20" height="20" viewBox="0 0 20 20" fill="none" xmlns="http://www.w3.org/2000/svg">
<path d="M10 18V5.35712" stroke="#F3DEB7" stroke-width="1.3" stroke-linecap="round" stroke-linejoin="round"/>
<path d="M6.83929 18H13.1607" stroke="#F3DEB7" stroke-width="1.3" stroke-linecap="round" stroke-linejoin="round"/>
<path d="M11.0536 4.30359H14.7411" stroke="#F3DEB7" stroke-width="1.3" stroke-linecap="round" stroke-linejoin="round"/>
<path d="M5.25894 4.30359H8.94644" stroke="#F3DEB7" stroke-width="1.3" stroke-linecap="round" stroke-linejoin="round"/>
<path d="M10 5.35714C10.5819 5.35714 11.0536 4.88544 11.0536 4.30357C11.0536 3.7217 10.5819 3.25 10 3.25C9.41814 3.25 8.94644 3.7217 8.94644 4.30357C8.94644 4.88544 9.41814 5.35714 10 5.35714Z" stroke="#F3DEB7" stroke-width="1.3" stroke-linecap="round" stroke-linejoin="round"/>
<path d="M7.89286 11.6786C7.89286 12.3772 7.61535 13.0471 7.1214 13.5411C6.62744 14.035 5.95749 14.3125 5.25893 14.3125C4.56037 14.3125 3.89042 14.035 3.39646 13.5411C2.9025 13.0471 2.625 12.3772 2.625 11.6786H7.89286Z" stroke="#F3DEB7" stroke-width="1.3" stroke-linecap="round" stroke-linejoin="round"/>
<path d="M5.25893 4.30359L2.625 9.57145" stroke="#F3DEB7" stroke-width="1.3" stroke-linecap="round" stroke-linejoin="round"/>
<path d="M5.25894 4.30359L7.89287 9.57145" stroke="#F3DEB7" stroke-width="1.3" stroke-linecap="round" stroke-linejoin="round"/>
<path d="M17.375 11.6786C17.375 12.3772 17.0975 13.0471 16.6035 13.5411C16.1096 14.035 15.4396 14.3125 14.7411 14.3125C14.0425 14.3125 13.3726 14.035 12.8786 13.5411C12.3846 13.0471 12.1071 12.3772 12.1071 11.6786H17.375Z" stroke="#F3DEB7" stroke-width="1.3" stroke-linecap="round" stroke-linejoin="round"/>
<path d="M14.7411 4.30359L12.1071 9.57145" stroke="#F3DEB7" stroke-width="1.3" stroke-linecap="round" stroke-linejoin="round"/>
<path d="M14.7411 4.30359L17.375 9.57145" stroke="#F3DEB7" stroke-width="1.3" stroke-linecap="round" stroke-linejoin="round"/>
</svg>
