<svg width="20" height="20" viewBox="0 0 20 20" fill="none" xmlns="http://www.w3.org/2000/svg">
<path d="M9.85001 18.7V3.52856" stroke="#F3DEB7" stroke-width="1.3" stroke-linecap="round" stroke-linejoin="round"/>
<path d="M6.05714 18.7H13.6429" stroke="#F3DEB7" stroke-width="1.3" stroke-linecap="round" stroke-linejoin="round"/>
<path d="M11.1143 2.26428H15.5393" stroke="#F3DEB7" stroke-width="1.3" stroke-linecap="round" stroke-linejoin="round"/>
<path d="M4.16072 2.26428H8.58572" stroke="#F3DEB7" stroke-width="1.3" stroke-linecap="round" stroke-linejoin="round"/>
<path d="M9.84999 3.52857C10.5482 3.52857 11.1143 2.96253 11.1143 2.26429C11.1143 1.56604 10.5482 1 9.84999 1C9.15175 1 8.58571 1.56604 8.58571 2.26429C8.58571 2.96253 9.15175 3.52857 9.84999 3.52857Z" stroke="#F3DEB7" stroke-width="1.3" stroke-linecap="round" stroke-linejoin="round"/>
<path d="M7.32143 11.1143C7.32143 11.9526 6.98843 12.7565 6.39568 13.3493C5.80293 13.942 4.99899 14.275 4.16071 14.275C3.32244 14.275 2.5185 13.942 1.92575 13.3493C1.333 12.7565 1 11.9526 1 11.1143H7.32143Z" stroke="#F3DEB7" stroke-width="1.3" stroke-linecap="round" stroke-linejoin="round"/>
<path d="M4.16071 2.26428L1 8.58571" stroke="#F3DEB7" stroke-width="1.3" stroke-linecap="round" stroke-linejoin="round"/>
<path d="M4.16072 2.26428L7.32144 8.58571" stroke="#F3DEB7" stroke-width="1.3" stroke-linecap="round" stroke-linejoin="round"/>
<path d="M18.7 11.1143C18.7 11.9526 18.367 12.7565 17.7742 13.3493C17.1815 13.942 16.3776 14.275 15.5393 14.275C14.701 14.275 13.8971 13.942 13.3043 13.3493C12.7116 12.7565 12.3786 11.9526 12.3786 11.1143H18.7Z" stroke="#F3DEB7" stroke-width="1.3" stroke-linecap="round" stroke-linejoin="round"/>
<path d="M15.5393 2.26428L12.3786 8.58571" stroke="#F3DEB7" stroke-width="1.3" stroke-linecap="round" stroke-linejoin="round"/>
<path d="M15.5393 2.26428L18.7 8.58571" stroke="#F3DEB7" stroke-width="1.3" stroke-linecap="round" stroke-linejoin="round"/>
</svg>
